<svg width="25" height="25" viewBox="0 0 25 25" fill="none" xmlns="http://www.w3.org/2000/svg">
<path fill-rule="evenodd" clip-rule="evenodd" d="M12.25 3.15002C7.56 3.15002 3.75 6.96002 3.75 11.65C3.75 16.34 7.56 20.15 12.25 20.15C16.94 20.15 20.75 16.34 20.75 11.65C20.75 6.96002 16.94 3.15002 12.25 3.15002ZM12.25 19.15C8.11 19.15 4.75 15.79 4.75 11.65C4.75 7.51002 8.11 4.15002 12.25 4.15002C16.39 4.15002 19.75 7.51002 19.75 11.65C19.75 15.79 16.39 19.15 12.25 19.15ZM11.53 9.62002C11.92 9.83002 12.43 9.87003 12.97 9.60003C14.12 9.03003 14.26 7.56002 13.69 6.43002C13.57 6.18002 13.27 6.08002 13.02 6.21002C12.77 6.33002 12.67 6.63002 12.8 6.88002C13.23 7.75002 12.97 8.48002 12.52 8.71002C12.27 8.84002 12.1 8.80002 11.99 8.74002C11.85 8.67002 11.74 8.53003 11.69 8.43003C11.57 8.18003 11.27 8.08002 11.02 8.21002C10.77 8.33002 10.67 8.63002 10.8 8.88002C10.92 9.12002 11.16 9.43002 11.53 9.62002ZM10.75 12.4C10.75 12.8142 10.4142 13.15 10 13.15C9.58579 13.15 9.25 12.8142 9.25 12.4C9.25 11.9858 9.58579 11.65 10 11.65C10.4142 11.65 10.75 11.9858 10.75 12.4ZM15.11 14.68C15.11 14.68 15.04 14.65 15 14.66H9.51001C9.51001 14.66 9.43001 14.66 9.40001 14.68C9.36001 14.7 9.33001 14.72 9.31001 14.75C9.29001 14.78 9.27001 14.82 9.26001 14.86V14.98C9.31001 15.16 9.39001 15.33 9.47001 15.49C9.47001 15.5 9.48001 15.52 9.49001 15.54C9.49001 15.54 9.49001 15.56 9.50001 15.56C9.51001 15.575 9.52001 15.5925 9.53001 15.61C9.54001 15.6275 9.55001 15.645 9.56001 15.66C9.57001 15.68 9.59001 15.7 9.61001 15.72C9.73001 15.91 9.87001 16.09 10.04 16.26C10.05 16.27 10.0625 16.28 10.075 16.29C10.0875 16.3 10.1 16.31 10.11 16.32C10.27 16.47 10.44 16.59 10.62 16.7C10.635 16.71 10.6525 16.72 10.67 16.73C10.6875 16.74 10.705 16.75 10.72 16.76C10.92 16.87 11.14 16.96 11.37 17.03C11.42 17.04 11.47 17.05 11.52 17.07C11.76 17.13 12.01 17.17 12.26 17.17C12.51 17.17 12.76 17.13 13 17.07C13.05 17.06 13.1 17.05 13.15 17.03C13.38 16.96 13.59 16.88 13.8 16.76C13.84 16.74 13.87 16.72 13.9 16.7C14.08 16.59 14.26 16.46 14.41 16.32C14.42 16.31 14.4325 16.3 14.445 16.29C14.4575 16.28 14.47 16.27 14.48 16.26C14.64 16.1 14.78 15.92 14.9 15.73C14.91 15.71 14.93 15.69 14.95 15.67C14.97 15.64 14.99 15.61 15.01 15.57C15.01 15.57 15.01 15.55 15.02 15.55C15.02 15.54 15.03 15.52 15.04 15.5C15.12 15.34 15.2 15.17 15.25 14.99C15.26 14.95 15.26 14.91 15.25 14.87C15.25 14.83 15.23 14.8 15.2 14.76C15.18 14.73 15.15 14.7 15.11 14.69V14.68ZM9.56001 15.66L9.53001 15.59C9.53001 15.59 9.56001 15.64 9.57001 15.66H9.56001ZM15.25 12.4C15.25 12.8142 14.9142 13.15 14.5 13.15C14.0858 13.15 13.75 12.8142 13.75 12.4C13.75 11.9858 14.0858 11.65 14.5 11.65C14.9142 11.65 15.25 11.9858 15.25 12.4Z" fill="black"/>
</svg>
