<svg width="25" height="25" viewBox="0 0 25 25" fill="none" xmlns="http://www.w3.org/2000/svg">
<path fill-rule="evenodd" clip-rule="evenodd" d="M5.792 6.55702C5.086 6.71102 4.447 7.36002 4.296 8.07502C4.231 8.38602 4.231 17.614 4.296 17.925C4.376 18.304 4.535 18.583 4.851 18.899C5.167 19.215 5.446 19.374 5.825 19.454C6.137 19.519 18.363 19.519 18.675 19.454C19.054 19.374 19.333 19.215 19.649 18.899C19.965 18.583 20.124 18.304 20.204 17.925C20.269 17.614 20.269 8.38602 20.204 8.07502C20.1272 7.72255 19.9521 7.39905 19.699 7.14202C19.4119 6.83807 19.039 6.62878 18.63 6.54202C18.284 6.47702 6.089 6.49202 5.792 6.55702ZM18.688 7.61102C18.9328 7.74243 19.1187 7.96187 19.208 8.22502C19.208 8.23602 17.643 9.18502 15.729 10.333L12.25 12.421L8.771 10.333C6.857 9.18502 5.292 8.23602 5.292 8.22502C5.30959 8.17175 5.33202 8.1202 5.359 8.07102C5.488 7.81502 5.716 7.62602 6 7.53902C6.057 7.52102 8.898 7.51002 12.313 7.51402L18.521 7.52102L18.688 7.61102ZM8.681 11.448C11.808 13.326 12.077 13.478 12.25 13.478C12.423 13.478 12.692 13.326 15.819 11.448C16.9503 10.7637 18.086 10.0867 19.226 9.41702C19.24 9.41702 19.247 11.296 19.24 13.594L19.229 17.771L19.137 17.943C19.02 18.162 18.757 18.389 18.548 18.452C18.316 18.521 6.184 18.521 5.952 18.452C5.743 18.389 5.48 18.162 5.363 17.943L5.271 17.771L5.26 13.594C5.253 11.296 5.26 9.41702 5.274 9.41702C5.288 9.41702 6.821 10.331 8.681 11.448Z" fill="black"/>
</svg>
