<svg width="25" height="25" viewBox="0 0 25 25" fill="none" xmlns="http://www.w3.org/2000/svg">
<path fill-rule="evenodd" clip-rule="evenodd" d="M11.569 3.166C10.8295 3.29909 10.1407 3.63262 9.57764 4.13023C9.01461 4.62783 8.59897 5.27043 8.376 5.988L8.284 6.289L6.819 6.301L5.354 6.313L5.125 6.42C4.88 6.535 4.539 6.846 4.433 7.051C4.245 7.413 4.251 7.204 4.251 13.833C4.251 20.463 4.245 20.253 4.433 20.616C4.538 20.819 4.88 21.132 5.115 21.239C5.235 21.295 5.451 21.357 5.594 21.377C5.936 21.427 18.564 21.427 18.906 21.377C19.0707 21.3508 19.2316 21.3045 19.385 21.239C19.62 21.132 19.962 20.819 20.067 20.616C20.255 20.253 20.249 20.463 20.249 13.833C20.249 7.204 20.255 7.413 20.067 7.051C19.961 6.846 19.62 6.535 19.375 6.42L19.146 6.313L17.683 6.301L16.221 6.289L16.085 5.873C15.674 4.62 14.661 3.658 13.339 3.265C13.042 3.177 12.874 3.156 12.375 3.144C12.043 3.136 11.68 3.146 11.569 3.166ZM12.938 4.187C13.098 4.221 13.407 4.336 13.625 4.443C13.958 4.608 14.081 4.699 14.399 5.017C14.712 5.331 14.811 5.463 14.972 5.785C15.079 6 15.167 6.201 15.167 6.233C15.167 6.283 14.721 6.292 12.25 6.292C9.74 6.292 9.333 6.283 9.333 6.232C9.333 6.199 9.422 5.997 9.53 5.784C9.691 5.467 9.796 5.327 10.103 5.019C10.416 4.706 10.546 4.609 10.875 4.445C11.093 4.336 11.393 4.221 11.542 4.189C12.0042 4.11283 12.4756 4.11215 12.938 4.187ZM8.208 8.066C8.208 8.722 8.219 8.86 8.279 8.962C8.421 9.202 8.756 9.266 8.995 9.099C9.176 8.972 9.208 8.808 9.208 8.022V7.292H15.292V8.022C15.292 8.813 15.325 8.98 15.509 9.1C15.5803 9.15138 15.6639 9.18298 15.7514 9.19159C15.8389 9.2002 15.927 9.1855 16.007 9.149C16.268 9.026 16.292 8.936 16.292 8.066V7.292H17.585C18.66 7.292 18.9 7.302 19.001 7.355C19.267 7.492 19.25 7.053 19.25 13.842C19.25 19.887 19.248 20.024 19.169 20.154C19.1235 20.2279 19.0633 20.2916 18.992 20.341C18.85 20.422 5.65 20.422 5.508 20.341C5.43672 20.2916 5.37645 20.2279 5.331 20.154C5.252 20.024 5.25 19.887 5.25 13.842C5.25 8.408 5.258 7.648 5.313 7.541C5.436 7.302 5.48 7.295 6.906 7.293L8.208 7.292V8.066Z" fill="black"/>
</svg>
