<svg width="25" height="24" viewBox="0 0 25 24" fill="none" xmlns="http://www.w3.org/2000/svg">
<path fill-rule="evenodd" clip-rule="evenodd" d="M12.833 4.569C11.4657 4.65224 10.128 5.00322 8.89599 5.602C6.45099 6.797 4.87399 8.693 4.36899 11.042C4.28899 11.413 4.27499 11.605 4.27499 12.313C4.27499 13.254 4.33799 13.654 4.61099 14.458C5.30999 16.517 7.02699 18.254 9.23799 19.141C11.092 19.885 13.209 20.102 15.125 19.745C16.645 19.461 17.915 18.931 19 18.127C19.719 17.595 19.926 17.241 19.924 16.552C19.922 16.069 19.788 15.737 19.452 15.384C19.213 15.134 18.881 14.985 18.275 14.857C17.735 14.743 17.522 14.634 17.375 14.396C17.3269 14.3266 17.2994 14.245 17.2955 14.1607C17.2916 14.0763 17.3115 13.9926 17.353 13.919C17.386 13.854 17.719 13.542 18.092 13.224C19.194 12.287 19.486 11.957 19.834 11.256C20.562 9.791 20.313 8.096 19.182 6.808C18.737 6.301 17.895 5.701 17.127 5.344C15.864 4.758 14.28 4.471 12.833 4.569ZM14.125 5.584C15.787 5.728 17.334 6.373 18.272 7.311C19.264 8.304 19.516 9.638 18.935 10.813C18.673 11.342 18.413 11.633 17.509 12.406C16.626 13.162 16.466 13.344 16.353 13.726C16.168 14.349 16.405 14.974 16.995 15.417C17.293 15.641 17.562 15.745 18.125 15.854C18.592 15.945 18.736 16.018 18.835 16.212C18.941 16.419 18.944 16.771 18.841 16.927C18.686 17.162 17.961 17.663 17.284 18.004C14.58 19.363 10.853 19.176 8.33999 17.554C6.66799 16.476 5.62699 14.974 5.32899 13.208C5.25999 12.805 5.26099 11.817 5.32899 11.417C5.55125 10.1599 6.15693 9.00232 7.06299 8.103C8.82199 6.338 11.559 5.361 14.125 5.584ZM10.665 6.888C9.89699 7.105 9.53399 7.911 9.90099 8.585C10.122 8.992 10.523 9.225 11 9.225C12.052 9.225 12.63 8.044 11.955 7.276C11.648 6.928 11.103 6.764 10.665 6.888ZM14.768 6.87C14.543 6.928 14.206 7.137 14.08 7.296C13.454 8.086 14.034 9.224 15.063 9.224C15.676 9.224 16.156 8.836 16.292 8.228C16.371 7.877 16.174 7.353 15.883 7.138C15.555 6.895 15.097 6.785 14.768 6.87ZM7.44599 9.308C7.07299 9.447 6.76499 9.769 6.66599 10.124C6.45999 10.867 7.06999 11.625 7.87499 11.625C8.38399 11.625 8.87099 11.298 9.04399 10.842C9.25599 10.28 9.00199 9.655 8.44699 9.368C8.22299 9.253 7.68199 9.22 7.44599 9.308ZM7.90499 13.127C7.41499 13.249 7.09999 13.559 6.97699 14.038C6.87799 14.425 6.97299 14.76 7.27199 15.08C7.52699 15.353 7.80799 15.473 8.18799 15.474C8.80099 15.475 9.28099 15.086 9.41699 14.478C9.47099 14.237 9.38999 13.876 9.22699 13.629C8.97099 13.243 8.36399 13.012 7.90499 13.127ZM11.875 14.628C11.549 14.684 11.158 14.894 10.901 15.154C10.366 15.693 10.235 16.442 10.554 17.139C10.672 17.398 11.079 17.829 11.321 17.952C11.6104 18.0931 11.9281 18.1665 12.25 18.1665C12.5719 18.1665 12.8896 18.0931 13.179 17.952C13.421 17.829 13.828 17.398 13.946 17.139C14.332 16.296 14.061 15.414 13.25 14.873C12.918 14.652 12.342 14.549 11.875 14.628ZM12.652 15.68C12.93 15.824 13.126 16.116 13.124 16.384C13.1051 16.5946 13.0156 16.7927 12.87 16.946C12.524 17.263 11.869 17.231 11.575 16.882C11.202 16.439 11.408 15.809 11.985 15.624C12.144 15.573 12.504 15.603 12.652 15.68Z" fill="black"/>
</svg>
