<svg width="25" height="25" viewBox="0 0 25 25" fill="none" xmlns="http://www.w3.org/2000/svg">
<path fill-rule="evenodd" clip-rule="evenodd" d="M9.92801 5.36802C9.76301 5.41702 9.68101 5.52202 9.00101 6.54002L8.33201 7.54202H4.38801L4.20401 7.63902C4.08412 7.70893 3.9794 7.80208 3.89601 7.91302L3.77101 8.09002L3.75901 13.764C3.74601 20.098 3.72601 19.647 4.04101 19.932C4.13001 20.012 4.27401 20.098 4.36201 20.122C4.58501 20.184 19.915 20.184 20.138 20.122C20.2562 20.0799 20.3652 20.0154 20.459 19.932C20.774 19.647 20.754 20.098 20.741 13.764L20.729 8.09002L20.604 7.91302C20.5206 7.80208 20.4159 7.70893 20.296 7.63902L20.112 7.54202H16.168L15.477 6.50802C15.097 5.94002 14.745 5.44802 14.695 5.41502C14.619 5.36402 14.236 5.35302 12.313 5.34702C11.052 5.34302 9.97901 5.35302 9.92801 5.36802ZM14.845 7.37002C15.474 8.31102 15.553 8.41202 15.707 8.47402C15.855 8.53302 16.122 8.54202 17.813 8.54202H19.75V19.167H4.75001V8.54202H6.68701C8.37801 8.54202 8.64501 8.53302 8.79301 8.47402C8.94701 8.41202 9.02601 8.31102 9.65501 7.37002L10.348 6.33302H14.152L14.845 7.37002ZM11.469 10.23C11.0984 10.3309 10.7456 10.4884 10.423 10.697C10.133 10.896 9.71701 11.329 9.50101 11.657C9.36209 11.8798 9.24902 12.1176 9.16401 12.366C9.03501 12.746 9.02601 12.806 9.02401 13.354C9.02301 13.794 9.04101 14.004 9.09701 14.208C9.25589 14.7593 9.55208 15.2612 9.95785 15.6668C10.3636 16.0724 10.8657 16.3684 11.417 16.527C11.618 16.582 11.838 16.601 12.271 16.6C12.821 16.599 12.877 16.592 13.259 16.461C14.043 16.195 14.763 15.581 15.126 14.871C15.3228 14.485 15.441 14.0637 15.4736 13.6316C15.5062 13.1995 15.4526 12.7652 15.316 12.354C15.165 11.879 14.948 11.533 14.542 11.121C14.141 10.715 13.772 10.479 13.271 10.307C12.977 10.207 12.865 10.192 12.333 10.182C11.923 10.174 11.645 10.19 11.469 10.23ZM12.923 11.249C13.2612 11.3613 13.5685 11.5507 13.8207 11.8024C14.0729 12.0541 14.2631 12.3611 14.376 12.699C14.475 13.02 14.487 13.659 14.4 13.985C14.224 14.649 13.64 15.271 12.979 15.501C12.7823 15.5597 12.5798 15.5966 12.375 15.611C11.708 15.654 11.15 15.44 10.663 14.957C10.054 14.35 9.85801 13.517 10.124 12.661C10.323 12.021 10.962 11.409 11.621 11.227C11.931 11.141 12.613 11.153 12.923 11.249Z" fill="black"/>
</svg>
