<svg width="25" height="24" viewBox="0 0 25 24" fill="none" xmlns="http://www.w3.org/2000/svg">
<path fill-rule="evenodd" clip-rule="evenodd" d="M12.25 5.31603C10.34 5.47403 8.773 6.15803 7.448 7.41403C6.402 8.40403 5.659 9.76203 5.367 11.216C5.23 11.897 5.23 13.103 5.367 13.784C5.59686 14.915 6.09042 15.9758 6.80754 16.8801C7.52467 17.7843 8.44511 18.5066 9.494 18.988C11.563 19.938 13.937 19.938 16.006 18.988C17.0549 18.5066 17.9753 17.7843 18.6925 16.8801C19.4096 15.9758 19.9031 14.915 20.133 13.784C20.27 13.103 20.27 11.897 20.133 11.216C19.524 8.18703 17.058 5.86703 13.946 5.39503C13.561 5.33603 12.567 5.29003 12.25 5.31603ZM13.371 6.33403C15.388 6.51303 17.238 7.61703 18.3 9.27503C18.672 9.85603 19.026 10.763 19.151 11.458C19.247 11.992 19.247 13.008 19.151 13.542C18.671 16.205 16.431 18.275 13.626 18.648C11.098 18.985 8.543 17.823 7.2 15.725C6.86201 15.174 6.60599 14.5768 6.44 13.952C6.21102 12.9976 6.21102 12.0025 6.44 11.048C6.60599 10.4233 6.86201 9.82603 7.2 9.27503C8.089 7.88703 9.568 6.85703 11.219 6.47703C11.9235 6.3107 12.6507 6.26238 13.371 6.33403ZM12.563 9.16303C12.4928 9.20194 12.4293 9.25191 12.375 9.31103L12.271 9.42303V12.707L12.407 12.843C12.524 12.96 12.572 12.979 12.75 12.979C12.928 12.979 12.976 12.96 13.093 12.843L13.229 12.707V9.41803L13.1 9.28903C12.963 9.15203 12.718 9.09403 12.563 9.16303ZM12.467 14.773C12.4041 14.8234 12.3524 14.8864 12.315 14.9578C12.2776 15.0292 12.2555 15.1076 12.25 15.188C12.25 15.328 12.35 15.52 12.467 15.602C12.5575 15.6473 12.6578 15.6696 12.759 15.667C13.046 15.667 13.211 15.512 13.24 15.217C13.259 15.015 13.252 14.994 13.114 14.855C12.986 14.727 12.94 14.708 12.763 14.708C12.6605 14.7048 12.5587 14.7271 12.467 14.773Z" fill="black"/>
</svg>
