<svg width="25" height="25" viewBox="0 0 25 25" fill="none" xmlns="http://www.w3.org/2000/svg">
<path fill-rule="evenodd" clip-rule="evenodd" d="M12.563 5.53801C12.4928 5.57692 12.4293 5.6269 12.375 5.68601L12.271 5.79801L12.26 9.14801L12.249 12.499L8.896 12.51L5.543 12.521L5.407 12.657C5.29 12.774 5.271 12.822 5.271 13C5.271 13.178 5.29 13.226 5.407 13.343L5.543 13.479L8.896 13.49L12.249 13.501L12.26 16.854L12.271 20.207L12.407 20.343C12.524 20.46 12.572 20.479 12.75 20.479C12.928 20.479 12.976 20.46 13.093 20.343L13.229 20.207L13.24 16.854L13.251 13.501L16.604 13.49L19.957 13.479L20.093 13.343C20.21 13.226 20.229 13.178 20.229 13C20.229 12.822 20.21 12.774 20.093 12.657L19.957 12.521L16.604 12.51L13.251 12.499L13.24 9.14601L13.229 5.79301L13.1 5.66401C12.963 5.52701 12.718 5.46901 12.563 5.53801Z" fill="black"/>
</svg>
