<svg width="25" height="25" viewBox="0 0 25 25" fill="none" xmlns="http://www.w3.org/2000/svg">
<path fill-rule="evenodd" clip-rule="evenodd" d="M15.229 5.72497C15.0569 5.809 14.9234 5.95569 14.856 6.13497C14.799 6.27197 14.792 6.96197 14.792 12.236V18.182L14.88 18.365C15.095 18.808 15.661 18.918 16.048 18.592C16.306 18.375 16.292 18.761 16.292 12.233C16.292 8.11097 16.278 6.21897 16.247 6.13797C16.1658 5.9645 16.0331 5.82028 15.867 5.72497C15.726 5.65197 15.394 5.65197 15.229 5.72497ZM19.104 5.74497C18.9484 5.83565 18.8256 5.97321 18.753 6.13797C18.722 6.21897 18.708 8.09897 18.708 12.229C18.708 16.359 18.722 18.239 18.753 18.32C18.849 18.574 19.17 18.789 19.456 18.791C19.673 18.792 19.948 18.639 20.076 18.446L20.188 18.277L20.2 12.316C20.209 8.15797 20.199 6.30697 20.168 6.19997C20.11 6.00097 19.936 5.79497 19.764 5.72397C19.568 5.64197 19.253 5.65197 19.104 5.74497ZM4.96999 5.91597C4.67899 6.06297 4.53199 6.21697 4.38999 6.52097L4.29199 6.72897V12.196C4.29199 17.591 4.29299 17.667 4.37599 17.89C4.43299 18.042 4.52599 18.177 4.65999 18.302C5.06799 18.683 5.63699 18.769 6.08099 18.515C6.26699 18.409 11.871 13.456 12.258 13.055C12.662 12.638 12.709 11.939 12.363 11.5C12.171 11.255 6.26199 6.00997 6.06299 5.90597C5.94799 5.84597 5.79199 5.81397 5.56299 5.80197C5.25399 5.78597 5.20999 5.79497 4.96999 5.91597ZM8.53499 10.055C10.862 12.129 10.962 12.223 10.889 12.292C10.607 12.558 5.83199 16.792 5.81399 16.792C5.80199 16.792 5.79199 14.727 5.79199 12.204V7.61597L5.94799 7.75297L8.53499 10.055Z" fill="black"/>
</svg>
