<svg width="25" height="25" viewBox="0 0 25 25" fill="none" xmlns="http://www.w3.org/2000/svg">
<path fill-rule="evenodd" clip-rule="evenodd" d="M11.701 4.29199C11.272 4.35999 10.943 4.46199 10.547 4.64899C9.435 5.17299 8.651 6.13799 8.346 7.35999C8.247 7.75599 8.247 8.74399 8.346 9.13999C8.717 10.625 9.798 11.727 11.286 12.135C11.744 12.261 12.756 12.261 13.214 12.135C14.702 11.727 15.783 10.625 16.154 9.13999C16.253 8.74399 16.253 7.75599 16.154 7.35999C15.784 5.87699 14.645 4.72499 13.207 4.37599C12.804 4.27799 12.052 4.23599 11.701 4.29199ZM13.042 5.35199C13.168 5.38599 13.43 5.49299 13.625 5.58899C13.911 5.72999 14.051 5.83599 14.356 6.14199C14.676 6.46299 14.763 6.58199 14.926 6.91699C15.174 7.42999 15.228 7.66699 15.228 8.24999C15.228 8.83299 15.174 9.06999 14.926 9.58299C14.763 9.91899 14.676 10.037 14.355 10.359C14.032 10.684 13.919 10.767 13.582 10.93C13.3531 11.0402 13.113 11.1256 12.866 11.185C12.2066 11.3239 11.5195 11.234 10.918 10.93C10.582 10.767 10.467 10.683 10.142 10.358C9.815 10.031 9.734 9.91999 9.572 9.58199C9.325 9.06699 9.272 8.82899 9.272 8.24999C9.272 7.67099 9.325 7.43299 9.572 6.91799C9.734 6.57999 9.815 6.46899 10.142 6.14199C10.468 5.81599 10.581 5.73299 10.918 5.57099C11.135 5.46699 11.416 5.36199 11.542 5.33699C11.668 5.31299 11.808 5.28399 11.854 5.27299C12.013 5.23599 12.813 5.28899 13.042 5.35199ZM11.5 13.774L10.917 13.837C8.664 14.075 6.581 15.111 5.535 16.515C5.247 16.901 5 17.392 5 17.579C4.99743 17.6496 5.01046 17.7198 5.03817 17.7848C5.06588 17.8498 5.10758 17.9078 5.1603 17.9548C5.21302 18.0018 5.27546 18.0366 5.34317 18.0566C5.41088 18.0767 5.48218 18.0816 5.552 18.071C5.76 18.043 5.854 17.955 6.009 17.646C6.6 16.467 7.977 15.522 9.773 15.061C10.647 14.837 11.182 14.775 12.25 14.775C13.318 14.775 13.853 14.837 14.727 15.061C16.523 15.522 17.9 16.467 18.491 17.646C18.646 17.955 18.74 18.043 18.948 18.071C19.0178 18.0816 19.0891 18.0767 19.1568 18.0566C19.2245 18.0366 19.287 18.0018 19.3397 17.9548C19.3924 17.9078 19.4341 17.8498 19.4618 17.7848C19.4895 17.7198 19.5026 17.6496 19.5 17.579C19.5 17.392 19.253 16.901 18.965 16.515C17.941 15.141 16.016 14.161 13.729 13.849C13.291 13.79 11.805 13.739 11.5 13.774Z" fill="black"/>
</svg>
