<svg width="25" height="25" viewBox="0 0 25 25" fill="none" xmlns="http://www.w3.org/2000/svg">
<path fill-rule="evenodd" clip-rule="evenodd" d="M12.085 4.54498C8.701 4.87098 6.082 7.73698 6.084 11.114C6.085 13.439 7.286 15.726 9.798 18.188C10.715 19.086 12.119 20.244 12.525 20.437C12.795 20.565 12.916 20.518 13.566 20.03C15.42 18.639 17.149 16.832 18.105 15.286C19.457 13.101 19.77 10.95 19.033 8.91698C17.989 6.03498 15.152 4.24998 12.085 4.54498ZM13.339 5.54298C14.6056 5.67418 15.7911 6.22791 16.7047 7.11498C17.6182 8.00204 18.2066 9.1708 18.375 10.433C18.482 11.252 18.362 12.286 18.063 13.125C17.764 13.965 17.11 15.07 16.351 16.021C15.637 16.915 13.775 18.676 12.912 19.274L12.75 19.386L12.588 19.274C11.725 18.676 9.863 16.915 9.149 16.021C8.106 14.714 7.43 13.409 7.187 12.229C7.081 11.718 7.06 10.857 7.14 10.325C7.552 7.58898 9.868 5.57198 12.673 5.50598C12.802 5.50198 13.102 5.51898 13.339 5.54298ZM12.396 8.44298C11.569 8.57098 10.806 9.12398 10.465 9.84298C10.255 10.285 10.205 10.505 10.205 10.979C10.205 11.452 10.255 11.674 10.46 12.104C10.7662 12.7236 11.3056 13.1966 11.96 13.419C12.405 13.565 13.095 13.565 13.54 13.419C14.1937 13.1958 14.7326 12.7231 15.039 12.104C15.245 11.675 15.295 11.453 15.295 10.979C15.295 10.505 15.245 10.285 15.035 9.84298C14.747 9.23498 14.135 8.72298 13.458 8.52398C13.223 8.45498 12.619 8.40898 12.396 8.44298ZM13.405 9.58398C13.722 9.72898 14.016 10.021 14.162 10.333C14.313 10.656 14.335 11.174 14.211 11.505C13.984 12.109 13.374 12.542 12.746 12.542C12.279 12.542 11.725 12.244 11.466 11.853C11.264 11.548 11.198 11.297 11.215 10.904C11.234 10.486 11.358 10.193 11.635 9.90898C11.8584 9.67567 12.1497 9.5187 12.4675 9.46036C12.7852 9.40201 13.1132 9.44527 13.405 9.58398Z" fill="black"/>
</svg>
