<svg width="25" height="25" viewBox="0 0 25 25" fill="none" xmlns="http://www.w3.org/2000/svg">
<path fill-rule="evenodd" clip-rule="evenodd" d="M16.25 8.65002C16.25 10.86 14.46 12.65 12.25 12.65C10.04 12.65 8.25 10.86 8.25 8.65002C8.25 6.44002 10.04 4.65002 12.25 4.65002C14.46 4.65002 16.25 6.44002 16.25 8.65002ZM15.25 8.65002C15.25 6.99002 13.91 5.65002 12.25 5.65002C10.59 5.65002 9.25 6.99002 9.25 8.65002C9.25 10.31 10.59 11.65 12.25 11.65C13.91 11.65 15.25 10.31 15.25 8.65002ZM17.75 13.51C18.06 13.29 18.45 13.15 18.86 13.15L18.87 13.14C19.92 13.14 20.76 13.99 20.76 15.04C20.76 15.39 20.71 15.72 20.61 16.02C20.38 16.75 19.92 17.31 19.45 17.72C19.4544 17.7332 19.4607 17.7444 19.4664 17.7546C19.4737 17.7676 19.48 17.7788 19.48 17.79C19.59 18.04 19.46 18.33 19.21 18.44C19 18.52 18.77 18.45 18.63 18.28C18.43 18.39 18.23 18.49 18.07 18.54C17.96 18.58 17.84 18.59 17.75 18.59C17.66 18.59 17.54 18.58 17.43 18.54C17.06 18.42 16.55 18.15 16.08 17.74C15.6 17.33 15.13 16.76 14.9 16.02C14.84 15.85 14.81 15.66 14.78 15.47C13.99 15.26 13.13 15.14 12.25 15.14C10.78 15.14 9.35998 15.46 8.20998 16.02C7.05998 16.59 6.28998 17.36 5.94998 18.17C5.84998 18.43 5.54998 18.55 5.29998 18.44C5.03998 18.34 4.91998 18.04 5.02998 17.79C5.48998 16.69 6.46998 15.77 7.76998 15.13C9.06998 14.49 10.64 14.15 12.25 14.15C13.15 14.15 14.02 14.28 14.85 14.48C15.09 13.71 15.79 13.15 16.64 13.15C17.05 13.15 17.44 13.28 17.75 13.51ZM18.76 17C19.14 16.67 19.48 16.24 19.64 15.73C19.71 15.53 19.75 15.3 19.75 15.06C19.75 14.56 19.35 14.16 18.86 14.16C18.57 14.16 18.31 14.3 18.15 14.52L17.75 15.06L17.35 14.52C17.19 14.3 16.93 14.16 16.64 14.16C16.15 14.16 15.75 14.56 15.75 15.06C15.75 15.31 15.79 15.53 15.86 15.74C16.02 16.25 16.36 16.67 16.74 17C17.12 17.32 17.51 17.53 17.75 17.61C17.99 17.53 18.38 17.32 18.76 17Z" fill="black"/>
</svg>
