<svg width="25" height="25" viewBox="0 0 25 25" fill="none" xmlns="http://www.w3.org/2000/svg">
<mask id="mask0_420_358" style="mask-type:luminance" maskUnits="userSpaceOnUse" x="0" y="0" width="25" height="25">
<path d="M24.25 0.154785H0.25V24.1548H24.25V0.154785Z" fill="white"/>
</mask>
<g mask="url(#mask0_420_358)">
<path d="M12.25 5.15C12.46 5.15 12.68 5.16 12.92 5.18C12.96 5.18 13 5.19 13.04 5.2H13.15C13.29 5.23 13.42 5.25001 13.56 5.28C13.65 5.3 13.74 5.32 13.84 5.34C13.95 5.37 14.06 5.39 14.17 5.42C14.28 5.45 14.38 5.48 14.48 5.52C14.57 5.55 14.66 5.58 14.75 5.62C14.86 5.66 14.98 5.71001 15.09 5.76L15.19 5.81L15.27 5.85C15.75 6.08 16.2 6.36 16.6 6.68L17 7L17.49 6.86C18.39 6.6 18.76 6.54 18.88 6.53V6.56C18.86 6.73 18.72 7.24 18.39 7.9L18.16 8.37L18.41 8.83C18.52 9.04 18.63 9.27 18.74 9.53C18.76 9.57 18.77 9.61 18.79 9.66L18.83 9.76C18.89 9.93001 18.95 10.11 19 10.28C19.02 10.37 19.05 10.46 19.07 10.55C19.11 10.73 19.15 10.91 19.17 11.1L19.19 11.2C19.19 11.2 19.21 11.3 19.21 11.34C19.24 11.56 19.25 11.76 19.26 11.96C18.46 11.63 17.42 11.01 17.05 10.78L16.5 10.43L15.96 10.79C14.96 11.46 12.77 11.83 9.79 11.83C8.06 11.83 6.44 11.71 5.38 11.61H5.28C5.56 8 8.58 5.15 12.26 5.15M12.25 4.15C7.83 4.15 4.25 7.73 4.25 12.15C4.25 12.27 4.25 12.38 4.25 12.49C4.25 12.49 4.25 12.49 4.26 12.49C4.44 16.75 7.94 20.14 12.24 20.14C16.54 20.14 19.82 16.96 20.2 12.9C20.24 12.58 20.24 12.31 20.24 12.14C20.24 11.82 20.22 11.51 20.18 11.21C20.17 11.11 20.15 11.02 20.14 10.93C20.11 10.72 20.07 10.51 20.02 10.3C20 10.2 19.97 10.1 19.94 9.99C19.88 9.79 19.82 9.59001 19.75 9.39001C19.72 9.30001 19.69 9.22001 19.66 9.13C19.55 8.85 19.43 8.59 19.29 8.33C19.73 7.46 19.91 6.73 19.89 6.49C20.01 5.76 19.77 5.5 18.99 5.5C18.97 5.5 18.94 5.5 18.92 5.5C18.58 5.5 17.9 5.67 17.22 5.87C16.75 5.5 16.24 5.18 15.7 4.92C15.63 4.89 15.57 4.85 15.5 4.82C15.37 4.76 15.24 4.71 15.11 4.66C15.01 4.62 14.91 4.58 14.81 4.55C14.69 4.51 14.57 4.47 14.45 4.44C14.33 4.4 14.2 4.37 14.07 4.34C13.96 4.31 13.85 4.29 13.75 4.27C13.6 4.24 13.44 4.22 13.28 4.2C13.19 4.19 13.1 4.17 13.02 4.17C12.77 4.15 12.52 4.13 12.26 4.13L12.25 4.15ZM9.78 12.83C12.32 12.83 15.08 12.58 16.51 11.62C16.51 11.62 18.1 12.62 19.2 13C18.78 16.46 15.83 19.15 12.26 19.15C8.69 19.15 5.52 16.26 5.28 12.6C6.3 12.7 7.99 12.82 9.78 12.82V12.83Z" fill="black"/>
<path d="M8.84 13.89C8.84 13.62 9.06 13.41 9.32 13.41C9.58 13.41 9.8 13.63 9.8 13.89V14.42C9.8 14.69 9.58 14.9 9.32 14.9C9.06 14.9 8.84 14.68 8.84 14.42V13.89Z" fill="black"/>
<path d="M14.69 13.89C14.69 13.62 14.91 13.41 15.17 13.41C15.43 13.41 15.65 13.63 15.65 13.89V14.42C15.65 14.69 15.43 14.9 15.17 14.9C14.91 14.9 14.69 14.68 14.69 14.42V13.89Z" fill="black"/>
<path fill-rule="evenodd" clip-rule="evenodd" d="M13.16 14.98C12.94 15.14 12.61 15.31 12.19 15.31C11.77 15.31 11.44 15.14 11.22 14.98C11.11 14.9 11.03 14.82 10.97 14.76C10.94 14.73 10.92 14.7 10.9 14.68L10.88 14.66V14.65C10.88 14.65 10.88 14.65 11.19 14.42L10.88 14.65C10.75 14.47 10.78 14.22 10.96 14.09C11.14 13.96 11.38 13.99 11.52 14.17C11.52 14.17 11.54 14.2 11.55 14.21C11.58 14.24 11.63 14.29 11.69 14.34C11.82 14.43 11.99 14.51 12.19 14.51C12.39 14.51 12.56 14.43 12.69 14.34C12.75 14.29 12.8 14.25 12.83 14.21C12.85 14.19 12.86 14.18 12.86 14.17C12.99 13.99 13.24 13.95 13.42 14.09C13.6 14.22 13.63 14.47 13.5 14.65L13.18 14.41C13.3933 14.57 13.5 14.65 13.5 14.65C13.5 14.65 13.49 14.67 13.48 14.68C13.46 14.7 13.44 14.73 13.41 14.76C13.35 14.82 13.27 14.9 13.16 14.98Z" fill="black"/>
</g>
</svg>
