<svg width="25" height="25" viewBox="0 0 25 25" fill="none" xmlns="http://www.w3.org/2000/svg">
<path fill-rule="evenodd" clip-rule="evenodd" d="M18.45 7.65H17.56C17.03 4.97 14.67 2.94 11.84 2.94C9.00998 2.94 6.63998 4.96 6.11998 7.65H5.25998C4.42998 7.65 3.75998 8.32 3.75998 9.15V12.15C3.75998 12.98 4.42998 13.65 5.25998 13.65H7.00998C7.00998 13.65 7.00998 13.61 7.00998 13.59V8.78C7.00998 6.11 9.16998 3.95 11.84 3.95C14.51 3.95 16.67 6.11 16.67 8.78V13.59C16.67 15.5 15.56 17.14 13.95 17.92C13.64 17.45 13.1 17.15 12.5 17.15H12C11.03 17.15 10.25 17.93 10.25 18.9C10.25 19.87 11.03 20.65 12 20.65H12.5C13.47 20.65 14.25 19.87 14.25 18.9C14.25 18.9 14.25 18.89 14.25 18.88C16.24 17.97 17.64 15.98 17.66 13.65H18.45C19.28 13.65 19.95 12.98 19.95 12.15V9.15C19.95 8.32 19.28 7.65 18.45 7.65ZM5.74998 12.65H5.24998C4.96998 12.65 4.74998 12.43 4.74998 12.15V9.15C4.74998 8.87 4.96998 8.65 5.24998 8.65H5.74998V12.65ZM12.5 19.65H12C11.59 19.65 11.25 19.31 11.25 18.9C11.25 18.49 11.59 18.15 12 18.15H12.5C12.91 18.15 13.25 18.49 13.25 18.9C13.25 19.31 12.91 19.65 12.5 19.65ZM18.95 12.15C18.95 12.43 18.73 12.65 18.45 12.65H17.75V8.65H18.45C18.73 8.65 18.95 8.87 18.95 9.15V12.15Z" fill="black"/>
</svg>
