<svg width="25" height="25" viewBox="0 0 25 25" fill="none" xmlns="http://www.w3.org/2000/svg">
<path d="M20.75 6H10.07C9.24001 6 8.57001 6.67 8.57001 7.5V8.11H6.56001C6.09001 8.11 5.64001 8.33 5.36001 8.71L2.56001 12.45C2.37001 12.71 2.26001 13.03 2.26001 13.35V16.09C2.26001 16.78 2.72001 17.36 3.35001 17.53C3.35001 17.54 3.35001 17.55 3.35001 17.56C3.36001 17.62 3.38001 17.67 3.39001 17.72C3.42001 17.83 3.45001 17.93 3.49001 18.03C3.51001 18.09 3.54001 18.14 3.57001 18.2C3.61001 18.29 3.66001 18.38 3.71001 18.46C3.75001 18.52 3.78001 18.57 3.82001 18.62C3.88001 18.7 3.94001 18.77 4.00001 18.84C4.05001 18.89 4.09001 18.93 4.14001 18.98C4.21001 19.04 4.28001 19.1 4.36001 19.16C4.41001 19.2 4.46001 19.24 4.52001 19.27C4.60001 19.32 4.69001 19.37 4.78001 19.41C4.84001 19.44 4.89001 19.47 4.95001 19.49C5.05001 19.53 5.16001 19.56 5.26001 19.59C5.31001 19.6 5.36001 19.62 5.42001 19.63C5.58001 19.66 5.75001 19.68 5.92001 19.68C6.09001 19.68 6.26001 19.66 6.42001 19.63C6.47001 19.62 6.52001 19.6 6.58001 19.59C6.69001 19.56 6.79001 19.53 6.89001 19.49C6.95001 19.47 7.00001 19.44 7.06001 19.41C7.15001 19.37 7.24001 19.32 7.32001 19.27C7.37001 19.24 7.43001 19.2 7.48001 19.16C7.56001 19.1 7.63001 19.04 7.70001 18.98C7.75001 18.94 7.79001 18.89 7.84001 18.85C7.91001 18.78 7.97001 18.7 8.03001 18.62C8.07001 18.57 8.10001 18.52 8.14001 18.47C8.20001 18.38 8.25001 18.29 8.29001 18.19C8.31001 18.14 8.34001 18.09 8.36001 18.04C8.42001 17.9 8.46001 17.75 8.50001 17.6C8.50001 17.6 8.50001 17.58 8.50001 17.57H14.92V17.59C14.95 17.74 15 17.89 15.06 18.03C15.08 18.08 15.11 18.13 15.13 18.17C15.18 18.27 15.22 18.36 15.28 18.45C15.31 18.5 15.35 18.55 15.39 18.6C15.45 18.68 15.51 18.76 15.58 18.83C15.62 18.88 15.67 18.92 15.72 18.96C15.79 19.03 15.86 19.09 15.94 19.14C15.99 19.18 16.04 19.21 16.1 19.25C16.18 19.3 16.27 19.35 16.36 19.39C16.42 19.42 16.47 19.45 16.53 19.47C16.63 19.51 16.74 19.54 16.84 19.57C16.89 19.58 16.94 19.6 17 19.61C17.16 19.64 17.33 19.66 17.5 19.66C17.67 19.66 17.84 19.64 18 19.61C18.05 19.6 18.1 19.58 18.16 19.57C18.27 19.54 18.37 19.51 18.47 19.47C18.53 19.45 18.58 19.42 18.64 19.39C18.73 19.35 18.82 19.3 18.9 19.25C18.95 19.22 19.01 19.18 19.06 19.14C19.14 19.08 19.21 19.02 19.28 18.96C19.33 18.92 19.37 18.87 19.42 18.83C19.49 18.76 19.55 18.68 19.61 18.6C19.65 18.55 19.68 18.5 19.72 18.45C19.78 18.36 19.83 18.27 19.87 18.17C19.89 18.12 19.92 18.08 19.94 18.03C20 17.89 20.04 17.74 20.08 17.59V17.57H20.74C21.57 17.57 22.24 16.9 22.24 16.07V7.5C22.24 6.67 21.57 6 20.74 6H20.75ZM3.25001 13.34C3.25001 13.23 3.29001 13.13 3.35001 13.04L6.15001 9.3C6.24001 9.17 6.39001 9.1 6.55001 9.1H8.56001V16.57H8.51001C8.29001 15.34 7.22001 14.41 5.93001 14.41C4.64001 14.41 3.67001 15.26 3.38001 16.41C3.30001 16.32 3.24001 16.2 3.24001 16.07V13.33L3.25001 13.34ZM7.35001 17.85C7.35001 17.85 7.33001 17.9 7.31001 17.92C7.23001 18.05 7.12001 18.17 7.00001 18.28C6.98001 18.3 6.95001 18.32 6.93001 18.34C6.80001 18.44 6.67001 18.52 6.51001 18.58C6.49001 18.58 6.46001 18.59 6.44001 18.6C6.28001 18.65 6.11001 18.69 5.92001 18.69C5.73001 18.69 5.56001 18.65 5.39001 18.6C5.37001 18.6 5.35001 18.59 5.33001 18.58C5.18001 18.52 5.04001 18.43 4.91001 18.33C4.89001 18.31 4.86001 18.29 4.84001 18.28C4.72001 18.17 4.62001 18.05 4.53001 17.91C4.52001 17.89 4.50001 17.86 4.49001 17.84C4.41001 17.69 4.35001 17.54 4.32001 17.37C4.30001 17.27 4.29001 17.17 4.29001 17.06C4.29001 16.16 5.02001 15.43 5.92001 15.43C6.82001 15.43 7.55001 16.16 7.55001 17.06C7.55001 17.17 7.54001 17.28 7.52001 17.39C7.49001 17.56 7.42001 17.72 7.34001 17.86L7.35001 17.85ZM19.11 17.38C19.08 17.55 19.01 17.71 18.93 17.85C18.92 17.87 18.91 17.9 18.89 17.92C18.81 18.05 18.7 18.17 18.58 18.28C18.56 18.3 18.54 18.32 18.51 18.34C18.38 18.44 18.25 18.52 18.09 18.58C18.07 18.58 18.04 18.59 18.02 18.6C17.86 18.65 17.69 18.69 17.5 18.69C17.31 18.69 17.15 18.65 16.98 18.6C16.96 18.6 16.93 18.59 16.91 18.58C16.76 18.52 16.62 18.44 16.49 18.34C16.47 18.32 16.44 18.3 16.42 18.28C16.3 18.18 16.2 18.06 16.11 17.92C16.1 17.9 16.09 17.87 16.07 17.85C15.99 17.7 15.92 17.55 15.89 17.38C15.87 17.27 15.86 17.16 15.86 17.05C15.86 16.15 16.59 15.42 17.49 15.42C18.39 15.42 19.12 16.15 19.12 17.05C19.12 17.16 19.11 17.27 19.09 17.38H19.11ZM21.25 16.08C21.25 16.36 21.03 16.58 20.75 16.58H20.1C19.88 15.35 18.81 14.42 17.52 14.42C16.23 14.42 15.16 15.35 14.94 16.58H9.58001V7.5C9.58001 7.22 9.80001 7 10.08 7H20.76C21.04 7 21.26 7.22 21.26 7.5V16.08H21.25Z" fill="black"/>
</svg>
