<svg width="25" height="25" viewBox="0 0 25 25" fill="none" xmlns="http://www.w3.org/2000/svg">
<path fill-rule="evenodd" clip-rule="evenodd" d="M5.902 5.04299C5.463 5.11799 4.911 5.51898 4.713 5.90798C4.488 6.34898 4.498 5.99998 4.51 12.835L4.521 19.146L4.615 19.38C4.796 19.826 5.174 20.204 5.62 20.385L5.854 20.479H18.646L18.88 20.385C19.3344 20.1956 19.6956 19.8344 19.885 19.38L19.979 19.146V6.35398L19.884 6.11798C19.704 5.67298 19.302 5.28398 18.824 5.09198C18.659 5.02598 18.194 5.01998 12.375 5.01498C8.926 5.01198 6.013 5.02399 5.902 5.04299ZM18.531 6.06398C18.738 6.14998 18.831 6.23899 18.922 6.43799C18.994 6.59599 18.998 6.81298 18.998 10.667L18.999 14.729L18.218 13.934C17.521 13.225 17.404 13.123 17.125 12.986C16.6639 12.7486 16.132 12.6874 15.629 12.814C15.209 12.913 14.977 13.065 14.429 13.598L13.92 14.094L12.637 12.839C11.932 12.148 11.28 11.533 11.19 11.472C10.557 11.044 9.529 11.039 8.876 11.461C8.734 11.553 7.982 12.263 7.067 13.169L5.5 14.719V10.671C5.5 7.12198 5.508 6.60298 5.564 6.46898C5.59357 6.38022 5.64245 6.29912 5.70712 6.23151C5.77179 6.1639 5.85064 6.11147 5.938 6.07798C6.097 6.00498 6.375 6.00198 12.241 6.00098C17.671 5.99998 18.395 6.00699 18.531 6.06398ZM14.509 8.18898C13.71 8.59298 13.815 9.76398 14.674 10.019C14.942 10.099 14.975 10.099 15.245 10.018C15.3902 9.97394 15.5235 9.89722 15.6344 9.79371C15.7454 9.6902 15.8313 9.56265 15.8853 9.42085C15.9394 9.27904 15.9602 9.12672 15.9463 8.97559C15.9324 8.82447 15.8841 8.67853 15.805 8.54898C15.6715 8.33961 15.4653 8.187 15.226 8.12054C14.9868 8.05408 14.7314 8.07846 14.509 8.18898ZM10.542 12.262C10.678 12.326 11.272 12.889 12.729 14.336C13.829 15.428 14.77 16.343 14.82 16.369C15.13 16.531 15.542 16.284 15.542 15.938C15.542 15.762 15.446 15.627 15.024 15.209L14.625 14.814L15.052 14.383C15.594 13.836 15.709 13.772 16.146 13.772C16.415 13.772 16.515 13.791 16.667 13.871C16.788 13.934 17.234 14.354 17.925 15.057L18.997 16.146L18.998 17.512C19 18.65 18.989 18.903 18.936 19.031C18.9065 19.1196 18.8577 19.2006 18.7932 19.2682C18.7288 19.3358 18.6501 19.3883 18.563 19.422C18.403 19.495 18.125 19.498 12.259 19.499C6.829 19.5 6.105 19.493 5.969 19.436C5.88037 19.4065 5.79937 19.3577 5.73177 19.2932C5.66418 19.2287 5.61167 19.1501 5.578 19.063C5.509 18.912 5.502 18.766 5.501 17.519L5.5 16.143L7.385 14.266C8.422 13.234 9.34 12.348 9.424 12.297C9.735 12.111 10.19 12.096 10.542 12.262Z" fill="black"/>
</svg>
