<svg width="25" height="25" viewBox="0 0 25 25" fill="none" xmlns="http://www.w3.org/2000/svg">
<path fill-rule="evenodd" clip-rule="evenodd" d="M12.25 4.65479C8.10786 4.65479 4.75 8.01265 4.75 12.1548C4.75 16.2969 8.10786 19.6548 12.25 19.6548C16.3921 19.6548 19.75 16.2969 19.75 12.1548C19.75 8.01265 16.3921 4.65479 12.25 4.65479ZM3.75 12.1548C3.75 7.46036 7.55558 3.65479 12.25 3.65479C16.9444 3.65479 20.75 7.46036 20.75 12.1548C20.75 16.8492 16.9444 20.6548 12.25 20.6548C7.55558 20.6548 3.75 16.8492 3.75 12.1548Z" fill="black"/>
<path d="M10 13.6548C10.4142 13.6548 10.75 13.319 10.75 12.9048C10.75 12.4906 10.4142 12.1548 10 12.1548C9.58579 12.1548 9.25 12.4906 9.25 12.9048C9.25 13.319 9.58579 13.6548 10 13.6548Z" fill="black"/>
<path d="M12.2516 17.6548C10.8322 17.6548 9.63845 16.732 9.26063 15.4726C9.25007 15.4351 9.2484 15.3957 9.25577 15.3575C9.26314 15.3192 9.27933 15.2833 9.30307 15.2524C9.3268 15.2215 9.35742 15.1966 9.39248 15.1797C9.42754 15.1627 9.46608 15.1542 9.50501 15.1548H14.9953C15.0342 15.1542 15.0728 15.1627 15.1078 15.1797C15.1429 15.1966 15.1735 15.2215 15.1973 15.2524C15.221 15.2833 15.2372 15.3192 15.2446 15.3575C15.2519 15.3957 15.2503 15.4351 15.2397 15.4726C14.865 16.732 13.6709 17.6548 12.2516 17.6548Z" fill="black"/>
<path d="M14.5 13.6548C14.9142 13.6548 15.25 13.319 15.25 12.9048C15.25 12.4906 14.9142 12.1548 14.5 12.1548C14.0858 12.1548 13.75 12.4906 13.75 12.9048C13.75 13.319 14.0858 13.6548 14.5 13.6548Z" fill="black"/>
<mask id="mask0_420_414" style="mask-type:alpha" maskUnits="userSpaceOnUse" x="4" y="4" width="17" height="17">
<path d="M20.25 12.1548C20.25 16.5731 16.6683 20.1548 12.25 20.1548C7.83172 20.1548 4.25 16.5731 4.25 12.1548C4.25 7.73651 7.83172 4.15479 12.25 4.15479C16.6683 4.15479 20.25 7.73651 20.25 12.1548Z" fill="black"/>
</mask>
<g mask="url(#mask0_420_414)">
<path fill-rule="evenodd" clip-rule="evenodd" d="M8.5371 7.73762C8.69039 7.63634 8.88688 7.62728 9.04883 7.71404L12.6718 9.65479H20.25C20.5261 9.65479 20.75 9.87864 20.75 10.1548C20.75 10.4309 20.5261 10.6548 20.25 10.6548H12.5463C12.4639 10.6548 12.3828 10.6344 12.3102 10.5955L9.39285 9.03277L9.48877 10.1105C9.50121 10.2502 9.45435 10.3888 9.35963 10.4923C9.26491 10.5958 9.13106 10.6548 8.99074 10.6548H4.25C3.97386 10.6548 3.75 10.4309 3.75 10.1548C3.75 9.87864 3.97386 9.65479 4.25 9.65479H8.44426L8.3147 8.19911C8.29841 8.01611 8.38381 7.83891 8.5371 7.73762Z" fill="black"/>
</g>
</svg>
