<svg width="24" height="24" viewBox="0 0 24 24" fill="none" xmlns="http://www.w3.org/2000/svg">
<path d="M20 10.33V7.33C20 6.96 19.7 6.66 19.33 6.66H4.67C4.3 6.66 4 6.96 4 7.33V16.66C4 17.03 4.3 17.33 4.67 17.33H19.34C19.71 17.33 20.01 17.03 20.01 16.66V13.66C19.09 13.66 18.34 12.91 18.34 11.99C18.34 11.07 19.09 10.32 20.01 10.32L20 10.33ZM19 14.47V16.33H9.99C9.99 16.33 9.99 16.31 9.99 16.3C9.99 15.75 9.54 15.3 8.99 15.3C8.44 15.3 7.99 15.75 7.99 16.3C7.99 16.31 7.99 16.32 7.99 16.33H4.98V7.67H7.99C7.99 7.67 7.99 7.69 7.99 7.7C7.99 8.25 8.44 8.7 8.99 8.7C9.54 8.7 9.99 8.25 9.99 7.7C9.99 7.69 9.99 7.68 9.99 7.67H19V9.53C18.02 9.93 17.33 10.89 17.33 12C17.33 13.11 18.02 14.08 19 14.47Z" fill="black"/>
<path d="M9 11.57C9.55228 11.57 10 11.1223 10 10.57C10 10.0177 9.55228 9.57 9 9.57C8.44772 9.57 8 10.0177 8 10.57C8 11.1223 8.44772 11.57 9 11.57Z" fill="black"/>
<path d="M9 14.39C9.55228 14.39 10 13.9423 10 13.39C10 12.8377 9.55228 12.39 9 12.39C8.44772 12.39 8 12.8377 8 13.39C8 13.9423 8.44772 14.39 9 14.39Z" fill="black"/>
</svg>
