<svg width="25" height="24" viewBox="0 0 25 24" fill="none" xmlns="http://www.w3.org/2000/svg">
<path fill-rule="evenodd" clip-rule="evenodd" d="M17.479 4.93399C16.557 5.24399 14.987 6.08399 13.668 6.97399C12.294 7.89999 11.262 8.73499 10.289 9.70699C9.707 10.288 8.508 11.676 8.172 12.156C8.113 12.241 8.043 12.292 7.984 12.292C7.848 12.292 7.346 12.433 7.107 12.538C6.309 12.889 5.632 13.645 5.381 14.466C5.266 14.844 5.071 16.511 5.092 16.939C5.115 17.384 5.28 17.748 5.603 18.064C6.193 18.639 6.534 18.711 7.958 18.559C9.331 18.413 9.741 18.303 10.293 17.936C10.624 17.717 11.086 17.235 11.284 16.905C11.452 16.625 11.621 16.153 11.654 15.871C11.674 15.7 11.699 15.652 11.789 15.605C11.957 15.518 13.552 14.285 14.002 13.894C15.94 12.208 18.271 9.08999 19.171 6.97899C19.317 6.63499 19.349 6.51499 19.35 6.29199C19.357 6.12142 19.3296 5.95119 19.2695 5.79143C19.2094 5.63166 19.1177 5.48562 19 5.36199C18.8742 5.21402 18.7177 5.09517 18.5414 5.01367C18.3651 4.93217 18.1732 4.88997 17.979 4.88999C17.779 4.88299 17.579 4.90099 17.479 4.93399ZM18.204 5.98999C18.403 6.17699 18.398 6.26399 18.153 6.79399C17.562 8.07299 16.512 9.65599 15.275 11.133C14.799 11.702 14.177 12.375 14.127 12.375C14.11 12.375 14.073 12.295 14.044 12.198C13.764 11.264 12.729 10.268 11.739 9.97999L11.503 9.91199L11.7 9.73699C13.312 8.30599 15.541 6.84999 17.271 6.09699C17.859 5.84099 18.025 5.82199 18.204 5.98999ZM11.374 10.915C11.965 11.079 12.616 11.589 12.934 12.137C13.065 12.364 13.192 12.755 13.222 13.029L13.245 13.245L12.433 13.877C11.986 14.224 11.615 14.502 11.61 14.494C11.5653 14.3962 11.5226 14.2975 11.482 14.198C11.168 13.442 10.421 12.728 9.636 12.432C9.53597 12.3967 9.43754 12.357 9.341 12.313C9.333 12.305 9.607 11.964 9.95 11.554L10.573 10.809L10.88 10.836C11.049 10.851 11.271 10.886 11.374 10.915ZM9.022 13.313C9.739 13.496 10.36 14.046 10.577 14.691C10.842 15.478 10.663 16.223 10.066 16.813C9.562 17.312 9.275 17.41 7.882 17.56C6.847 17.672 6.682 17.659 6.402 17.445C6.229 17.313 6.083 17.029 6.083 16.823C6.083 16.573 6.289 14.907 6.34 14.75C6.679 13.692 7.914 13.031 9.022 13.313Z" fill="black"/>
</svg>
