<svg width="25" height="25" viewBox="0 0 25 25" fill="none" xmlns="http://www.w3.org/2000/svg">
<path fill-rule="evenodd" clip-rule="evenodd" d="M11.4086 4.53953C11.8022 3.92676 12.6978 3.92677 13.0914 4.53953L15.6336 8.49757L20.1836 9.6923C20.888 9.87726 21.1647 10.729 20.7036 11.2927L17.7249 14.9337L17.9946 19.6301C18.0364 20.3572 17.3118 20.8836 16.6332 20.6192L12.25 18.9114L7.86679 20.6192C7.1882 20.8836 6.46363 20.3572 6.50539 19.6301L6.77514 14.9337L3.79642 11.2927C3.33527 10.729 3.61203 9.87726 4.31643 9.6923L8.86635 8.49757L11.4086 4.53953ZM12.25 5.07996L9.70774 9.03799C9.57232 9.24883 9.36268 9.40114 9.12032 9.46478L4.5704 10.6595L7.54912 14.3004C7.70778 14.4944 7.78786 14.7408 7.77349 14.991L7.50375 19.6874L11.887 17.9796C12.1204 17.8886 12.3796 17.8886 12.613 17.9796L16.9963 19.6874L16.7265 14.991C16.7121 14.7408 16.7922 14.4944 16.9509 14.3004L19.9296 10.6595L15.3797 9.46478C15.1373 9.40114 14.9277 9.24883 14.7923 9.03799L12.25 5.07996Z" fill="black"/>
</svg>
