<svg width="25" height="25" viewBox="0 0 25 25" fill="none" xmlns="http://www.w3.org/2000/svg">
<path fill-rule="evenodd" clip-rule="evenodd" d="M11.292 4.96197C9.00701 5.25597 6.97201 6.58697 5.73301 8.59597C4.63501 10.378 4.35701 12.75 5.00701 14.787C5.37892 15.9479 6.02266 17.0033 6.88467 17.8653C7.74668 18.7273 8.80206 19.3711 9.96301 19.743C11.4519 20.21 13.0481 20.21 14.537 19.743C15.698 19.3711 16.7533 18.7273 17.6154 17.8653C18.4774 17.0033 19.1211 15.9479 19.493 14.787C19.96 13.2981 19.96 11.7019 19.493 10.213C19.0495 8.82543 18.2184 7.59369 17.0977 6.66311C15.9769 5.73252 14.6134 5.14191 13.168 4.96097C12.761 4.90997 11.689 4.91097 11.292 4.96197ZM13.208 5.97897C14.305 6.14397 15.308 6.56297 16.208 7.23097C16.7156 7.63218 17.1729 8.09318 17.57 8.60397C18.1448 9.39628 18.5375 10.3057 18.72 11.2674C18.9025 12.2291 18.8705 13.2192 18.626 14.167C18.3546 15.1956 17.8394 16.1437 17.124 16.931C16.4086 17.7183 15.514 18.3216 14.516 18.69C13.715 18.98 13.126 19.082 12.25 19.082C11.367 19.082 10.786 18.981 9.96701 18.684C8.42801 18.127 7.09801 16.932 6.33501 15.42C5.44701 13.662 5.44701 11.338 6.33501 9.57997C6.80837 8.63079 7.50213 7.80875 8.35826 7.18261C9.2144 6.55647 10.208 6.14443 11.256 5.98097C11.742 5.90497 12.708 5.90397 13.208 5.97897ZM15.291 9.51897C15.233 9.54997 14.371 10.636 13.374 11.932C12.378 13.227 11.55 14.289 11.535 14.29C11.52 14.291 11.017 13.846 10.416 13.302C9.81601 12.758 9.26701 12.28 9.19501 12.24C9.10687 12.1883 9.00473 12.1656 8.90298 12.175C8.80124 12.1845 8.70504 12.2256 8.62793 12.2927C8.55083 12.3597 8.49672 12.4493 8.47323 12.5488C8.44974 12.6482 8.45806 12.7525 8.49701 12.847C8.53301 12.94 10.935 15.155 11.303 15.434C11.438 15.537 11.486 15.549 11.655 15.53C11.802 15.514 11.878 15.478 11.957 15.39C12.226 15.089 15.963 10.201 16.001 10.102C16.151 9.70597 15.671 9.31197 15.291 9.51897Z" fill="black"/>
</svg>
