<svg width="25" height="24" viewBox="0 0 25 24" fill="none" xmlns="http://www.w3.org/2000/svg">
<path fill-rule="evenodd" clip-rule="evenodd" d="M7.28099 4.19801C7.03799 4.34901 7.04199 4.30301 7.04199 7.03401V9.53401L6.38499 9.54901C5.81099 9.56201 5.70299 9.57501 5.52399 9.65801C5.06299 9.86901 4.75699 10.233 4.55399 10.813L4.43799 11.146L4.42499 13.314L4.41299 15.482L4.50999 15.626C4.66099 15.852 4.76999 15.87 5.96899 15.873L7.04199 15.875V17.448C7.04199 19.211 7.04599 19.242 7.33299 19.385C7.46999 19.453 7.79699 19.458 12.366 19.458C17.607 19.458 17.413 19.466 17.604 19.251C17.684 19.162 17.688 19.09 17.699 17.519L17.711 15.88L18.853 15.867C19.936 15.855 20 15.85 20.112 15.767C20.34 15.597 20.335 15.654 20.322 13.271C20.311 11.32 20.301 11.033 20.237 10.813C20.066 10.224 19.776 9.83601 19.363 9.64401C19.16 9.54901 19.1 9.54201 18.427 9.54201H17.708V7.01901C17.708 4.84501 17.7 4.47901 17.645 4.37401C17.509 4.11001 17.826 4.12501 12.367 4.12601C7.75999 4.12701 7.38699 4.13201 7.28099 4.19801ZM16.708 7.31301V9.50001H8.04199V5.12501H16.708V7.31301ZM19.003 10.585C19.115 10.645 19.234 10.896 19.288 11.186C19.316 11.338 19.333 12.088 19.333 13.153V14.875H17.708V13.992L17.567 13.85L17.425 13.708H12.388C7.89199 13.708 7.34199 13.715 7.25899 13.773C7.09099 13.891 7.04199 14.051 7.04199 14.477V14.875H5.41699V13.219C5.41799 11.444 5.44499 11.146 5.62999 10.847C5.68771 10.7579 5.76248 10.6811 5.84999 10.621C5.97499 10.544 6.17399 10.542 12.451 10.542C16.825 10.542 18.948 10.556 19.003 10.585ZM16.708 16.583V18.458H8.04199V14.708H16.708V16.583Z" fill="black"/>
</svg>
