<svg width="25" height="25" viewBox="0 0 25 25" fill="none" xmlns="http://www.w3.org/2000/svg">
<path fill-rule="evenodd" clip-rule="evenodd" d="M8.42999 7.89478C8.25324 7.89478 8.10999 8.03804 8.10999 8.21478V16.0848C8.10999 16.2615 8.25324 16.4048 8.42999 16.4048H16.3C16.4767 16.4048 16.62 16.2615 16.62 16.0848V8.21478C16.62 8.03805 16.4767 7.89478 16.3 7.89478H8.42999ZM7.10999 8.21478C7.10999 7.48576 7.70097 6.89478 8.42999 6.89478H16.3C17.029 6.89478 17.62 7.48576 17.62 8.21478V16.0848C17.62 16.8138 17.029 17.4048 16.3 17.4048H8.42999C7.70097 17.4048 7.10999 16.8138 7.10999 16.0848V8.21478Z" fill="#231F20"/>
</svg>
