<svg width="25" height="24" viewBox="0 0 25 24" fill="none" xmlns="http://www.w3.org/2000/svg">
<path d="M19.25 5.75V8.9C18.06 9.31 17.25 10.4 17.25 11.65C17.25 12.9 18.06 13.99 19.25 14.4V17.55H5.25V14.4C6.44 13.99 7.25 12.9 7.25 11.65C7.25 10.4 6.44 9.31 5.25 8.9V5.75H19.25ZM19.45 4.75H5.05C4.61 4.75 4.25 5.09 4.25 5.52V9.24C4.25 9.52 4.48 9.73 4.75 9.8C5.61 10.01 6.25 10.76 6.25 11.66C6.25 12.56 5.61 13.31 4.75 13.52C4.48 13.59 4.25 13.8 4.25 14.08V17.8C4.25 18.22 4.61 18.57 5.05 18.57H19.45C19.89 18.57 20.25 18.23 20.25 17.8V14.08C20.25 13.8 20.02 13.59 19.75 13.52C18.89 13.31 18.25 12.56 18.25 11.66C18.25 10.76 18.89 10.01 19.75 9.8C20.02 9.73 20.25 9.52 20.25 9.24V5.52C20.25 5.1 19.89 4.75 19.45 4.75Z" fill="black"/>
<path d="M15.1 5.25H14.1V18.2H15.1V5.25Z" fill="black"/>
</svg>
