<svg width="25" height="25" viewBox="0 0 25 25" fill="none" xmlns="http://www.w3.org/2000/svg">
<path fill-rule="evenodd" clip-rule="evenodd" d="M11.847 3.82501C11.729 3.86701 11.562 3.95501 11.477 4.02001C11.143 4.27401 10.232 5.86401 9.983 6.62501C9.803 7.17701 9.736 7.60101 9.762 8.04001C9.819 9.01101 10.215 9.58201 11.534 10.604C12.528 11.373 12.732 11.658 12.726 12.272C12.724 12.543 12.702 12.652 12.609 12.855C12.5027 13.0981 12.3331 13.3082 12.1178 13.4632C11.9025 13.6183 11.6494 13.7126 11.3852 13.7363C11.1209 13.76 10.8552 13.7123 10.6157 13.598C10.3762 13.4838 10.1719 13.3073 10.024 13.087C9.793 12.754 9.777 12.656 9.752 11.393L9.729 10.223L9.603 9.97701C9.31 9.40401 8.548 9.14201 7.975 9.41801C7.442 9.67401 6.648 10.788 6.208 11.897C4.86 15.291 6.629 19.142 10.104 20.378C10.565 20.542 10.899 20.621 11.413 20.69C14.441 21.093 17.372 19.28 18.383 16.378C18.956 14.733 18.845 12.81 18.084 11.221C17.623 10.256 17.124 9.60301 16.086 8.60501C13.831 6.43701 13.617 6.14101 13.505 5.03601C13.462 4.60401 13.382 4.39801 13.164 4.14901C12.871 3.81501 12.28 3.67001 11.847 3.82501ZM12.417 4.83301C12.475 4.89101 12.5 4.97201 12.5 5.10101C12.5 5.38501 12.605 5.86801 12.746 6.23201C13.022 6.94601 13.468 7.48901 14.845 8.79101C15.354 9.27301 15.91 9.82501 16.079 10.018C16.942 11 17.388 11.86 17.628 13C17.748 13.567 17.761 14.657 17.656 15.23C17.176 17.833 14.884 19.75 12.25 19.75C11.7795 19.7398 11.3115 19.6791 10.854 19.569C9.96411 19.3296 9.14788 18.8722 8.47903 18.2383C7.81018 17.6044 7.30977 16.8138 7.023 15.938C6.672 14.873 6.69 13.505 7.068 12.449C7.23 11.995 7.606 11.283 7.873 10.923C8.337 10.299 8.487 10.195 8.667 10.375C8.746 10.454 8.75 10.514 8.75 11.493C8.75 12.388 8.761 12.572 8.832 12.85C8.952 13.317 9.139 13.639 9.503 14.006C9.86505 14.3805 10.3371 14.6298 10.8506 14.7175C11.364 14.8053 11.8921 14.727 12.358 14.494C12.758 14.301 13.301 13.758 13.494 13.358C13.982 12.343 13.749 11.204 12.892 10.42C12.76 10.3 12.416 10.021 12.128 9.80001C11.444 9.27701 11.05 8.88201 10.895 8.56301C10.783 8.33201 10.774 8.27601 10.774 7.85401C10.775 7.45101 10.791 7.34801 10.909 6.99501C11.063 6.53001 11.377 5.90101 11.748 5.31001C12.11 4.73401 12.231 4.64801 12.417 4.83301Z" fill="black"/>
</svg>
