<svg width="25" height="25" viewBox="0 0 25 25" fill="none" xmlns="http://www.w3.org/2000/svg">
<path fill-rule="evenodd" clip-rule="evenodd" d="M11.896 6.74603C11.804 6.78803 11.671 6.88603 11.599 6.96403C11.528 7.04103 9.851 9.51403 7.872 12.458C5.257 16.35 4.261 17.865 4.225 18.004C4.114 18.429 4.311 18.885 4.704 19.117L4.896 19.229L12.213 19.24L19.53 19.251L19.754 19.134C19.8919 19.0653 20.0122 18.966 20.1058 18.8436C20.1994 18.7213 20.2638 18.5791 20.294 18.428C20.339 18.214 20.336 18.162 20.263 17.958C20.178 17.718 13.275 7.23103 13.026 6.96403C12.841 6.76403 12.61 6.66803 12.313 6.66803C12.157 6.66803 12 6.69803 11.896 6.74603ZM15.831 12.973C17.737 15.858 19.289 18.225 19.28 18.234C19.271 18.243 16.1 18.246 12.234 18.24L5.204 18.229L8.755 12.947C10.708 10.042 12.32 7.67903 12.337 7.69703C12.353 7.71503 13.926 10.089 15.831 12.973ZM11.938 11.078C11.8506 11.1115 11.7718 11.1639 11.7071 11.2316C11.6424 11.2992 11.5936 11.3803 11.564 11.469C11.511 11.597 11.5 11.856 11.5 13.011C11.5 14.368 11.502 14.403 11.594 14.585C11.654 14.7079 11.7473 14.8115 11.8633 14.8839C11.9793 14.9564 12.1133 14.9948 12.25 14.9948C12.3867 14.9948 12.5207 14.9564 12.6367 14.8839C12.7527 14.8115 12.846 14.7079 12.906 14.585C12.998 14.403 13 14.369 12.999 13.002C12.998 11.735 12.991 11.589 12.922 11.438C12.8885 11.3507 12.8361 11.2718 12.7685 11.2071C12.7009 11.1425 12.6198 11.0936 12.531 11.064C12.4373 11.0223 12.3355 11.002 12.2329 11.0044C12.1304 11.0068 12.0296 11.032 11.938 11.078ZM11.92 15.49C11.841 15.53 11.72 15.634 11.65 15.722C11.539 15.861 11.522 15.914 11.522 16.141C11.521 16.351 11.541 16.431 11.624 16.553C11.693 16.6557 11.7861 16.7399 11.8953 16.7981C12.0045 16.8563 12.1263 16.8867 12.25 16.8867C12.3737 16.8867 12.4955 16.8563 12.6047 16.7981C12.7139 16.7399 12.807 16.6557 12.876 16.553C12.959 16.431 12.979 16.351 12.978 16.141C12.978 15.914 12.961 15.861 12.85 15.722C12.7811 15.6275 12.6908 15.5506 12.5866 15.4976C12.4823 15.4446 12.367 15.417 12.25 15.417C12.1363 15.4194 12.0241 15.4442 11.92 15.49Z" fill="black"/>
</svg>
