<svg width="25" height="25" viewBox="0 0 25 25" fill="none" xmlns="http://www.w3.org/2000/svg">
<path fill-rule="evenodd" clip-rule="evenodd" d="M12.5 3.78801C12.18 3.88701 11.914 4.12901 11.814 4.41201C11.761 4.56201 11.75 4.84201 11.75 6.02501V7.45601L8.135 7.46801C4.75602 7.47801 4.51 7.48401 4.354 7.55401C4.12742 7.65379 3.947 7.83564 3.849 8.06301L3.751 8.27101L3.75 14.589C3.75 21.646 3.727 21.116 4.051 21.446C4.373 21.775 3.69401 21.75 12.25 21.75C20.806 21.75 20.127 21.775 20.449 21.446C20.776 21.114 20.75 21.857 20.75 12.75C20.75 3.74301 20.769 4.38401 20.488 4.09001C20.398 4.00135 20.2972 3.9244 20.188 3.86101L20.021 3.77101L16.313 3.76401C14.273 3.76001 12.557 3.77101 12.5 3.78801ZM19.75 12.75V20.75H4.75V8.45801L8.365 8.45701C12.395 8.45601 12.144 8.47401 12.45 8.16901C12.735 7.88401 12.728 7.92801 12.742 6.26001L12.754 4.75001H19.75V12.75ZM9.063 10.788C8.99279 10.8269 8.92931 10.8769 8.875 10.936C8.777 11.042 8.771 11.076 8.771 11.503V11.957L8.907 12.093L9.043 12.229H10.457L10.593 12.093L10.729 11.957V11.043L10.593 10.907L10.457 10.771L9.801 10.762C9.441 10.757 9.108 10.769 9.063 10.788ZM14.063 10.788C13.9928 10.8269 13.9293 10.8769 13.875 10.936C13.777 11.042 13.771 11.076 13.771 11.503V11.957L13.907 12.093L14.043 12.229H15.457L15.593 12.093L15.729 11.957V11.043L15.593 10.907L15.457 10.771L14.801 10.762C14.441 10.757 14.108 10.769 14.063 10.788ZM9.063 13.788C8.99279 13.8269 8.92931 13.8769 8.875 13.936C8.777 14.042 8.771 14.076 8.771 14.503V14.957L8.907 15.093L9.043 15.229H10.457L10.593 15.093L10.729 14.957V14.043L10.593 13.907L10.457 13.771L9.801 13.762C9.441 13.757 9.108 13.769 9.063 13.788ZM14.063 13.788C13.9928 13.8269 13.9293 13.8769 13.875 13.936C13.777 14.042 13.771 14.076 13.771 14.503V14.957L13.907 15.093L14.043 15.229H15.457L15.593 15.093L15.729 14.957V14.043L15.593 13.907L15.457 13.771L14.801 13.762C14.441 13.757 14.108 13.769 14.063 13.788ZM9.063 16.788C8.99279 16.8269 8.92931 16.8769 8.875 16.936C8.777 17.042 8.771 17.076 8.771 17.503V17.957L8.907 18.093L9.043 18.229H10.457L10.593 18.093L10.729 17.957V17.043L10.593 16.907L10.457 16.771L9.801 16.762C9.441 16.757 9.108 16.769 9.063 16.788ZM14.063 16.788C13.9928 16.8269 13.9293 16.8769 13.875 16.936C13.777 17.042 13.771 17.076 13.771 17.503V17.957L13.907 18.093L14.043 18.229H15.457L15.593 18.093L15.729 17.957V17.043L15.593 16.907L15.457 16.771L14.801 16.762C14.441 16.757 14.108 16.769 14.063 16.788Z" fill="black"/>
</svg>
