<svg width="25" height="25" viewBox="0 0 25 25" fill="none" xmlns="http://www.w3.org/2000/svg">
<path fill-rule="evenodd" clip-rule="evenodd" d="M6.447 4.66998C6.108 4.74998 5.719 5.02598 5.543 5.31098C5.496 5.38598 5.186 6.16197 4.854 7.03597L4.25 8.62498V13.975C4.25 19.216 4.252 19.33 4.334 19.596C4.45004 19.9239 4.6698 20.2051 4.96 20.397C5.34 20.637 4.957 20.625 12.25 20.625C19.432 20.625 19.162 20.632 19.497 20.426C19.665 20.323 19.916 20.077 20.022 19.913C20.259 19.542 20.25 19.789 20.25 13.973V8.62798L19.665 7.05298C19.027 5.33698 18.926 5.13898 18.569 4.90198C18.125 4.60698 18.525 4.62498 12.253 4.62898C9.129 4.63198 6.534 4.64998 6.447 4.66998ZM10.417 5.65598C10.417 5.67298 10.313 6.37898 10.187 7.22498C10.061 8.06998 9.958 8.76798 9.958 8.77698C9.958 8.78498 8.908 8.79198 7.625 8.79198C6.016 8.79198 5.292 8.77798 5.292 8.74798C5.292 8.69898 6.319 5.98098 6.382 5.86198C6.42844 5.79874 6.48731 5.74565 6.555 5.70598C6.681 5.62898 6.779 5.62498 8.552 5.62498C9.578 5.62498 10.417 5.63898 10.417 5.65598ZM17.942 5.69298C18.0063 5.71976 18.065 5.75843 18.115 5.80698C18.131 5.83298 18.39 6.50998 18.69 7.31298L19.236 8.77098L16.903 8.78197C15.62 8.78797 14.565 8.78797 14.559 8.78197C14.545 8.76697 14.125 5.78097 14.125 5.69397C14.125 5.63098 14.285 5.62498 15.962 5.62498C17.571 5.62498 17.818 5.63298 17.942 5.69298ZM13.344 7.42698C13.448 8.16598 13.529 8.77597 13.523 8.78197C13.517 8.78797 12.941 8.78797 12.243 8.78197L10.974 8.77098L11.174 7.43798L11.374 6.09398C11.375 6.08798 11.775 6.08298 12.264 6.08298H13.153L13.344 7.42698ZM9.789 9.92698C9.784 10.002 9.782 10.677 9.786 11.427L9.792 12.792H14.75V9.79198H19.251L19.24 14.562L19.229 19.332L19.093 19.468L18.957 19.604H5.543L5.407 19.468L5.271 19.332L5.26 14.562L5.249 9.79198H9.798L9.789 9.92698ZM13.75 10.938V11.792H10.792V10.083H13.75V10.938Z" fill="black"/>
</svg>
