<svg width="25" height="25" viewBox="0 0 25 25" fill="none" xmlns="http://www.w3.org/2000/svg">
<path fill-rule="evenodd" clip-rule="evenodd" d="M16.25 8.15002C16.25 10.36 14.46 12.15 12.25 12.15C10.04 12.15 8.25 10.36 8.25 8.15002C8.25 5.94002 10.04 4.15002 12.25 4.15002C14.46 4.15002 16.25 5.94002 16.25 8.15002ZM15.25 8.15002C15.25 6.49002 13.91 5.15002 12.25 5.15002C10.59 5.15002 9.25 6.49002 9.25 8.15002C9.25 9.81002 10.59 11.15 12.25 11.15C13.91 11.15 15.25 9.81002 15.25 8.15002ZM19.46 12.48L20.67 12.66H20.66C21.28 12.75 21.53 13.51 21.08 13.94L20.2 14.79L20.41 16C20.51 16.61 19.87 17.08 19.32 16.79L19.14 16.69C19.26 16.89 19.37 17.09 19.46 17.3C19.57 17.55 19.44 17.84 19.19 17.95C18.94 18.06 18.65 17.93 18.54 17.68C18.37 17.27 18.09 16.87 17.7 16.5L17.16 16.79C16.61 17.08 15.96 16.61 16.07 16L16.16 15.48C15.03 14.95 13.71 14.65 12.24 14.65C10.77 14.65 9.35 14.97 8.2 15.53C7.05 16.1 6.28 16.87 5.94 17.68C5.84 17.94 5.54 18.06 5.29 17.95C5.03 17.85 4.91 17.55 5.02 17.3C5.48 16.2 6.46 15.28 7.76 14.64C9.06 14 10.63 13.66 12.24 13.66C13.43 13.66 14.61 13.85 15.67 14.21L15.4 13.94C14.96 13.51 15.2 12.75 15.82 12.66L17.03 12.48L17.57 11.38C17.85 10.82 18.64 10.82 18.92 11.38L19.46 12.48ZM19.2 14.83C19.16 14.59 19.24 14.34 19.42 14.17H19.4L20.01 13.58L19.17 13.46C18.93 13.42 18.72 13.27 18.61 13.05L18.23 12.29L17.85 13.05C17.75 13.27 17.53 13.42 17.29 13.46L16.45 13.58L17.06 14.17C17.24 14.34 17.32 14.59 17.28 14.83L17.14 15.67L17.89 15.28C18.11 15.17 18.37 15.17 18.59 15.28L19.34 15.67L19.2 14.83Z" fill="black"/>
</svg>
