<svg width="25" height="25" viewBox="0 0 25 25" fill="none" xmlns="http://www.w3.org/2000/svg">
<path d="M17.5 20.5H6.5C5.4 20.5 4.5 19.6 4.5 18.5V5.5C4.5 4.4 5.4 3.5 6.5 3.5H17.5C18.6 3.5 19.5 4.4 19.5 5.5V18.5C19.5 19.6 18.6 20.5 17.5 20.5ZM6.5 4.5C5.9 4.5 5.5 4.9 5.5 5.5V18.5C5.5 19.1 5.9 19.5 6.5 19.5H17.5C18.1 19.5 18.5 19.1 18.5 18.5V5.5C18.5 4.9 18.1 4.5 17.5 4.5H6.5Z" fill="black"/>
<path d="M11 13.5C10.7 13.5 10.5 13.3 10.5 13V10.5H7.5C7.2 10.5 7 10.3 7 10C7 9.7 7.2 9.5 7.5 9.5H11C11.3 9.5 11.5 9.7 11.5 10V13C11.5 13.3 11.3 13.5 11 13.5Z" fill="black"/>
<path d="M14 14.5C13.7 14.5 13.5 14.3 13.5 14V9.5C13.5 9.2 13.7 9 14 9C14.3 9 14.5 9.2 14.5 9.5V11.3H16C16.3 11.3 16.5 11.5 16.5 11.8C16.5 12.1 16.3 12.3 16 12.3H14.5V14.1C14.5 14.4 14.3 14.6 14 14.6V14.5Z" fill="black"/>
</svg>
