<svg width="25" height="25" viewBox="0 0 25 25" fill="none" xmlns="http://www.w3.org/2000/svg">
<path fill-rule="evenodd" clip-rule="evenodd" d="M14.697 6.56298C14.063 6.68298 13.349 6.99798 12.938 7.33698C12.407 7.77398 11.507 8.63298 11.459 8.74698C11.296 9.14198 11.761 9.56798 12.138 9.36798C12.188 9.34198 12.507 9.06498 12.847 8.75398C13.789 7.88898 14.135 7.68498 14.875 7.55298C15.858 7.37898 16.793 7.66498 17.483 8.35198C18.187 9.05298 18.41 9.92098 18.125 10.844C17.965 11.361 17.736 11.633 16.5 12.771C15.284 13.89 15.016 14.101 14.607 14.265C13.468 14.721 12.235 14.494 11.362 13.667C10.96 13.286 10.851 13.231 10.629 13.291C10.5651 13.3068 10.5049 13.3352 10.452 13.3745C10.3992 13.4139 10.3547 13.4633 10.3211 13.5199C10.2875 13.5766 10.2655 13.6394 10.2564 13.7046C10.2473 13.7699 10.2512 13.8363 10.268 13.9C10.325 14.126 10.972 14.717 11.458 14.987C12.099 15.344 12.648 15.478 13.458 15.476C14.254 15.475 14.728 15.353 15.449 14.962C15.762 14.793 16.02 14.574 17.25 13.438C18.406 12.37 18.609 12.141 18.874 11.604C19.126 11.093 19.203 10.81 19.235 10.271C19.319 8.87398 18.534 7.59598 17.173 6.91498C16.482 6.56898 15.444 6.42098 14.697 6.56298ZM11.492 10.542C10.85 10.644 10.132 10.941 9.661 11.3C9.295 11.578 7.385 13.351 7.093 13.682C6.804 14.011 6.464 14.646 6.355 15.063C6.185 15.713 6.237 16.478 6.497 17.153C6.912 18.228 7.893 19.057 9.138 19.386C9.414 19.459 9.598 19.476 10.104 19.476C10.659 19.477 10.776 19.464 11.142 19.363C11.5845 19.2375 12.0056 19.046 12.391 18.795C12.493 18.724 12.898 18.373 13.289 18.015C13.859 17.493 14.01 17.332 14.048 17.205C14.167 16.807 13.707 16.434 13.348 16.637C13.299 16.665 12.989 16.934 12.661 17.236C11.922 17.913 11.788 18.02 11.5 18.166C11.1174 18.3601 10.6976 18.4699 10.269 18.488C9.348 18.539 8.554 18.23 7.946 17.586C7.309 16.911 7.103 16.035 7.375 15.156C7.535 14.639 7.764 14.367 9 13.23C10.208 12.118 10.381 11.978 10.771 11.792C11.194 11.591 11.509 11.526 12.063 11.525C12.928 11.524 13.528 11.761 14.162 12.355C14.565 12.732 14.698 12.791 14.923 12.696C15.115 12.614 15.212 12.494 15.237 12.302C15.268 12.075 15.188 11.943 14.8 11.579C14.2823 11.0941 13.6442 10.7567 12.952 10.602C12.58 10.522 11.816 10.491 11.492 10.542Z" fill="black"/>
</svg>
