<svg width="25" height="24" viewBox="0 0 25 24" fill="none" xmlns="http://www.w3.org/2000/svg">
<path fill-rule="evenodd" clip-rule="evenodd" d="M8.063 3.78801C7.99279 3.82692 7.92931 3.8769 7.875 3.93601C7.784 4.03401 7.769 4.09401 7.756 4.39701L7.742 4.74601L6.11 4.75901C4.293 4.77201 4.358 4.76201 4.032 5.07501C3.728 5.36601 3.747 4.91301 3.761 11.753C3.775 18.601 3.749 18.017 4.062 18.695C4.28448 19.1682 4.6062 19.588 5.0053 19.9259C5.40441 20.2637 5.87155 20.5117 6.375 20.653C6.632 20.725 6.935 20.729 12.25 20.729C17.565 20.729 17.868 20.725 18.125 20.653C18.6284 20.5117 19.0956 20.2637 19.4947 19.9259C19.8938 19.588 20.2155 19.1682 20.438 18.695C20.751 18.017 20.725 18.601 20.739 11.753C20.753 4.91301 20.772 5.36601 20.468 5.07501C20.142 4.76201 20.207 4.77201 18.39 4.75901L16.758 4.74601L16.744 4.39501C16.73 4.06201 16.722 4.03601 16.593 3.90701C16.476 3.79001 16.428 3.77101 16.25 3.77101C16.072 3.77101 16.024 3.79001 15.907 3.90701C15.778 4.03601 15.77 4.06201 15.756 4.39701L15.741 4.75001H8.759L8.744 4.39701C8.73 4.06601 8.721 4.03501 8.6 3.91401C8.463 3.77701 8.218 3.71901 8.063 3.78801ZM7.756 6.10301C7.77 6.43801 7.778 6.46401 7.907 6.59301C8.024 6.71001 8.072 6.72901 8.25 6.72901C8.428 6.72901 8.476 6.71001 8.593 6.59301C8.722 6.46401 8.73 6.43801 8.744 6.10301L8.759 5.75001H15.741L15.756 6.10301C15.77 6.43801 15.778 6.46401 15.907 6.59301C16.024 6.71001 16.072 6.72901 16.25 6.72901C16.428 6.72901 16.476 6.71001 16.593 6.59301C16.722 6.46401 16.73 6.43801 16.744 6.10301L16.759 5.75001H19.75V8.75001H4.75V5.75001H7.741L7.756 6.10301ZM19.75 13.59C19.75 16.18 19.735 17.52 19.704 17.705C19.6567 17.9216 19.5852 18.1323 19.491 18.333C19.272 18.794 18.796 19.282 18.358 19.493C17.809 19.758 18.041 19.749 12.25 19.749C6.459 19.749 6.691 19.758 6.142 19.493C5.704 19.282 5.228 18.794 5.009 18.333C4.91475 18.1323 4.8433 17.9216 4.796 17.705C4.765 17.52 4.75 16.18 4.75 13.59V9.75001H19.75V13.59ZM7.769 11.814C7.6871 11.8578 7.61875 11.9232 7.57133 12.003C7.52391 12.0828 7.49925 12.1741 7.5 12.267C7.5 12.381 7.535 12.456 7.643 12.574L7.785 12.729H11.207L11.343 12.593C11.46 12.476 11.479 12.428 11.479 12.25C11.479 12.072 11.46 12.024 11.343 11.907L11.207 11.771L9.551 11.761C8.137 11.752 7.877 11.76 7.769 11.814Z" fill="black"/>
</svg>
