<svg width="25" height="25" viewBox="0 0 25 25" fill="none" xmlns="http://www.w3.org/2000/svg">
<path fill-rule="evenodd" clip-rule="evenodd" d="M11.874 4.03099C11.751 4.09399 11.599 4.21097 11.537 4.29197C11.475 4.37197 10.913 5.63197 10.289 7.09197L9.153 9.74697L6.816 9.75899C4.511 9.77099 4.477 9.77198 4.313 9.86098C4.20327 9.9241 4.10211 10.0011 4.012 10.09C3.736 10.378 3.75 10.11 3.75 15.25C3.75 20.456 3.731 20.12 4.051 20.446C4.371 20.773 3.85 20.75 10.897 20.75C15.495 20.75 17.234 20.737 17.338 20.703C17.548 20.632 17.722 20.488 18.027 20.132C18.635 19.422 19.282 18.304 19.728 17.192C20.541 15.164 20.983 12.752 20.731 11.729C20.543 10.97 20.074 10.369 19.417 10.047C18.84 9.76499 18.721 9.75199 16.693 9.75099L14.906 9.74999L14.931 9.59399C15.145 8.25299 15.007 7.04297 14.519 5.97199C14.212 5.29799 13.643 4.62499 13.047 4.23099C12.519 3.88299 12.253 3.83699 11.874 4.03099ZM12.641 5.17398C13.204 5.59698 13.654 6.31199 13.854 7.09799C14.031 7.79597 14.046 8.23899 13.936 9.50699C13.91 9.80399 13.918 9.89997 13.977 10.049C14.08 10.309 14.225 10.482 14.449 10.614L14.646 10.729L16.625 10.751C18.591 10.772 18.606 10.773 18.854 10.872C19.195 11.008 19.536 11.35 19.667 11.688C19.857 12.177 19.82 13.095 19.559 14.322C19.134 16.33 18.268 18.29 17.294 19.449L17.059 19.729L12.904 19.74L8.75 19.75V10.76L9.095 10.742C9.493 10.721 9.729 10.617 9.921 10.375C10.006 10.268 11.936 5.86199 12.253 5.05199C12.273 5.00099 12.304 4.95899 12.322 4.95899C12.34 4.95899 12.483 5.05598 12.641 5.17398ZM7.75 15.25V19.75H4.75V10.75H7.75V15.25Z" fill="black"/>
</svg>
