<svg width="25" height="24" viewBox="0 0 25 24" fill="none" xmlns="http://www.w3.org/2000/svg">
<path fill-rule="evenodd" clip-rule="evenodd" d="M11.967 4.85701C11.413 5.00601 10.993 5.32601 10.686 5.83301C10.498 6.14601 10.475 6.34901 10.607 6.52601C10.704 6.65701 13.361 8.14801 13.571 8.19001C13.883 8.25301 14.25 7.86001 14.439 7.26101C14.594 6.76901 14.504 6.16901 14.203 5.70101C13.763 5.01401 12.772 4.64001 11.967 4.85701ZM9.64401 7.70301C9.54901 7.76001 9.10901 8.45801 7.87501 10.504C6.97101 12.003 6.18501 13.342 6.12701 13.479C6.02901 13.712 6.02001 13.785 6.00701 14.521C5.99901 15.016 6.01201 15.405 6.04201 15.561C6.19401 16.335 6.72801 16.718 7.44501 16.568C7.72101 16.511 8.34901 16.222 8.96901 15.867C9.49101 15.568 9.55901 15.472 11.348 12.502C12.528 10.544 13.014 9.70201 13.027 9.59201C13.063 9.29801 13.004 9.25301 11.469 8.40601C9.96101 7.57501 9.89501 7.55001 9.64401 7.70301ZM4.06301 19.04C3.97269 19.0779 3.89622 19.1426 3.84398 19.2255C3.79174 19.3083 3.76626 19.4052 3.77101 19.503C3.77101 19.678 3.79001 19.726 3.90701 19.843L4.04301 19.979H20.457L20.593 19.843C20.71 19.726 20.729 19.678 20.729 19.5C20.729 19.322 20.71 19.274 20.593 19.157L20.457 19.021L12.301 19.013C7.81601 19.009 4.10801 19.021 4.06301 19.04Z" fill="black"/>
</svg>
