<svg width="25" height="25" viewBox="0 0 25 25" fill="none" xmlns="http://www.w3.org/2000/svg">
<path fill-rule="evenodd" clip-rule="evenodd" d="M12.145 4.56201C11.879 4.69801 11.898 4.29901 11.875 10.135L11.854 15.457L9.67701 13.357C8.09301 11.828 7.46701 11.249 7.37501 11.229C6.96301 11.139 6.62601 11.553 6.81201 11.922C6.91701 12.129 11.771 16.789 11.979 16.882C12.195 16.978 12.595 16.979 12.803 16.884C12.9 16.84 13.912 15.893 15.459 14.398C17.43 12.495 17.967 11.954 17.998 11.842C18.115 11.417 17.639 11.054 17.271 11.288C17.202 11.332 16.19 12.294 15.021 13.427L12.896 15.486L12.875 10.14L12.854 4.79301L12.725 4.66401C12.6513 4.58822 12.5556 4.53757 12.4515 4.51926C12.3474 4.50095 12.2401 4.51591 12.145 4.56201ZM4.56301 20.04C4.47269 20.0779 4.39622 20.1426 4.34398 20.2255C4.29174 20.3083 4.26626 20.4052 4.27101 20.503C4.27101 20.678 4.29001 20.726 4.40701 20.843L4.54301 20.979H19.957L20.093 20.843C20.21 20.726 20.229 20.678 20.229 20.5C20.229 20.322 20.21 20.274 20.093 20.157L19.957 20.021L12.301 20.013C8.09101 20.009 4.60801 20.021 4.56301 20.04Z" fill="black"/>
</svg>
