<svg width="25" height="24" viewBox="0 0 25 24" fill="none" xmlns="http://www.w3.org/2000/svg">
<mask id="mask0_420_342" style="mask-type:luminance" maskUnits="userSpaceOnUse" x="0" y="0" width="25" height="24">
<path d="M24.25 0.154785H0.25V23.1548H24.25V0.154785Z" fill="white"/>
</mask>
<g mask="url(#mask0_420_342)">
<path fill-rule="evenodd" clip-rule="evenodd" d="M5.69714 7.31422C4.18386 8.8275 4.18386 11.281 5.69715 12.7943L12.1495 19.2466L17.6296 13.7666L18.6018 12.7943C20.1151 11.281 20.1151 8.82747 18.6018 7.31419C17.0886 5.80091 14.6351 5.80091 13.1218 7.31419L12.1495 8.28648L11.1772 7.31422C9.66394 5.80094 7.21043 5.80094 5.69714 7.31422ZM19.0438 13.7666L12.1495 20.6609L4.99004 13.5014C3.08623 11.5976 3.08623 8.51092 4.99004 6.60711C6.89384 4.70331 9.98052 4.70331 11.8843 6.60711L12.1495 6.87227L12.4147 6.60709C14.3185 4.70328 17.4051 4.70328 19.309 6.60709C21.2128 8.51089 21.2128 11.5976 19.309 13.5014L19.0438 13.7666Z" fill="black"/>
</g>
</svg>
