<svg width="25" height="25" viewBox="0 0 25 25" fill="none" xmlns="http://www.w3.org/2000/svg">
<path fill-rule="evenodd" clip-rule="evenodd" d="M11.57 3.81602C10.309 4.04402 9.216 5.07102 8.847 6.37502C8.777 6.62502 8.771 6.84802 8.771 9.25002C8.771 11.652 8.777 11.875 8.847 12.125C8.98842 12.6284 9.23646 13.0955 9.5743 13.4946C9.91214 13.8937 10.3319 14.2154 10.805 14.438C11.318 14.675 11.575 14.726 12.25 14.726C12.925 14.726 13.182 14.675 13.695 14.438C14.1681 14.2154 14.5879 13.8937 14.9257 13.4946C15.2635 13.0955 15.5116 12.6284 15.653 12.125C15.723 11.875 15.729 11.652 15.729 9.25002C15.729 6.35102 15.738 6.45502 15.435 5.79802C14.755 4.32502 13.191 3.52302 11.57 3.81602ZM12.705 4.79602C13.434 4.91702 14.161 5.47502 14.49 6.16702C14.584 6.36302 14.679 6.64302 14.704 6.79502C14.733 6.96902 14.75 7.86402 14.75 9.25002C14.75 10.636 14.733 11.531 14.704 11.705C14.6567 11.9217 14.5852 12.1323 14.491 12.333C14.272 12.794 13.796 13.282 13.358 13.493C13.0126 13.6604 12.6338 13.7473 12.25 13.7473C11.8662 13.7473 11.4874 13.6604 11.142 13.493C10.706 13.283 10.229 12.794 10.007 12.333C9.91103 12.1341 9.8395 11.9242 9.794 11.708C9.737 11.353 9.736 7.15702 9.793 6.79202C9.932 5.89402 10.801 4.99202 11.699 4.81402C12.0301 4.74366 12.3716 4.73755 12.705 4.79602ZM5.063 9.78802C4.99256 9.82701 4.92904 9.87736 4.875 9.93702L4.771 10.049L4.773 11.035C4.775 11.758 4.794 12.132 4.845 12.438C5.08093 13.8696 5.7247 15.2028 6.69914 16.2779C7.67359 17.3529 8.93736 18.1241 10.339 18.499C10.724 18.604 11.331 18.707 11.571 18.708H11.747L11.759 20.083L11.771 21.457L11.907 21.593C12.024 21.71 12.072 21.729 12.25 21.729C12.428 21.729 12.476 21.71 12.593 21.593L12.729 21.457L12.741 20.083L12.753 18.708H12.929C13.169 18.707 13.776 18.604 14.161 18.499C15.5626 18.1241 16.8264 17.3529 17.8008 16.2779C18.7753 15.2028 19.4191 13.8696 19.655 12.438C19.706 12.132 19.725 11.758 19.727 11.032L19.729 10.044L19.593 9.90702C19.476 9.79002 19.428 9.77102 19.25 9.77102C19.072 9.77102 19.024 9.79002 18.907 9.90702L18.771 10.043L18.745 10.97C18.717 11.953 18.671 12.371 18.536 12.875C17.757 15.764 15.198 17.748 12.25 17.748C9.512 17.748 7.019 15.977 6.123 13.396C5.856 12.626 5.789 12.187 5.755 10.97L5.729 10.043L5.6 9.91402C5.463 9.77702 5.218 9.71902 5.063 9.78802Z" fill="black"/>
</svg>
