<svg width="25" height="25" viewBox="0 0 25 25" fill="none" xmlns="http://www.w3.org/2000/svg">
<g clip-path="url(#clip0_420_312)">
<mask id="mask0_420_312" style="mask-type:luminance" maskUnits="userSpaceOnUse" x="0" y="0" width="25" height="25">
<path d="M25 0H0V25H25V0Z" fill="white"/>
</mask>
<g mask="url(#mask0_420_312)">
<path fill-rule="evenodd" clip-rule="evenodd" d="M11.651 4.62602C10.517 4.73658 9.43447 5.15356 8.51933 5.8323C7.60419 6.51103 6.89095 7.42594 6.456 8.47902C6.092 9.37102 6.007 9.87802 5.957 11.438C5.92 12.606 5.879 12.965 5.706 13.638C5.46527 14.567 5.06169 15.446 4.514 16.234C4.177 16.729 4.125 16.852 4.125 17.161C4.125 17.498 4.286 17.809 4.545 17.968C4.967 18.229 7.575 18.905 8.613 19.023L8.866 19.051L8.886 19.599C8.91 20.24 8.974 20.507 9.227 21.021C9.50454 21.5861 9.93489 22.062 10.4692 22.3948C11.0036 22.7277 11.6205 22.9041 12.25 22.9041C12.8795 22.9041 13.4964 22.7277 14.0308 22.3948C14.5651 22.062 14.9955 21.5861 15.273 21.021C15.526 20.507 15.59 20.24 15.614 19.599L15.634 19.051L15.887 19.023C16.925 18.905 19.533 18.229 19.955 17.968C20.214 17.809 20.375 17.498 20.375 17.161C20.375 16.852 20.323 16.729 19.986 16.234C19.4383 15.446 19.0347 14.567 18.794 13.638C18.621 12.962 18.58 12.606 18.543 11.438C18.523 10.796 18.484 10.13 18.458 9.95802C18.044 7.26302 15.976 5.14602 13.313 4.69002C12.763 4.60835 12.2057 4.58689 11.651 4.62602ZM13.11 5.66902C14.127 5.82702 15.23 6.39502 15.98 7.14502C16.726 7.89102 17.268 8.93302 17.431 9.93802C17.465 10.144 17.504 10.757 17.518 11.301C17.556 12.767 17.669 13.49 18.025 14.539C18.2747 15.2741 18.6175 15.9741 19.045 16.622C19.23 16.902 19.375 17.139 19.366 17.148C19.331 17.183 18.244 17.502 17.688 17.641C15.894 18.088 14.193 18.291 12.25 18.291C10.307 18.291 8.606 18.088 6.813 17.641C6.256 17.502 5.169 17.183 5.134 17.148C5.125 17.139 5.27 16.902 5.455 16.622C6.23934 15.421 6.73873 14.0566 6.915 12.633C6.938 12.442 6.968 11.842 6.982 11.299C7.011 10.196 7.07 9.73702 7.257 9.18802C7.859 7.42102 9.288 6.14402 11.146 5.71202C11.681 5.58802 12.482 5.57002 13.11 5.66902ZM12.25 19.271C13.018 19.271 13.866 19.255 14.135 19.235L14.625 19.2V19.521C14.625 20.545 14.01 21.406 13.01 21.783C12.641 21.923 11.942 21.939 11.583 21.818C11.2061 21.6967 10.8634 21.4876 10.583 21.208C10.3571 20.9862 10.1782 20.7212 10.0567 20.4288C9.93528 20.1364 9.87382 19.8226 9.876 19.506L9.875 19.2L10.365 19.235C10.634 19.255 11.482 19.271 12.25 19.271Z" fill="black"/>
</g>
</g>
<defs>
<clipPath id="clip0_420_312">
<rect width="25" height="25" fill="white"/>
</clipPath>
</defs>
</svg>
