<svg width="25" height="25" viewBox="0 0 25 25" fill="none" xmlns="http://www.w3.org/2000/svg">
<path fill-rule="evenodd" clip-rule="evenodd" d="M4.69801 4.94801C4.61719 5.00239 4.55357 5.07869 4.5146 5.16797C4.47563 5.25724 4.46294 5.35577 4.47801 5.45201C4.50201 5.58501 4.94601 6.04501 8.07501 9.17701L11.645 12.75L8.07501 16.323C4.92601 19.475 4.50201 19.914 4.47801 20.05C4.41801 20.382 4.73501 20.711 5.05201 20.645C5.16101 20.623 5.88801 19.917 8.77101 17.038L12.355 13.459L15.917 17.021C18.429 19.534 19.519 20.597 19.615 20.628C19.924 20.731 20.25 20.477 20.25 20.133V19.939L16.657 16.344L13.063 12.75L16.657 9.15601L20.25 5.56101V5.36001C20.25 5.18601 20.23 5.13901 20.108 5.01701C19.917 4.82601 19.672 4.81801 19.433 4.99601C19.344 5.06201 17.715 6.67501 15.813 8.57901L12.355 12.041L8.77001 8.45801L5.18601 4.87501L4.99901 4.87601C4.89455 4.87722 4.7917 4.90182 4.69801 4.94801Z" fill="black"/>
</svg>
