<svg width="25" height="25" viewBox="0 0 25 25" fill="none" xmlns="http://www.w3.org/2000/svg">
<path fill-rule="evenodd" clip-rule="evenodd" d="M5.56301 7.53998C5.47269 7.57784 5.39622 7.64259 5.34398 7.72542C5.29174 7.80826 5.26626 7.90516 5.27101 8.00298C5.27101 8.17798 5.29001 8.22598 5.40701 8.34298L5.54301 8.47898H19.957L20.093 8.34298C20.21 8.22598 20.229 8.17798 20.229 7.99998C20.229 7.82198 20.21 7.77398 20.093 7.65698L19.957 7.52098L12.801 7.51298C8.86601 7.50798 5.60801 7.52098 5.56301 7.53998ZM5.56301 12.54C5.47269 12.5778 5.39622 12.6426 5.34398 12.7254C5.29174 12.8083 5.26626 12.9052 5.27101 13.003C5.27101 13.178 5.29001 13.226 5.40701 13.343L5.54301 13.479H19.957L20.093 13.343C20.21 13.226 20.229 13.178 20.229 13C20.229 12.822 20.21 12.774 20.093 12.657L19.957 12.521L12.801 12.513C8.86601 12.508 5.60801 12.521 5.56301 12.54ZM5.56301 17.54C5.47269 17.5778 5.39622 17.6426 5.34398 17.7254C5.29174 17.8083 5.26626 17.9052 5.27101 18.003C5.27101 18.178 5.29001 18.226 5.40701 18.343L5.54301 18.479H19.957L20.093 18.343C20.21 18.226 20.229 18.178 20.229 18C20.229 17.822 20.21 17.774 20.093 17.657L19.957 17.521L12.801 17.513C8.86601 17.508 5.60801 17.521 5.56301 17.54Z" fill="black"/>
</svg>
