<svg width="25" height="24" viewBox="0 0 25 24" fill="none" xmlns="http://www.w3.org/2000/svg">
<path fill-rule="evenodd" clip-rule="evenodd" d="M14.012 4.16498C13.869 4.25198 13.75 4.44198 13.75 4.58298C13.75 4.69798 13.843 4.87498 13.958 4.97898C14.047 5.05998 14.125 5.06298 16.302 5.08298L18.553 5.10398L14.359 9.12298C10.949 12.39 10.157 13.169 10.12 13.291C9.996 13.705 10.488 14.07 10.854 13.837C10.923 13.793 12.854 11.958 15.146 9.75898L19.313 5.76098L19.333 7.70398C19.356 9.80398 19.35 9.75098 19.586 9.89098C19.818 10.028 20.151 9.93898 20.27 9.70998C20.325 9.60398 20.333 9.23498 20.332 7.01198C20.33 4.22798 20.338 4.31998 20.101 4.16398C19.984 4.08698 19.876 4.08398 17.063 4.08398C14.243 4.08398 14.141 4.08598 14.012 4.16498ZM6.083 5.27298C5.276 5.44698 4.653 6.03398 4.502 6.76198C4.471 6.91298 4.46 8.61598 4.468 12.333L4.479 17.688L4.6 17.979C4.822 18.517 5.123 18.87 5.543 19.084C6.006 19.321 5.689 19.308 11.521 19.323C17.545 19.338 17.256 19.351 17.906 19.038C18.54 18.733 18.974 18.214 19.083 17.63C19.108 17.498 19.125 16.522 19.125 15.263C19.125 12.913 19.128 12.943 18.876 12.813C18.667 12.705 18.477 12.731 18.301 12.893L18.146 13.035L18.125 15.257C18.104 17.444 18.103 17.482 18.013 17.65C17.838 17.976 17.487 18.2 17.009 18.292C16.842 18.324 15.206 18.334 11.521 18.325C5.589 18.311 6.077 18.34 5.756 17.976C5.44 17.617 5.458 17.977 5.458 12.214C5.458 8.99998 5.474 7.00898 5.499 6.92098C5.573 6.66298 5.716 6.50398 5.999 6.36298L6.269 6.22898L8.624 6.20798C11.111 6.18598 11.088 6.18798 11.227 5.98998C11.312 5.86898 11.31 5.54498 11.224 5.42198C11.076 5.20998 11.047 5.20798 8.616 5.21198C6.843 5.21398 6.296 5.22798 6.083 5.27298Z" fill="black"/>
</svg>
