<svg width="25" height="25" viewBox="0 0 25 25" fill="none" xmlns="http://www.w3.org/2000/svg">
<path fill-rule="evenodd" clip-rule="evenodd" d="M11.294 5.54197C8.86101 5.79597 6.74101 7.35497 5.79801 9.58297C5.14487 11.1022 5.07894 12.8099 5.61301 14.375C6.19101 16.075 7.39101 17.439 9.03201 18.266C9.38801 18.445 10.21 18.724 10.636 18.81C12.524 19.192 14.578 18.711 16.072 17.537C16.215 17.425 16.346 17.333 16.363 17.333C16.381 17.333 17.103 18.041 17.969 18.906L19.542 20.479H19.749C19.928 20.479 19.976 20.46 20.093 20.343C20.21 20.226 20.229 20.178 20.229 19.999V19.792L18.656 18.219C17.791 17.353 17.083 16.631 17.083 16.613C17.083 16.596 17.175 16.465 17.287 16.322C17.979 15.441 18.454 14.318 18.63 13.146C18.698 12.689 18.689 11.645 18.612 11.186C18.161 8.49197 16.269 6.41597 13.625 5.71397C12.994 5.54597 11.975 5.47097 11.294 5.54197ZM13.029 6.60697C13.977 6.77197 14.989 7.26397 15.737 7.92297C16.72 8.78997 17.403 10.012 17.605 11.268C17.681 11.744 17.691 12.646 17.625 13.066C17.358 14.749 16.435 16.151 14.976 17.091C14.464 17.42 13.619 17.741 12.947 17.86C12.435 17.951 11.518 17.95 11 17.858C8.05301 17.336 5.99301 14.633 6.28901 11.678C6.39034 10.6246 6.77839 9.61924 7.41101 8.77097C7.74151 8.36348 8.11351 7.99147 8.52101 7.66097C9.34033 7.05627 10.3008 6.67138 11.311 6.54297C11.74 6.49497 12.558 6.52497 13.029 6.60697Z" fill="black"/>
</svg>
