<svg width="24" height="24" viewBox="0 0 24 24" fill="none" xmlns="http://www.w3.org/2000/svg">
<path d="M14.69 5.5L18.5 9.31V14.69L14.69 18.5H9.31L5.5 14.69V9.31L9.31 5.5H14.69ZM14.69 4.5H9.31C9.04 4.5 8.79 4.61 8.6 4.79L4.79 8.6C4.6 8.79 4.5 9.04 4.5 9.31V14.69C4.5 14.96 4.61 15.21 4.79 15.4L8.6 19.21C8.79 19.4 9.04 19.5 9.31 19.5H14.69C14.96 19.5 15.21 19.39 15.4 19.21L19.21 15.4C19.4 15.21 19.5 14.96 19.5 14.69V9.31C19.5 9.04 19.39 8.79 19.21 8.6L15.4 4.79C15.21 4.6 14.96 4.5 14.69 4.5Z" fill="black"/>
<path d="M9.98 14.52C9.85 14.52 9.72 14.47 9.63 14.37C9.43 14.17 9.43 13.86 9.63 13.66L13.67 9.62C13.87 9.42 14.18 9.42 14.38 9.62C14.58 9.82 14.58 10.13 14.38 10.33L10.34 14.37C10.24 14.47 10.11 14.52 9.99 14.52H9.98Z" fill="black"/>
<path d="M10.41 11.63C9.74 11.63 9.19 11.08 9.19 10.41C9.19 9.74 9.74 9.19 10.41 9.19C11.08 9.19 11.63 9.74 11.63 10.41C11.63 11.08 11.08 11.63 10.41 11.63ZM10.41 10.19C10.29 10.19 10.19 10.29 10.19 10.41C10.19 10.66 10.63 10.66 10.63 10.41C10.63 10.29 10.53 10.19 10.41 10.19Z" fill="black"/>
<path d="M13.59 14.81C12.92 14.81 12.37 14.26 12.37 13.59C12.37 12.92 12.92 12.37 13.59 12.37C14.26 12.37 14.81 12.92 14.81 13.59C14.81 14.26 14.26 14.81 13.59 14.81ZM13.59 13.37C13.47 13.37 13.37 13.47 13.37 13.59C13.37 13.84 13.81 13.84 13.81 13.59C13.81 13.47 13.71 13.37 13.59 13.37Z" fill="black"/>
</svg>
