<svg width="25" height="25" viewBox="0 0 25 25" fill="none" xmlns="http://www.w3.org/2000/svg">
<path fill-rule="evenodd" clip-rule="evenodd" d="M11.188 5.12502C10.904 5.18502 10.708 5.28802 10.492 5.49102C10.182 5.78002 10.099 5.98102 9.963 6.76902C9.898 7.15002 9.815 7.50202 9.776 7.56002C9.695 7.68302 9.326 7.90602 9.146 7.93902C9.054 7.95602 8.853 7.89802 8.396 7.72202C7.795 7.49102 7.755 7.48202 7.375 7.48102C7.002 7.47902 6.964 7.48702 6.716 7.62202C6.56999 7.70123 6.43654 7.80165 6.32 7.92002C6.142 8.12702 5.021 10.073 4.938 10.318C4.867 10.528 4.848 10.865 4.896 11.089C4.912 11.166 4.982 11.337 5.052 11.469C5.156 11.665 5.278 11.791 5.736 12.17C6.042 12.425 6.313 12.671 6.338 12.717C6.396 12.826 6.396 13.424 6.338 13.533C6.313 13.579 6.042 13.825 5.736 14.08C5.279 14.459 5.155 14.585 5.049 14.784C4.825 15.204 4.808 15.695 5.002 16.097C5.175 16.455 6.196 18.186 6.32 18.33C6.392 18.415 6.571 18.548 6.716 18.626C6.936 18.743 7.034 18.769 7.313 18.783C7.636 18.8 7.666 18.793 8.292 18.559C8.666 18.419 9.001 18.319 9.09 18.32C9.271 18.323 9.681 18.545 9.778 18.693C9.815 18.749 9.898 19.104 9.963 19.481C10.099 20.268 10.182 20.47 10.489 20.757C10.913 21.153 11.044 21.177 12.689 21.16L13.981 21.146L14.257 21.01C14.799 20.743 14.985 20.419 15.145 19.458C15.214 19.044 15.28 18.775 15.328 18.708C15.425 18.574 15.624 18.44 15.858 18.35L16.044 18.279L16.699 18.524C17.491 18.82 17.817 18.86 18.221 18.708C18.651 18.547 18.841 18.319 19.506 17.167C19.829 16.605 20.129 16.048 20.172 15.928C20.272 15.648 20.271 15.368 20.168 15.034C20.066 14.705 19.918 14.528 19.363 14.07C18.71 13.53 18.729 13.559 18.729 13.125C18.729 12.691 18.71 12.72 19.363 12.18C19.91 11.729 20.052 11.559 20.161 11.227C20.271 10.894 20.274 10.624 20.172 10.329C20.054 9.98902 18.942 8.09202 18.738 7.88302C18.4916 7.62567 18.1532 7.47645 17.797 7.46802C17.491 7.45002 17.452 7.45902 16.771 7.70702C16.107 7.94802 16.053 7.96102 15.896 7.91602C15.697 7.86002 15.433 7.68602 15.328 7.54202C15.28 7.47502 15.214 7.20702 15.145 6.79202C14.985 5.83102 14.799 5.50702 14.257 5.24002L13.981 5.10402L12.668 5.09702C11.945 5.09302 11.279 5.10502 11.188 5.12502ZM13.803 6.13902C13.8736 6.16759 13.938 6.20934 13.993 6.26202C14.023 6.29802 14.1 6.63602 14.164 7.01302C14.238 7.44802 14.318 7.77902 14.384 7.92102C14.532 8.24102 14.823 8.50602 15.284 8.73902C15.658 8.92802 15.691 8.93702 16.015 8.93602C16.324 8.93402 16.41 8.91302 16.984 8.69602C17.331 8.56502 17.673 8.45802 17.744 8.45802C17.828 8.45802 17.918 8.49902 17.998 8.57302C18.14 8.70502 19.199 10.525 19.233 10.698C19.274 10.904 19.18 11.028 18.638 11.481C17.838 12.15 17.708 12.38 17.708 13.125C17.708 13.871 17.84 14.104 18.638 14.77C19.18 15.222 19.274 15.346 19.233 15.552C19.199 15.722 18.139 17.544 17.996 17.677C17.9287 17.7474 17.8364 17.7884 17.739 17.791C17.665 17.791 17.323 17.686 16.979 17.556C16.416 17.345 16.321 17.322 16.021 17.319C15.655 17.317 15.438 17.392 14.995 17.675C14.461 18.017 14.332 18.26 14.163 19.239C14.097 19.617 14.021 19.954 13.994 19.987C13.855 20.154 13.752 20.167 12.554 20.166C11.718 20.166 11.368 20.151 11.296 20.114C11.103 20.015 11.048 19.876 10.936 19.208C10.811 18.46 10.695 18.158 10.44 17.924C10.183 17.687 9.724 17.429 9.418 17.351C9.062 17.26 8.78 17.308 8.052 17.583C7.433 17.817 7.263 17.837 7.11 17.698C7.054 17.646 6.753 17.16 6.441 16.616C5.857 15.597 5.81 15.474 5.929 15.265C5.956 15.216 6.21 14.985 6.491 14.751C7.28 14.099 7.398 13.883 7.392 13.104C7.386 12.354 7.274 12.152 6.531 11.538C6.25 11.307 5.988 11.068 5.948 11.007C5.803 10.786 5.842 10.68 6.442 9.63402C6.753 9.09002 7.058 8.60402 7.119 8.55202C7.28 8.41602 7.432 8.43402 8.051 8.66402C8.792 8.93902 8.933 8.97202 9.228 8.94202C9.545 8.90902 10.079 8.64602 10.387 8.37202C10.697 8.09602 10.803 7.84002 10.936 7.04202C11.048 6.37402 11.103 6.23502 11.296 6.13602C11.445 6.06002 13.619 6.06202 13.803 6.13902ZM11.896 10.186C11.338 10.308 10.915 10.541 10.465 10.974C10.0947 11.3215 9.82102 11.7592 9.67079 12.2443C9.52055 12.7293 9.49892 13.2451 9.608 13.741C9.742 14.389 10.014 14.855 10.556 15.361C11.247 16.006 12.249 16.269 13.228 16.062C14.181 15.86 15.034 15.107 15.379 14.164C15.941 12.623 15.177 10.933 13.637 10.311C13.182 10.127 12.418 10.072 11.896 10.186ZM13.355 11.286C14.127 11.647 14.542 12.29 14.542 13.125C14.542 13.807 14.277 14.337 13.728 14.751C12.967 15.326 11.828 15.241 11.152 14.558C10.527 13.927 10.369 13.047 10.739 12.257C10.871 11.974 11.278 11.538 11.56 11.377C11.899 11.182 12.169 11.123 12.649 11.139C13.019 11.151 13.104 11.168 13.355 11.286Z" fill="black"/>
</svg>
