<svg width="25" height="25" viewBox="0 0 25 25" fill="none" xmlns="http://www.w3.org/2000/svg">
<path fill-rule="evenodd" clip-rule="evenodd" d="M6.188 4.52803C5.83134 4.56926 5.49469 4.7145 5.21998 4.94566C4.94526 5.17681 4.7446 5.48367 4.643 5.82803C4.555 6.11603 4.555 18.426 4.643 18.713C4.774 19.148 5.019 19.477 5.395 19.727C5.87 20.042 5.317 20.017 12.146 20.032C15.955 20.039 18.37 20.029 18.532 20.004C18.8684 19.9537 19.1842 19.8106 19.4437 19.5906C19.7032 19.3707 19.8962 19.0827 20.001 18.759C20.082 18.497 20.083 18.355 20.083 12.274C20.083 6.68003 20.077 6.03403 20.016 5.83003C19.9424 5.53285 19.7823 5.26417 19.556 5.05803C19.2791 4.78105 18.9211 4.59959 18.534 4.54003C18.289 4.50403 6.471 4.49303 6.188 4.52803ZM18.715 5.64603C18.821 5.72003 18.935 5.84903 18.99 5.95703L19.083 6.14303L19.082 12.269C19.082 18.123 19.078 18.403 19.005 18.564C18.9575 18.6672 18.8887 18.7591 18.8033 18.8339C18.7178 18.9087 18.6175 18.9646 18.509 18.998C18.294 19.058 6.372 19.058 6.158 18.998C6.05209 18.9648 5.95391 18.9106 5.86925 18.8389C5.78458 18.7671 5.71513 18.6791 5.665 18.58C5.585 18.423 5.583 18.292 5.583 12.271C5.583 6.25003 5.585 6.11803 5.665 5.96203C5.762 5.77203 5.963 5.59303 6.118 5.55903C6.16944 5.54782 6.22047 5.53481 6.271 5.52003C8.32197 5.50823 10.373 5.50589 12.424 5.51303L18.535 5.52103L18.715 5.64603ZM15.291 9.26903C15.233 9.30003 14.371 10.386 13.374 11.682C12.378 12.977 11.55 14.039 11.535 14.04C11.52 14.041 11.017 13.596 10.416 13.052C9.816 12.508 9.267 12.03 9.195 11.99C9.10685 11.9383 9.00471 11.9156 8.90297 11.9251C8.80122 11.9345 8.70502 11.9757 8.62791 12.0428C8.55081 12.1098 8.4967 12.1994 8.47321 12.2988C8.44972 12.3983 8.45804 12.5026 8.497 12.597C8.533 12.69 10.935 14.905 11.303 15.184C11.438 15.287 11.486 15.299 11.655 15.28C11.802 15.264 11.878 15.228 11.957 15.14C12.226 14.839 15.963 9.95103 16.001 9.85203C16.151 9.45603 15.671 9.06203 15.291 9.26903Z" fill="black"/>
</svg>
