<svg width="25" height="24" viewBox="0 0 25 24" fill="none" xmlns="http://www.w3.org/2000/svg">
<path fill-rule="evenodd" clip-rule="evenodd" d="M12.25 5.31603C10.34 5.47403 8.77299 6.15803 7.44799 7.41403C6.39799 8.40803 5.65999 9.75703 5.36699 11.219C5.22999 11.896 5.23099 13.105 5.36699 13.784C5.57221 14.7988 5.9905 15.7584 6.59419 16.5995C7.19789 17.4406 7.97324 18.1439 8.86899 18.663C9.83385 19.2177 10.9064 19.5592 12.0144 19.6644C13.1223 19.7697 14.24 19.6362 15.292 19.273C17.82 18.382 19.619 16.342 20.133 13.784C20.27 13.103 20.27 11.897 20.133 11.216C19.524 8.18703 17.058 5.86703 13.946 5.39503C13.561 5.33603 12.567 5.29003 12.25 5.31603ZM13.371 6.33403C15.388 6.51303 17.238 7.61703 18.3 9.27503C18.672 9.85603 19.026 10.763 19.151 11.458C19.247 11.992 19.247 13.008 19.151 13.542C18.671 16.205 16.431 18.275 13.626 18.648C11.098 18.985 8.54299 17.823 7.19999 15.725C6.862 15.174 6.60598 14.5768 6.43999 13.952C6.21101 12.9976 6.21101 12.0025 6.43999 11.048C6.60598 10.4233 6.862 9.82603 7.19999 9.27503C8.08899 7.88703 9.56799 6.85703 11.219 6.47703C11.9235 6.3107 12.6507 6.26238 13.371 6.33403ZM9.56299 12.039C9.47277 12.0773 9.39643 12.1423 9.34423 12.2252C9.29203 12.3082 9.26647 12.4051 9.27099 12.503C9.27099 12.678 9.28999 12.726 9.40699 12.843L9.54299 12.979H15.957L16.093 12.843C16.21 12.726 16.229 12.678 16.229 12.5C16.229 12.322 16.21 12.274 16.093 12.157L15.957 12.021L12.801 12.013C11.066 12.008 9.60799 12.02 9.56299 12.039Z" fill="black"/>
</svg>
