<svg width="25" height="25" viewBox="0 0 25 25" fill="none" xmlns="http://www.w3.org/2000/svg">
<path fill-rule="evenodd" clip-rule="evenodd" d="M6.292 3.80698C5.586 3.96098 4.947 4.60998 4.796 5.32498C4.763 5.48198 4.75 7.59498 4.75 12.68C4.75 19.466 4.754 19.828 4.826 20.089C4.922 20.434 5.061 20.672 5.319 20.934C5.582 21.202 5.834 21.359 6.161 21.46C6.417 21.539 6.572 21.542 11.247 21.542C15.525 21.542 16.094 21.534 16.295 21.476C16.882 21.304 17.389 20.831 17.629 20.229L17.729 19.979L17.74 12.794C17.748 8.03098 17.737 5.53198 17.709 5.37898C17.567 4.61098 16.897 3.93798 16.13 3.79298C15.789 3.72798 6.591 3.74198 6.292 3.80698ZM16.167 4.84898C16.371 4.95698 16.534 5.11698 16.639 5.31298L16.729 5.47898V19.813L16.639 19.979C16.5761 20.0886 16.4991 20.1894 16.41 20.279C16.118 20.559 16.45 20.542 11.241 20.541C6.76 20.54 6.512 20.536 6.353 20.464C6.14025 20.357 5.96309 20.1906 5.843 19.985C5.775 19.863 5.771 19.387 5.771 12.667C5.771 5.73398 5.774 5.47398 5.849 5.33298C5.994 5.05998 6.213 4.87698 6.5 4.78898C6.557 4.77098 8.723 4.75998 11.313 4.76398C15.819 4.77098 16.027 4.77398 16.167 4.84898ZM7.161 5.80798C7.02583 5.85816 6.90263 5.93603 6.79931 6.0366C6.69599 6.13717 6.61481 6.25822 6.561 6.39198C6.508 6.51898 6.5 7.25398 6.501 11.759C6.502 16.725 6.506 16.987 6.578 17.147C6.665 17.339 6.866 17.553 7.057 17.657C7.177 17.724 7.494 17.73 11.164 17.74C15.677 17.753 15.392 17.773 15.722 17.42C15.827 17.308 15.93 17.148 15.955 17.058C16.018 16.829 16.018 6.66998 15.954 6.43798C15.894 6.21798 15.542 5.87098 15.308 5.80098C15.051 5.72498 7.376 5.73098 7.161 5.80798ZM15 11.75V16.75H7.5V6.74998H15V11.75ZM10.021 18.29C9.93086 18.3281 9.85455 18.3929 9.80235 18.4757C9.75014 18.5584 9.72455 18.6552 9.729 18.753C9.729 18.928 9.749 18.976 9.865 19.093L10.002 19.229H12.493L12.602 19.127C12.671 19.0553 12.7233 18.9693 12.755 18.875C12.7822 18.773 12.7753 18.665 12.7354 18.5674C12.6955 18.4697 12.6248 18.3878 12.534 18.334C12.404 18.255 12.328 18.25 11.25 18.253C10.62 18.254 10.067 18.271 10.021 18.29Z" fill="black"/>
</svg>
