<svg width="25" height="25" viewBox="0 0 25 25" fill="none" xmlns="http://www.w3.org/2000/svg">
<path d="M15.0004 17.5477C16.5491 17.3643 18.0745 17.0237 19.553 16.5314C19.8887 16.4196 19.9928 15.9999 19.779 15.7179C18.6428 14.2195 18.0228 12.3844 18.0256 10.4905V9.7686C18.0256 8.23694 17.4172 6.76801 16.3341 5.68497C15.2511 4.60192 13.7821 3.99347 12.2505 3.99347C10.7188 3.99347 9.24989 4.60192 8.16684 5.68497C7.0838 6.76801 6.47535 8.23694 6.47535 9.7686V10.4905C6.47792 12.3846 5.85761 14.2197 4.72108 15.718C4.50728 15.9999 4.61129 16.4197 4.94695 16.5315C6.40554 17.0172 7.92874 17.3611 9.50055 17.5477M15.0004 17.5477C13.1735 17.7644 11.3274 17.7644 9.50055 17.5477H15.0004ZM15.0004 17.5477C15.1391 17.9807 15.1736 18.4403 15.1011 18.8892C15.0285 19.338 14.851 19.7634 14.583 20.1307C14.315 20.498 13.9641 20.7968 13.5587 21.0028C13.1534 21.2088 12.7052 21.3161 12.2505 21.3161C11.7958 21.3161 11.3476 21.2088 10.9422 21.0028C10.5369 20.7968 10.1859 20.498 9.91792 20.1307C9.64991 19.7634 9.47241 19.338 9.39989 18.8892C9.32736 18.4403 9.36185 17.9807 9.50055 17.5477" fill="black"/>
</svg>
