<svg width="25" height="24" viewBox="0 0 25 24" fill="none" xmlns="http://www.w3.org/2000/svg">
<path d="M19.06 9.43C18.62 9.08 18.16 9.07 17.95 9.1H17.29V4.62C17.29 4.21 16.95 3.87 16.54 3.87H7.20999C6.79999 3.87 6.45999 4.21 6.45999 4.62V9.1H5.89999C5.35999 9.1 4.89999 9.29 4.54999 9.66C3.87999 10.37 3.90999 11.48 3.91999 11.57V14.99C3.91999 15.4 4.25999 15.74 4.66999 15.74H6.45999V18.46C6.45999 18.87 6.79999 19.21 7.20999 19.21H16.54C16.95 19.21 17.29 18.87 17.29 18.46V15.74H19.08C19.49 15.74 19.83 15.4 19.83 14.99V11.57C19.83 10.57 19.57 9.84999 19.06 9.43999V9.43ZM7.95999 5.36H15.79V9.09H7.95999V5.36ZM15.79 14.98V17.7H7.95999V14.61H15.79V14.98Z" fill="black"/>
</svg>
