<svg width="25" height="24" viewBox="0 0 25 24" fill="none" xmlns="http://www.w3.org/2000/svg">
<path fill-rule="evenodd" clip-rule="evenodd" d="M7.93799 3.578C7.57799 3.743 7.49999 3.941 7.49999 4.685V5.247L6.02199 5.259L4.54299 5.271L4.40699 5.407L4.27099 5.543L4.25899 7.022L4.24699 8.5H20.253L20.241 7.022L20.229 5.543L20.093 5.407L19.957 5.271L18.478 5.259L17 5.247V4.674C17 4.163 16.99 4.081 16.906 3.915C16.846 3.79211 16.7527 3.68855 16.6367 3.6161C16.5207 3.54366 16.3867 3.50525 16.25 3.50525C16.1133 3.50525 15.9793 3.54366 15.8633 3.6161C15.7473 3.68855 15.654 3.79211 15.594 3.915C15.51 4.081 15.5 4.162 15.5 4.675V5.25H8.99999L8.99899 4.677C8.99799 3.92 8.91599 3.725 8.53099 3.564C8.43727 3.5223 8.33547 3.50192 8.23292 3.50434C8.13037 3.50676 8.02964 3.53192 7.93799 3.578ZM4.25899 13.906L4.27099 17.813L4.37999 18.132C4.55199 18.635 4.76899 18.985 5.14199 19.358C5.51499 19.731 5.86499 19.948 6.36799 20.12L6.68799 20.229H17.813L18.132 20.12C18.5975 19.9716 19.0188 19.7097 19.358 19.358C19.731 18.985 19.948 18.635 20.12 18.132L20.229 17.813L20.241 13.906L20.252 10H4.24799L4.25899 13.906ZM11.323 11.588C11.87 11.853 11.868 12.67 11.32 12.919C11.158 12.992 11.027 12.998 9.49799 12.999C7.87199 13 7.84899 12.999 7.66499 12.906C7.54211 12.846 7.43854 12.7527 7.3661 12.6367C7.29366 12.5207 7.25525 12.3867 7.25525 12.25C7.25525 12.1132 7.29366 11.9793 7.3661 11.8633C7.43854 11.7473 7.54211 11.654 7.66499 11.594C7.84899 11.501 7.87299 11.5 9.49599 11.5C11.087 11.5 11.146 11.503 11.323 11.588Z" fill="black"/>
</svg>
