<svg width="16" height="17" viewBox="0 0 16 17" fill="none" xmlns="http://www.w3.org/2000/svg">
<g clip-path="url(#clip0_420_492)">
<path d="M16 16.5V0.5C16 0.22 15.78 0 15.5 0H8.5C8.22 0 8 0.22 8 0.5V3.22C8 3.5 7.78 3.72 7.5 3.72H0.5C0.22 3.72 0 3.94 0 4.22V16.5C0 16.78 0.22 17 0.5 17H15.5C15.78 17 16 16.78 16 16.5ZM6.5 13.5C6.5 13.78 6.28 14 6 14H5C4.72 14 4.5 13.78 4.5 13.5V13C4.5 12.72 4.72 12.5 5 12.5H6C6.28 12.5 6.5 12.72 6.5 13V13.5ZM6.5 10.5C6.5 10.78 6.28 11 6 11H5C4.72 11 4.5 10.78 4.5 10.5V10C4.5 9.72 4.72 9.5 5 9.5H6C6.28 9.5 6.5 9.72 6.5 10V10.5ZM6.5 7.5C6.5 7.78 6.28 8 6 8H5C4.72 8 4.5 7.78 4.5 7.5V7C4.5 6.72 4.72 6.5 5 6.5H6C6.28 6.5 6.5 6.72 6.5 7V7.5ZM11.5 13.5C11.5 13.78 11.28 14 11 14H10C9.72 14 9.5 13.78 9.5 13.5V13C9.5 12.72 9.72 12.5 10 12.5H11C11.28 12.5 11.5 12.72 11.5 13V13.5ZM11.5 10.5C11.5 10.78 11.28 11 11 11H10C9.72 11 9.5 10.78 9.5 10.5V10C9.5 9.72 9.72 9.5 10 9.5H11C11.28 9.5 11.5 9.72 11.5 10V10.5ZM11.5 7.5C11.5 7.78 11.28 8 11 8H10C9.72 8 9.5 7.78 9.5 7.5V7C9.5 6.72 9.72 6.5 10 6.5H11C11.28 6.5 11.5 6.72 11.5 7V7.5Z" fill="black"/>
</g>
<defs>
<clipPath id="clip0_420_492">
<rect width="16" height="17" fill="white"/>
</clipPath>
</defs>
</svg>
