<svg width="25" height="25" viewBox="0 0 25 25" fill="none" xmlns="http://www.w3.org/2000/svg">
<path d="M20.25 12.15C20.25 11.83 20.23 11.52 20.19 11.22C20.18 11.12 20.16 11.03 20.15 10.94C20.12 10.73 20.08 10.52 20.03 10.31C20.01 10.21 19.98 10.11 19.95 10C19.89 9.80001 19.83 9.60001 19.76 9.40001C19.73 9.31001 19.7 9.23002 19.67 9.14002C19.56 8.86002 19.44 8.60001 19.3 8.34001C19.74 7.47001 19.92 6.74001 19.9 6.50001C20.03 5.75001 19.77 5.50002 18.93 5.51002C18.59 5.51002 17.91 5.68001 17.23 5.88001C16.76 5.51001 16.25 5.19001 15.71 4.93001C15.64 4.90001 15.58 4.86001 15.51 4.83001C15.38 4.77001 15.25 4.72001 15.12 4.67001C15.02 4.63001 14.92 4.59001 14.82 4.56001C14.7 4.52001 14.58 4.48001 14.46 4.45001C14.34 4.41001 14.21 4.38001 14.08 4.35001C13.97 4.32001 13.86 4.30001 13.76 4.28001C13.61 4.25001 13.45 4.23001 13.29 4.21001C13.2 4.20001 13.11 4.18001 13.03 4.18001C12.78 4.16001 12.53 4.14001 12.27 4.14001C7.84999 4.14001 4.26999 7.72001 4.26999 12.14C4.26999 12.26 4.26999 12.37 4.26999 12.48C4.26999 12.48 4.26999 12.48 4.27999 12.48C4.45999 16.74 7.95999 20.13 12.26 20.13C16.56 20.13 19.84 16.95 20.22 12.89C20.26 12.57 20.26 12.3 20.26 12.13L20.25 12.15ZM12.25 19.15C8.53999 19.15 5.50999 16.26 5.26999 12.6C7.73999 12.83 14.07 13.24 16.5 11.61C16.5 11.61 18.09 12.61 19.19 12.99C18.77 16.45 15.82 19.14 12.25 19.14V19.15Z" fill="black"/>
<path d="M8.84 13.89C8.84 13.62 9.06 13.41 9.32 13.41C9.58 13.41 9.8 13.63 9.8 13.89V14.42C9.8 14.69 9.58 14.9 9.32 14.9C9.06 14.9 8.84 14.68 8.84 14.42V13.89Z" fill="black"/>
<path d="M14.69 13.89C14.69 13.62 14.91 13.41 15.17 13.41C15.43 13.41 15.65 13.63 15.65 13.89V14.42C15.65 14.69 15.43 14.9 15.17 14.9C14.91 14.9 14.69 14.68 14.69 14.42V13.89Z" fill="black"/>
<path fill-rule="evenodd" clip-rule="evenodd" d="M13.16 14.98C12.94 15.14 12.61 15.31 12.19 15.31C11.77 15.31 11.44 15.14 11.22 14.98C11.11 14.9 11.03 14.82 10.97 14.76C10.94 14.73 10.92 14.7 10.9 14.68L10.88 14.66V14.65C10.88 14.65 10.88 14.65 11.19 14.42L10.88 14.65C10.75 14.47 10.78 14.22 10.96 14.09C11.14 13.96 11.38 13.99 11.52 14.17C11.52 14.17 11.54 14.2 11.55 14.21C11.58 14.24 11.63 14.29 11.69 14.34C11.82 14.43 11.99 14.51 12.19 14.51C12.39 14.51 12.56 14.43 12.69 14.34C12.75 14.29 12.8 14.25 12.83 14.21C12.85 14.19 12.86 14.18 12.86 14.17C12.99 13.99 13.24 13.95 13.42 14.09C13.6 14.22 13.63 14.47 13.5 14.65L13.18 14.41C13.3933 14.57 13.5 14.65 13.5 14.65C13.5 14.65 13.49 14.67 13.48 14.68C13.46 14.7 13.44 14.73 13.41 14.76C13.35 14.82 13.27 14.9 13.16 14.98Z" fill="black"/>
</svg>
