<svg width="25" height="25" viewBox="0 0 25 25" fill="none" xmlns="http://www.w3.org/2000/svg">
<mask id="mask0_420_534" style="mask-type:luminance" maskUnits="userSpaceOnUse" x="0" y="0" width="25" height="25">
<path d="M24.25 0.154785H0.25V24.1548H24.25V0.154785Z" fill="white"/>
</mask>
<g mask="url(#mask0_420_534)">
<path d="M12.27 11.7448L5.05 5.79478C4.73 5.53478 4.25 5.75478 4.25 6.17478V18.0648C4.25 18.4748 4.73 18.7048 5.05 18.4448L12.27 12.4948C12.51 12.2948 12.51 11.9348 12.27 11.7448Z" fill="black"/>
<path fill-rule="evenodd" clip-rule="evenodd" d="M15.43 5.55481C15.8442 5.55481 16.18 5.8906 16.18 6.30481V17.9448C16.18 18.359 15.8442 18.6948 15.43 18.6948C15.0158 18.6948 14.68 18.359 14.68 17.9448V6.30481C14.68 5.8906 15.0158 5.55481 15.43 5.55481Z" fill="black"/>
<path fill-rule="evenodd" clip-rule="evenodd" d="M19.33 5.55481C19.7442 5.55481 20.08 5.8906 20.08 6.30481V17.9448C20.08 18.359 19.7442 18.6948 19.33 18.6948C18.9158 18.6948 18.58 18.359 18.58 17.9448V6.30481C18.58 5.8906 18.9158 5.55481 19.33 5.55481Z" fill="black"/>
</g>
</svg>
