<svg width="25" height="25" viewBox="0 0 25 25" fill="none" xmlns="http://www.w3.org/2000/svg">
<path fill-rule="evenodd" clip-rule="evenodd" d="M20.25 12.1548C20.25 16.5731 16.6683 20.1548 12.25 20.1548C7.83172 20.1548 4.25 16.5731 4.25 12.1548C4.25 7.73651 7.83172 4.15479 12.25 4.15479C16.6683 4.15479 20.25 7.73651 20.25 12.1548ZM13.0264 6.70757C13.2734 6.58408 13.5737 6.68419 13.6972 6.93118C14.2626 8.06202 14.1226 9.52751 12.9736 10.102C12.4279 10.3749 11.9249 10.3296 11.5302 10.1226C11.1634 9.93012 10.9219 9.61662 10.8028 9.37839C10.6793 9.1314 10.7794 8.83107 11.0264 8.70757C11.2734 8.58408 11.5737 8.68419 11.6972 8.93118C11.7448 9.02628 11.8533 9.16278 11.9948 9.23701C12.1085 9.29665 12.2721 9.33469 12.5264 9.20757C12.9774 8.98206 13.2374 8.24755 12.8028 7.37839C12.6793 7.1314 12.7794 6.83107 13.0264 6.70757ZM10.75 12.9048C10.75 13.319 10.4142 13.6548 10 13.6548C9.58579 13.6548 9.25 13.319 9.25 12.9048C9.25 12.4906 9.58579 12.1548 10 12.1548C10.4142 12.1548 10.75 12.4906 10.75 12.9048ZM12.2516 17.6548C10.8322 17.6548 9.63844 16.732 9.26062 15.4726C9.25006 15.4351 9.24839 15.3957 9.25576 15.3575C9.26313 15.3192 9.27932 15.2832 9.30306 15.2524C9.32679 15.2215 9.35741 15.1966 9.39247 15.1797C9.42753 15.1627 9.46606 15.1542 9.505 15.1548H14.9953C15.0342 15.1542 15.0728 15.1627 15.1078 15.1797C15.1429 15.1966 15.1735 15.2215 15.1973 15.2524C15.221 15.2832 15.2372 15.3192 15.2446 15.3575C15.2519 15.3957 15.2503 15.4351 15.2397 15.4726C14.865 16.732 13.6709 17.6548 12.2516 17.6548ZM15.25 12.9048C15.25 13.319 14.9142 13.6548 14.5 13.6548C14.0858 13.6548 13.75 13.319 13.75 12.9048C13.75 12.4906 14.0858 12.1548 14.5 12.1548C14.9142 12.1548 15.25 12.4906 15.25 12.9048Z" fill="black"/>
</svg>
