<svg width="25" height="25" viewBox="0 0 25 25" fill="none" xmlns="http://www.w3.org/2000/svg">
<path d="M19 8.2H18.01C17.52 5.55 15.18 3.5 12.3 3.5C9.41999 3.5 7.11999 5.53 6.60999 8.2H5.79999C4.99999 8.2 4.29999 8.9 4.29999 9.7V12.7C4.29999 13.5 4.99999 14.2 5.79999 14.2H7.49999V9.4C7.49999 6.7 9.69999 4.6 12.3 4.6C14.9 4.6 17.1 6.8 17.1 9.4V14.2C17.1 16.3 15.76 18.03 13.94 18.69C13.73 18.41 13.4 18.2 13 18.2H12.5C11.8 18.2 11.2 18.8 11.3 19.4C11.3 20 11.8 20.6 12.5 20.6H13C13.51 20.6 13.99 20.23 14.14 19.7C16.44 18.93 18.1 16.76 18.1 14.2H19C19.8 14.2 20.5 13.5 20.5 12.7V9.7C20.5 8.9 19.8 8.2 19 8.2Z" fill="black"/>
</svg>
