<svg width="25" height="25" viewBox="0 0 25 25" fill="none" xmlns="http://www.w3.org/2000/svg">
<path d="M19.033 17.9438C19.5455 17.8377 19.8506 17.301 19.5936 16.845C19.036 15.8554 18.1606 14.9858 17.0419 14.3225C15.5955 13.4649 13.8232 13 12 13C10.1768 13 8.40455 13.4649 6.95811 14.3225C5.83944 14.9858 4.964 15.8554 4.4064 16.845C4.14944 17.301 4.45447 17.8377 4.96703 17.9438C9.60647 18.9044 14.3935 18.9044 19.033 17.9438Z" fill="black"/>
<path d="M12 12C14.2091 12 16 10.2091 16 8C16 5.79086 14.2091 4 12 4C9.79086 4 8 5.79086 8 8C8 10.2091 9.79086 12 12 12Z" fill="black"/>
</svg>
