<svg width="25" height="24" viewBox="0 0 25 24" fill="none" xmlns="http://www.w3.org/2000/svg">
<path fill-rule="evenodd" clip-rule="evenodd" d="M12.063 5.08202C11.0759 5.15894 10.1133 5.42762 9.229 5.87302C5.832 7.53902 4.21 11.303 5.381 14.803C6.093 16.932 7.845 18.694 10.021 19.471C10.966 19.808 11.719 19.937 12.75 19.937C13.532 19.937 13.985 19.886 14.646 19.723C18.098 18.87 20.498 15.909 20.498 12.5C20.498 8.86002 17.738 5.73902 14 5.15102C13.3579 5.06729 12.7094 5.04418 12.063 5.08202ZM13.354 6.58502C13.938 6.64102 14.341 6.72302 14.813 6.88302C16.432 7.43302 17.752 8.58902 18.439 10.059C18.835 10.907 18.971 11.53 18.971 12.5C18.971 13.47 18.835 14.093 18.439 14.941C16.854 18.332 12.365 19.516 9.185 17.382C8.26821 16.7766 7.53386 15.9327 7.061 14.941C6.665 14.093 6.529 13.47 6.529 12.5C6.529 11.53 6.665 10.907 7.061 10.059C8.148 7.73402 10.688 6.33202 13.354 6.58502ZM9.415 11.844C9.29212 11.904 9.18855 11.9973 9.11611 12.1133C9.04367 12.2293 9.00526 12.3633 9.00526 12.5C9.00526 12.6368 9.04367 12.7708 9.11611 12.8867C9.18855 13.0027 9.29212 13.096 9.415 13.156L9.601 13.25H15.899L16.085 13.156C16.2079 13.096 16.3115 13.0027 16.3839 12.8867C16.4563 12.7708 16.4947 12.6368 16.4947 12.5C16.4947 12.3633 16.4563 12.2293 16.3839 12.1133C16.3115 11.9973 16.2079 11.904 16.085 11.844L15.899 11.75H9.601L9.415 11.844Z" fill="black"/>
</svg>
