<svg width="25" height="25" viewBox="0 0 25 25" fill="none" xmlns="http://www.w3.org/2000/svg">
<path d="M20.1 8.9L16.3 5.1C16 4.8 15.6 4.7 15.2 4.7H9.8C9.4 4.7 9 4.9 8.7 5.1L4.9 8.9C4.6 9.2 4.5 9.6 4.5 10V15.4C4.5 15.8 4.7 16.2 4.9 16.5L8.7 20.3C9 20.6 9.4 20.7 9.8 20.7H15.2C15.6 20.7 16 20.5 16.3 20.3L20.1 16.5C20.4 16.2 20.5 15.8 20.5 15.4V10C20.5 9.6 20.3 9.2 20.1 8.9ZM9.7 11.1C9.7 10.4 10.2 9.9 10.9 9.9C11.6 9.9 12.1 10.4 12.1 11.1C12.1 11.8 11.6 12.3 10.9 12.3C10.2 12.3 9.7 11.8 9.7 11.1ZM10.1 15C9.9 14.8 9.9 14.5 10.1 14.3L14.1 10.3C14.3 10.1 14.6 10.1 14.8 10.3C15 10.5 15 10.8 14.8 11L10.8 15C10.6 15.2 10.3 15.2 10.1 15ZM14.1 15.5C13.4 15.5 12.9 15 12.9 14.3C12.9 13.6 13.4 13.1 14.1 13.1C14.8 13.1 15.3 13.6 15.3 14.3C15.3 15 14.8 15.5 14.1 15.5Z" fill="black"/>
<path d="M10.9 11.5C11.2 11.5 11.4 11.3 11.4 11C11.4 10.7 11.2 10.5 10.9 10.5C10.6 10.5 10.4 10.7 10.4 11C10.4 11.3 10.6 11.5 10.9 11.5Z" fill="black"/>
<path d="M14.1 13.8C13.8 13.8 13.6 14 13.6 14.3C13.6 14.6 13.8 14.8 14.1 14.8C14.4 14.8 14.6 14.6 14.6 14.3C14.6 14 14.4 13.8 14.1 13.8Z" fill="black"/>
</svg>
