<svg width="25" height="25" viewBox="0 0 25 25" fill="none" xmlns="http://www.w3.org/2000/svg">
<path d="M12.8 10.7H12.6L9.70001 9.10001V10.2C9.80001 10.3 9.70001 10.5 9.70001 10.6C9.70001 10.7 9.50001 10.8 9.30001 10.8H4.70001C4.70001 11.3 4.60001 11.8 4.60001 12.3C4.60001 16.7 8.20001 20.3 12.6 20.3C17 20.3 20.6 16.7 20.6 12.3C20.6 7.90001 20.6 11.3 20.5 10.8H12.9L12.8 10.7ZM10.3 12.2C10.7 12.2 11.1 12.5 11.1 13C11.1 13.5 10.8 13.8 10.3 13.8C9.80001 13.8 9.50001 13.5 9.50001 13C9.50001 12.5 9.80001 12.2 10.3 12.2ZM15.5 15.5C15.1 16.8 13.9 17.7 12.5 17.7C11.1 17.7 9.90001 16.8 9.50001 15.5C9.50001 15.5 9.50001 15.5 9.50001 15.4C9.50001 15.4 9.50001 15.4 9.50001 15.3C9.50001 15.3 9.50001 15.3 9.60001 15.3H15.1C15.1 15.3 15.1 15.3 15.2 15.3C15.2 15.3 15.2 15.3 15.2 15.4C15.2 15.4 15.2 15.4 15.2 15.5H15.5ZM14.8 13.7C14.4 13.7 14 13.4 14 12.9C14 12.4 14.3 12.1 14.8 12.1C15.3 12.1 15.6 12.4 15.6 12.9C15.6 13.4 15.3 13.7 14.8 13.7Z" fill="black"/>
<path d="M8.59999 8.20001C8.59999 8.00001 8.59999 7.80001 8.79999 7.70001C8.99999 7.60001 9.09999 7.60001 9.29999 7.70001L12.9 9.60001H20.1C19.1 6.40001 16 4.10001 12.5 4.10001C8.99999 4.10001 5.89999 6.40001 4.89999 9.60001H8.69999V8.10001L8.59999 8.20001Z" fill="black"/>
</svg>
