<svg width="25" height="25" viewBox="0 0 25 25" fill="none" xmlns="http://www.w3.org/2000/svg">
<path fill-rule="evenodd" clip-rule="evenodd" d="M14.3194 14.4254C14.327 14.7668 14.385 15.0841 14.4806 15.3798C14.9733 16.9388 16.4917 17.871 17.2432 18.1267C17.3492 18.1641 17.5238 18.1641 17.6298 18.1267C17.9935 18.003 18.5369 17.7207 19.0567 17.2856C19.2333 17.5154 19.3915 17.7539 19.5301 17.9998C19.7871 18.4558 19.482 18.9924 18.9695 19.0986C14.33 20.0592 9.54297 20.0592 4.90352 19.0986C4.39096 18.9924 4.08593 18.4558 4.34289 17.9998C4.9005 17.0102 5.77593 16.1406 6.8946 15.4773C8.34104 14.6197 10.1133 14.1548 11.9365 14.1548C12.749 14.1548 13.5514 14.2471 14.3194 14.4254Z" fill="black"/>
<path d="M17.4365 13.7123C17.184 13.3748 16.779 13.1548 16.3265 13.1548C15.559 13.1548 14.9365 13.7798 14.9365 14.5523C14.9365 14.8498 14.984 15.1248 15.0665 15.3798C15.4615 16.6298 16.679 17.3773 17.2815 17.5823C17.3665 17.6123 17.5065 17.6123 17.5915 17.5823C18.194 17.3773 19.4115 16.6298 19.8065 15.3798C19.889 15.1248 19.9365 14.8498 19.9365 14.5523C19.9365 13.7798 19.314 13.1548 18.5465 13.1548C18.094 13.1548 17.689 13.3748 17.4365 13.7123Z" fill="black"/>
<path d="M15.9365 9.15479C15.9365 11.3639 14.1456 13.1548 11.9365 13.1548C9.72735 13.1548 7.93649 11.3639 7.93649 9.15479C7.93649 6.94565 9.72735 5.15479 11.9365 5.15479C14.1456 5.15479 15.9365 6.94565 15.9365 9.15479Z" fill="black"/>
</svg>
