<svg width="25" height="25" viewBox="0 0 25 25" fill="none" xmlns="http://www.w3.org/2000/svg">
<path fill-rule="evenodd" clip-rule="evenodd" d="M5.902 5.04299C5.463 5.11799 4.911 5.51898 4.713 5.90798C4.488 6.34898 4.498 5.99998 4.51 12.835L4.521 19.146L4.615 19.38C4.796 19.826 5.174 20.204 5.62 20.385L5.854 20.479H18.646L18.88 20.385C19.3344 20.1956 19.6956 19.8344 19.885 19.38L19.979 19.146V6.35398L19.884 6.11798C19.704 5.67298 19.302 5.28398 18.824 5.09198C18.659 5.02598 18.194 5.01998 12.375 5.01498C8.926 5.01198 6.013 5.02399 5.902 5.04299ZM15.483 8.23098C15.608 8.30798 15.734 8.43499 15.811 8.55999C15.921 8.73799 15.937 8.80198 15.936 9.05898C15.935 9.27898 15.912 9.39698 15.845 9.52498C15.638 9.91698 15.182 10.137 14.767 10.044C13.844 9.83798 13.677 8.60999 14.514 8.18699C14.816 8.03399 15.192 8.05098 15.483 8.23098ZM10.342 11.671C10.813 11.77 10.96 11.887 12.483 13.388L13.92 14.804L14.596 14.137C15.407 13.336 15.52 13.274 16.168 13.272C16.536 13.271 16.585 13.281 16.855 13.413C17.112 13.538 17.253 13.664 18.072 14.496L18.997 15.438L18.999 17.158C19 18.613 18.99 18.901 18.936 19.031C18.9065 19.1196 18.8577 19.2006 18.7932 19.2682C18.7288 19.3358 18.6501 19.3883 18.563 19.422C18.403 19.495 18.125 19.498 12.259 19.499C6.829 19.5 6.105 19.493 5.969 19.436C5.88037 19.4065 5.79937 19.3577 5.73177 19.2932C5.66418 19.2287 5.61167 19.1501 5.578 19.063C5.508 18.909 5.502 18.755 5.501 17.162L5.5 15.429L7.261 13.683C9.102 11.859 9.175 11.798 9.646 11.683C9.916 11.617 10.071 11.615 10.342 11.671Z" fill="black"/>
</svg>
