<svg width="25" height="25" viewBox="0 0 25 25" fill="none" xmlns="http://www.w3.org/2000/svg">
<mask id="mask0_420_452" style="mask-type:luminance" maskUnits="userSpaceOnUse" x="4" y="5" width="17" height="15">
<path d="M20.25 5.74567H4.25V19.5639H20.25V5.74567Z" fill="white"/>
</mask>
<g mask="url(#mask0_420_452)">
<path d="M19.8864 7.92748H15.8864L14.4318 5.74567H10.0682L8.61364 7.92748H4.61364C4.41 7.92748 4.25 8.08748 4.25 8.29112V19.2002C4.25 19.4038 4.41 19.5638 4.61364 19.5638H19.8864C20.09 19.5638 20.25 19.4038 20.25 19.2002V8.29112C20.25 8.08748 20.09 7.92748 19.8864 7.92748ZM12.2427 16.0293C10.73 16.0293 9.50091 14.8002 9.50091 13.2875C9.50091 11.7748 10.73 10.5457 12.2427 10.5457C13.7555 10.5457 14.9845 11.7748 14.9845 13.2875C14.9845 14.8002 13.7555 16.0293 12.2427 16.0293Z" fill="black"/>
</g>
</svg>
