<svg width="25" height="25" viewBox="0 0 25 25" fill="none" xmlns="http://www.w3.org/2000/svg">
<path d="M18.8 6.30002H16.5C16.1 4.30002 14.4 2.90002 12.3 2.90002C10.2 2.90002 8.49999 4.40002 8.09999 6.30002H5.79999C4.99999 6.30002 4.29999 7.00002 4.29999 7.80002V19.9C4.29999 20.7 4.99999 21.4 5.79999 21.4H18.8C19.6 21.4 20.3 20.7 20.3 19.9V7.80002C20.3 7.00002 19.6 6.30002 18.8 6.30002ZM9.59999 6.30002C9.99999 5.20002 11 4.40002 12.2 4.40002H12.3C13.5 4.40002 14.6 5.20002 14.9 6.30002H9.59999Z" fill="black"/>
</svg>
