<svg width="25" height="24" viewBox="0 0 25 24" fill="none" xmlns="http://www.w3.org/2000/svg">
<path fill-rule="evenodd" clip-rule="evenodd" d="M13.819 4.14402C13.6748 4.19026 13.5495 4.28202 13.4619 4.40553C13.3742 4.52904 13.329 4.67763 13.333 4.82902C13.333 5.11002 13.485 5.37202 13.729 5.51402C13.788 5.54802 14.36 5.56902 15.641 5.58302L17.469 5.60402L13.651 9.26402C11.55 11.277 9.804 12.978 9.77 13.043C9.691 13.196 9.691 13.553 9.769 13.704C9.81729 13.8003 9.88578 13.8851 9.96979 13.9526C10.0538 14.0201 10.1514 14.0687 10.2559 14.0951C10.3603 14.1215 10.4693 14.125 10.5753 14.1055C10.6812 14.086 10.7818 14.0439 10.87 13.982C10.953 13.924 12.718 12.247 14.792 10.256L18.563 6.63402L18.584 8.14002C18.595 8.96802 18.622 9.68302 18.643 9.72902C18.907 10.316 19.673 10.378 19.99 9.84002L20.104 9.64602V7.18802C20.104 5.83502 20.09 4.67802 20.072 4.61502C20.028 4.45802 19.799 4.20702 19.637 4.14002C19.438 4.05602 14.054 4.06002 13.819 4.14402ZM6.215 5.12902C5.83747 5.21268 5.47675 5.35941 5.148 5.56302C4.674 5.87702 4.322 6.38402 4.213 6.90802C4.181 7.06302 4.167 8.67601 4.167 12.264C4.167 17.942 4.151 17.591 4.438 18.201C4.626 18.6 5.012 18.993 5.386 19.168C5.929 19.422 5.79 19.417 11.539 19.417C16.64 19.417 16.787 19.414 17.108 19.333C18.101 19.082 18.839 18.375 18.999 17.521C19.031 17.35 19.042 16.583 19.033 15.101L19.021 12.931L18.904 12.778C18.582 12.356 17.968 12.381 17.662 12.828L17.563 12.973L17.542 15.143C17.527 16.683 17.507 17.337 17.472 17.396C17.387 17.543 17.193 17.701 16.979 17.8L16.771 17.896L11.565 17.907C6.884 17.917 6.338 17.911 6.158 17.851C5.93 17.775 5.783 17.612 5.713 17.354C5.652 17.134 5.648 7.38002 5.708 7.16402C5.76 6.97802 5.92 6.82402 6.188 6.70002C6.395 6.60502 6.405 6.60402 8.667 6.58302L10.938 6.56302L11.07 6.46802C11.1554 6.40913 11.2277 6.33313 11.2822 6.24484C11.3367 6.15656 11.3723 6.0579 11.3867 5.95514C11.4011 5.85238 11.394 5.74775 11.3658 5.64788C11.3376 5.54802 11.289 5.4551 11.223 5.37502C10.986 5.09402 11.087 5.10502 8.646 5.09802C7.431 5.09402 6.337 5.10802 6.215 5.12902Z" fill="black"/>
</svg>
