<svg width="25" height="24" viewBox="0 0 25 24" fill="none" xmlns="http://www.w3.org/2000/svg">
<path fill-rule="evenodd" clip-rule="evenodd" d="M11.8 3.58398C11.349 3.70298 11.02 3.89298 10.688 4.22898C10.423 4.49598 10.184 4.87498 8.16701 8.22698C6.94101 10.264 5.87501 12.051 5.79901 12.199C5.55901 12.665 5.50001 12.993 5.50101 13.85C5.50101 14.339 5.52201 14.702 5.56001 14.882C5.68601 15.474 6.01101 15.91 6.50001 16.142C6.74401 16.258 6.81101 16.271 7.16701 16.271C7.66801 16.271 7.82901 16.217 8.69601 15.759C9.42501 15.375 9.77301 15.12 10.034 14.78C10.125 14.66 11.228 12.856 12.485 10.771C15.012 6.57898 14.997 6.60598 14.999 5.95698C15.0066 5.39448 14.8197 4.84661 14.47 4.40598C14.176 4.04098 13.617 3.68698 13.137 3.56198C12.804 3.47498 12.176 3.48598 11.8 3.58398ZM13.061 4.58598C13.364 4.69998 13.715 5.02098 13.853 5.31298C13.986 5.59398 14.028 5.96098 13.96 6.24498C13.917 6.42098 13.578 7.05598 13.461 7.17898C13.437 7.20398 10.923 5.85398 10.842 5.77298C10.809 5.73898 11.303 4.99898 11.438 4.87998C11.737 4.61798 12.052 4.50698 12.509 4.50298C12.737 4.50098 12.897 4.52498 13.061 4.58598ZM11.625 7.35498C12.324 7.73998 12.904 8.06098 12.913 8.06898C12.93 8.08298 9.79401 13.315 9.38901 13.947C9.11901 14.37 8.90701 14.532 8.07001 14.958C7.50101 15.248 7.43801 15.271 7.19701 15.271C6.88401 15.271 6.75201 15.191 6.61701 14.917C6.53401 14.749 6.52201 14.651 6.50701 13.976C6.49301 13.352 6.50201 13.179 6.56101 12.976C6.61301 12.799 7.15001 11.87 8.46901 9.67898C9.47901 8.00098 10.316 6.63498 10.33 6.64198L11.625 7.35498ZM4.06301 19.04C3.97269 19.0778 3.89622 19.1426 3.84398 19.2254C3.79174 19.3083 3.76626 19.4052 3.77101 19.503C3.77101 19.678 3.79001 19.726 3.90701 19.843L4.04301 19.979H20.457L20.593 19.843C20.71 19.726 20.729 19.678 20.729 19.5C20.729 19.322 20.71 19.274 20.593 19.157L20.457 19.021L12.301 19.013C7.81601 19.009 4.10801 19.021 4.06301 19.04Z" fill="black"/>
</svg>
