<svg width="25" height="25" viewBox="0 0 25 25" fill="none" xmlns="http://www.w3.org/2000/svg">
<path fill-rule="evenodd" clip-rule="evenodd" d="M14.708 6.30899C14.0708 6.41374 13.4656 6.66162 12.938 7.03399C12.597 7.27599 11.441 8.32699 11.297 8.52499C11.082 8.82299 11.165 9.28399 11.477 9.52199C11.5829 9.59495 11.7048 9.64131 11.8324 9.65715C11.96 9.67299 12.0895 9.65784 12.21 9.61299C12.289 9.57899 12.664 9.26599 13.042 8.91899C13.42 8.57099 13.832 8.22399 13.959 8.14599C14.794 7.63599 15.981 7.63099 16.827 8.13499C17.188 8.34999 17.595 8.78199 17.768 9.13399C17.9437 9.49549 18.0166 9.89832 17.9789 10.2985C17.9412 10.6986 17.7942 11.0807 17.554 11.403C17.348 11.676 15.117 13.709 14.858 13.86C14.723 13.94 14.47 14.054 14.296 14.115C14.021 14.21 13.91 14.225 13.458 14.227C12.993 14.229 12.898 14.216 12.571 14.109C12.1289 13.9673 11.7303 13.7149 11.413 13.376C11.196 13.155 11.098 13.086 10.945 13.048C10.581 12.956 10.244 13.106 10.087 13.43C9.881 13.856 10.068 14.252 10.73 14.789C12.175 15.961 14.263 16.063 15.792 15.036C16.231 14.741 18.449 12.697 18.718 12.34C19.28 11.592 19.54 10.764 19.488 9.88399C19.389 8.18099 18.076 6.72299 16.313 6.35399C15.862 6.25999 15.1 6.23899 14.708 6.30899ZM11.542 10.276C10.8847 10.3736 10.2559 10.6109 9.698 10.972C9.245 11.275 7.044 13.312 6.758 13.692C5.627 15.199 5.786 17.234 7.137 18.554C7.66454 19.0682 8.31863 19.4339 9.033 19.614C9.389 19.71 9.518 19.723 10.104 19.723C10.697 19.723 10.816 19.711 11.175 19.612C11.6706 19.4775 12.1399 19.2601 12.563 18.969C12.723 18.855 13.152 18.483 13.516 18.144C14.251 17.459 14.364 17.295 14.315 16.984C14.2983 16.8703 14.2561 16.7619 14.1914 16.6668C14.1268 16.5718 14.0415 16.4927 13.9418 16.4354C13.8422 16.3782 13.7309 16.3442 13.6162 16.3362C13.5016 16.3281 13.3866 16.3462 13.28 16.389C13.206 16.42 12.845 16.723 12.479 17.063C11.705 17.779 11.444 17.961 10.982 18.108C9.093 18.709 7.205 17.275 7.543 15.495C7.594 15.222 7.788 14.798 7.961 14.58C8.112 14.39 10.091 12.548 10.396 12.314C10.697 12.083 11.141 11.884 11.515 11.812C12.489 11.626 13.386 11.91 14.091 12.628C14.297 12.838 14.416 12.924 14.546 12.959C14.7127 13.0056 14.8905 12.9925 15.0486 12.9221C15.2067 12.8516 15.3352 12.7281 15.412 12.573C15.595 12.195 15.502 11.92 15.038 11.46C14.279 10.709 13.319 10.306 12.208 10.273C11.9861 10.2635 11.7638 10.2645 11.542 10.276Z" fill="black"/>
</svg>
