<svg width="25" height="24" viewBox="0 0 25 24" fill="none" xmlns="http://www.w3.org/2000/svg">
<path d="M13.35 4.95477C13.6262 4.95477 13.85 5.17863 13.85 5.45477V18.8548C13.85 19.1309 13.6261 19.3548 13.35 19.3548H5.05C4.60818 19.3548 4.25 18.9966 4.25 18.5548V14.6548C4.25 14.3787 4.47733 14.1612 4.74494 14.0931C5.61012 13.8728 6.25 13.0885 6.25 12.1548C6.25 11.2211 5.61012 10.4367 4.74494 10.2165C4.47733 10.1484 4.25 9.93091 4.25 9.65477V5.75477C4.25 5.31295 4.60818 4.95477 5.05 4.95477H13.35ZM15.45 5.45477C15.45 5.17863 15.6739 4.95477 15.95 4.95477H19.45C19.8918 4.95477 20.25 5.31295 20.25 5.75477V9.65477C20.25 9.93091 20.0227 10.1484 19.7551 10.2165C18.8899 10.4368 18.25 11.2211 18.25 12.1548C18.25 13.0885 18.8899 13.8728 19.7551 14.0931C20.0227 14.1612 20.25 14.3787 20.25 14.6548V18.5548C20.25 18.9966 19.8918 19.3548 19.45 19.3548H15.95C15.6739 19.3548 15.45 19.1309 15.45 18.8548V5.45477Z" fill="black"/>
</svg>
