<svg width="25" height="25" viewBox="0 0 25 25" fill="none" xmlns="http://www.w3.org/2000/svg">
<path d="M20.1616 17.8482L12.748 6.88744C12.5365 6.57723 12.0817 6.57723 11.8702 6.88744L4.34022 17.8482C4.10755 18.1895 4.3508 18.6548 4.77383 18.6548H19.7174C20.1404 18.6548 20.3943 18.1998 20.1616 17.8482ZM12.2509 16.7418C11.8173 16.7418 11.4577 16.3902 11.4577 15.9663C11.4577 15.5423 11.8173 15.1908 12.2509 15.1908C12.6845 15.1908 13.0441 15.5423 13.0441 15.9663C13.0441 16.3902 12.6845 16.7418 12.2509 16.7418ZM13.0441 14.0016C13.0441 14.4256 12.6845 14.7771 12.2509 14.7771C11.8173 14.7771 11.4577 14.4256 11.4577 14.0016V11.4165C11.4577 10.9926 11.8173 10.641 12.2509 10.641C12.6845 10.641 13.0441 10.9926 13.0441 11.4165V14.0016Z" fill="black"/>
</svg>
