<svg width="25" height="25" viewBox="0 0 25 25" fill="none" xmlns="http://www.w3.org/2000/svg">
<path fill-rule="evenodd" clip-rule="evenodd" d="M18.25 6.90479H6.25C5.59752 6.90479 5.03886 7.327 4.83375 7.91171C4.89341 7.92183 4.95223 7.94303 5.00725 7.97604L12.25 12.3217L19.4928 7.97604C19.5478 7.94303 19.6066 7.92183 19.6663 7.91171C19.4611 7.327 18.9025 6.90479 18.25 6.90479ZM19.75 8.98788L12.5072 13.3335C12.3489 13.4285 12.1511 13.4285 11.9928 13.3335L4.75 8.98788V17.4048C4.75 18.2298 5.425 18.9048 6.25 18.9048H18.25C19.075 18.9048 19.75 18.2298 19.75 17.4048V8.98788Z" fill="black"/>
</svg>
