<svg width="25" height="24" viewBox="0 0 25 24" fill="none" xmlns="http://www.w3.org/2000/svg">
<path d="M14.0232 13.1038C13.7499 11.4555 12.3766 10.165 10.6432 9.93496C12.5099 8.10773 15.3766 6.1719 17.5632 5.32857C17.9499 5.18801 18.3366 5.29662 18.5766 5.52662C18.8299 5.7694 18.9499 6.13357 18.7899 6.50412C17.9166 8.59329 15.9232 11.3213 14.0232 13.1038Z" fill="black"/>
<path d="M13.0361 13.949L11.8428 14.8626C11.8428 14.8434 11.8361 14.8179 11.8361 14.7923C11.7428 14.1087 11.4094 13.4762 10.8694 12.9587C10.3228 12.4348 9.64277 12.1154 8.89611 12.0259C8.87611 12.0259 8.84944 12.0196 8.82944 12.0196L9.79611 10.8504C9.88944 10.7354 9.98944 10.6268 10.0961 10.5118L10.5494 10.5693C11.9828 10.7609 13.1361 11.8407 13.3628 13.2079L13.4361 13.6296C13.3028 13.7382 13.1694 13.8468 13.0361 13.949Z" fill="black"/>
<path d="M10.3898 17.1242C9.98319 17.5203 9.43652 17.7886 8.76986 17.8653L7.13652 18.0378C6.24319 18.1336 5.47652 17.3989 5.57652 16.5364L5.75652 14.9647C5.91652 13.5656 7.13652 12.6711 8.42986 12.6456C8.55652 12.6392 8.69652 12.6456 8.82986 12.6584C9.39652 12.7286 9.94319 12.9778 10.4032 13.4122C10.8498 13.8403 11.1032 14.345 11.1765 14.8753C11.1898 15.0031 11.2032 15.1245 11.2032 15.2459C11.2032 15.9486 10.9232 16.6195 10.3898 17.1242Z" fill="black"/>
</svg>
