<svg width="25" height="25" viewBox="0 0 25 25" fill="none" xmlns="http://www.w3.org/2000/svg">
<path fill-rule="evenodd" clip-rule="evenodd" d="M20.75 6.81H10.07C9.24001 6.81 8.57001 7.48 8.57001 8.31V8.92H6.56001C6.09001 8.92 5.64001 9.14 5.36001 9.52L2.56001 13.26C2.37001 13.52 2.26001 13.84 2.26001 14.16V16.9C2.26001 17.59 2.72001 18.17 3.35001 18.34C3.35001 18.35 3.35001 18.36 3.35001 18.37C3.36001 18.43 3.38001 18.48 3.39001 18.53C3.42001 18.64 3.45001 18.74 3.49001 18.84C3.51001 18.9 3.54001 18.95 3.57001 19.01C3.61001 19.1 3.66001 19.19 3.71001 19.27C3.75001 19.33 3.78001 19.38 3.82001 19.43C3.88001 19.51 3.94001 19.58 4.00001 19.65C4.05001 19.7 4.09001 19.74 4.14001 19.79C4.21001 19.85 4.28001 19.91 4.36001 19.97C4.41001 20.01 4.46001 20.05 4.52001 20.08C4.60001 20.13 4.69001 20.18 4.78001 20.22C4.84001 20.25 4.89001 20.28 4.95001 20.3C5.05001 20.34 5.16001 20.37 5.26001 20.4C5.31001 20.41 5.36001 20.43 5.42001 20.44C5.58001 20.47 5.75001 20.49 5.92001 20.49C6.09001 20.49 6.26001 20.47 6.42001 20.44C6.47001 20.43 6.52001 20.41 6.58001 20.4C6.69001 20.37 6.79001 20.34 6.89001 20.3C6.95001 20.28 7.00001 20.25 7.06001 20.22C7.15001 20.18 7.24001 20.13 7.32001 20.08C7.37001 20.05 7.43001 20.01 7.48001 19.97C7.56001 19.91 7.63001 19.85 7.70001 19.79C7.75001 19.75 7.79001 19.7 7.84001 19.66C7.91001 19.59 7.97001 19.51 8.03001 19.43C8.07001 19.38 8.10001 19.33 8.14001 19.28C8.20001 19.19 8.25001 19.1 8.29001 19C8.31001 18.95 8.34001 18.91 8.36001 18.85C8.42001 18.71 8.46001 18.56 8.50001 18.41C8.50001 18.41 8.50001 18.39 8.50001 18.38H9.60001C9.68001 18.38 9.75001 18.37 9.82001 18.36C9.90001 18.37 9.97001 18.38 10.05 18.38H14.92C14.89 18.21 14.87 18.03 14.87 17.85C14.87 19.3 16.05 20.48 17.5 20.48C18.95 20.48 20.13 19.3 20.13 17.85C20.13 18.03 20.11 18.21 20.08 18.38H20.74C21.57 18.38 22.24 17.71 22.24 16.88V8.31C22.24 7.48 21.57 6.81 20.74 6.81H20.75ZM7.53001 18.19C7.50001 18.36 7.43001 18.52 7.35001 18.66C7.34001 18.68 7.33001 18.71 7.31001 18.73C7.23001 18.86 7.12001 18.98 7.00001 19.09C6.98001 19.11 6.95001 19.13 6.93001 19.15C6.80001 19.25 6.67001 19.33 6.51001 19.39C6.49001 19.39 6.46001 19.4 6.44001 19.41C6.28001 19.46 6.11001 19.5 5.92001 19.5C5.73001 19.5 5.56001 19.46 5.39001 19.41C5.37001 19.41 5.35001 19.4 5.33001 19.39C5.18001 19.33 5.04001 19.24 4.91001 19.14C4.89001 19.12 4.86001 19.1 4.84001 19.09C4.72001 18.98 4.62001 18.86 4.53001 18.72C4.52001 18.7 4.50001 18.67 4.49001 18.65C4.41001 18.5 4.35001 18.35 4.32001 18.18C4.30001 18.08 4.29001 17.98 4.29001 17.87C4.29001 16.97 5.02001 16.24 5.92001 16.24C6.82001 16.24 7.55001 16.97 7.55001 17.87C7.55001 17.98 7.54001 18.09 7.52001 18.2L7.53001 18.19ZM5.93001 15.23C4.70001 15.23 3.67001 16.08 3.38001 17.23C3.30001 17.14 3.24001 17.02 3.24001 16.89V14.15C3.24001 14.04 3.28001 13.94 3.34001 13.85L6.14001 10.11C6.23001 9.98 6.38001 9.91 6.54001 9.91H8.55001V16.88C8.55001 17.06 8.59001 17.22 8.64001 17.38H8.50001C8.28001 16.15 7.21001 15.22 5.92001 15.22L5.93001 15.23ZM17.51 19.5C16.61 19.5 15.88 18.77 15.88 17.87C15.88 16.97 16.61 16.24 17.51 16.24C18.41 16.24 19.14 16.97 19.14 17.87C19.14 18.77 18.41 19.5 17.51 19.5Z" fill="black"/>
</svg>
