<svg width="25" height="25" viewBox="0 0 25 25" fill="none" xmlns="http://www.w3.org/2000/svg">
<path fill-rule="evenodd" clip-rule="evenodd" d="M4.25 10.6548V19.6548C4.25 19.9309 4.47386 20.1548 4.75 20.1548H17.0429C17.1755 20.1548 17.3033 20.1028 17.394 20.0061C19.2902 17.9855 20.0874 14.6182 20.25 13.1548C20.65 10.7548 19.0833 10.1548 18.25 10.1548H14.9437C14.6024 10.1548 14.3578 9.8188 14.4202 9.48328C14.7081 7.93592 14.5189 5.53612 12.5038 4.37785C12.2645 4.24029 11.9679 4.36032 11.859 4.61397L9.61076 9.85198C9.53191 10.0357 9.35121 10.1548 9.1513 10.1548H9V20.1548H7.5V10.1548H4.75C4.47386 10.1548 4.25 10.3786 4.25 10.6548Z" fill="black"/>
</svg>
