<svg width="25" height="25" viewBox="0 0 25 25" fill="none" xmlns="http://www.w3.org/2000/svg">
<path fill-rule="evenodd" clip-rule="evenodd" d="M11.438 5.27602C9.74415 5.41056 8.15775 6.15912 6.977 7.38102C6.202 8.18102 5.728 8.95402 5.381 9.98102C5.024 11.041 4.923 12.03 5.063 13.099C5.25841 14.6179 5.94728 16.0306 7.02371 17.1198C8.10014 18.2091 9.50454 18.9146 11.021 19.128C11.493 19.194 12.5 19.194 12.938 19.127C14.109 18.95 15.231 18.489 16.113 17.823L16.339 17.652L17.826 19.137C19.342 20.652 19.461 20.751 19.759 20.749C19.922 20.748 20.201 20.627 20.3 20.515C20.4157 20.3667 20.4852 20.1876 20.5 20C20.5 19.711 20.392 19.582 18.887 18.076L17.402 16.589L17.573 16.363C18.239 15.481 18.7 14.359 18.877 13.188C18.944 12.75 18.944 11.743 18.878 11.271C18.552 8.93702 17.028 6.88402 14.896 5.90902C14.3029 5.62646 13.6709 5.43401 13.021 5.33802C12.684 5.28802 11.743 5.25102 11.438 5.27602ZM13.091 6.87702C15.266 7.32002 16.968 9.07802 17.356 11.285C17.44 11.76 17.439 12.677 17.355 13.163C17.046 14.944 15.806 16.521 14.157 17.229C12.015 18.149 9.596 17.657 8.006 15.978C6.608 14.501 6.16 12.455 6.799 10.458C6.926 10.061 7.31 9.33002 7.583 8.96502C7.875 8.57503 8.382 8.07102 8.762 7.79502C9.304 7.40002 10.108 7.04102 10.813 6.87902C11.442 6.73502 12.39 6.73402 13.091 6.87702Z" fill="black"/>
</svg>
