<svg width="25" height="25" viewBox="0 0 25 25" fill="none" xmlns="http://www.w3.org/2000/svg">
<path d="M16.9 3.7H8.20001C7.10001 3.7 6.20001 4.6 6.20001 5.7V19.5C6.20001 20.6 7.10001 21.5 8.20001 21.5H16.9C18 21.5 18.9 20.6 18.9 19.5V5.7C18.9 4.6 18 3.7 16.9 3.7ZM13.6 19.2H11.6C11.3 19.2 11.1 19 11.1 18.7C11.1 18.4 11.3 18.2 11.6 18.2H13.6C13.9 18.2 14.1 18.4 14.1 18.7C14.1 19 13.9 19.2 13.6 19.2ZM16.6 16.7C16.6 17 16.4 17.2 16.1 17.2H8.80001C8.50001 17.2 8.30001 17 8.30001 16.7V6.7C8.30001 6.4 8.50001 6.2 8.80001 6.2H16.1C16.4 6.2 16.6 6.4 16.6 6.7V16.7Z" fill="black"/>
</svg>
