<svg width="24" height="24" viewBox="0 0 24 24" fill="none" xmlns="http://www.w3.org/2000/svg">
<path d="M17.5 3.5H6.5C5.4 3.5 4.5 4.4 4.5 5.5V18.5C4.5 19.6 5.4 20.5 6.5 20.5H17.5C18.6 20.5 19.5 19.6 19.5 18.5V5.5C19.5 4.4 18.6 3.5 17.5 3.5ZM11.5 13C11.5 13.28 11.28 13.5 11 13.5C10.72 13.5 10.5 13.28 10.5 13V10.5H7.5C7.22 10.5 7 10.28 7 10C7 9.72 7.22 9.5 7.5 9.5H11C11.28 9.5 11.5 9.72 11.5 10V13ZM16 12.25H14.5V14C14.5 14.28 14.28 14.5 14 14.5C13.72 14.5 13.5 14.28 13.5 14V9.5C13.5 9.22 13.72 9 14 9C14.28 9 14.5 9.22 14.5 9.5V11.25H16C16.28 11.25 16.5 11.47 16.5 11.75C16.5 12.03 16.28 12.25 16 12.25Z" fill="black"/>
</svg>
