<svg width="25" height="25" viewBox="0 0 25 25" fill="none" xmlns="http://www.w3.org/2000/svg">
<path d="M10.25 17.9881C10.25 17.4348 9.80333 16.9881 9.25 16.9881C8.69667 16.9881 8.25 17.4348 8.25 17.9881H4.91667C4.55 17.9881 4.25 17.6881 4.25 17.3215V7.98814C4.25 7.62147 4.55 7.32147 4.91667 7.32147H8.25C8.25 7.87481 8.69667 8.32147 9.25 8.32147C9.80333 8.32147 10.25 7.87481 10.25 7.32147H19.5833C19.95 7.32147 20.25 7.62147 20.25 7.98814V10.9881C19.33 10.9881 18.5833 11.7348 18.5833 12.6548C18.5833 13.5748 19.33 14.3215 20.25 14.3215V17.3215C20.25 17.6881 19.95 17.9881 19.5833 17.9881H10.25ZM9.25 11.8748C9.80333 11.8748 10.25 11.4281 10.25 10.8748C10.25 10.3215 9.80333 9.87481 9.25 9.87481C8.69667 9.87481 8.25 10.3215 8.25 10.8748C8.25 11.4281 8.69667 11.8748 9.25 11.8748ZM9.23 15.4215C9.78333 15.4215 10.23 14.9748 10.23 14.4215C10.23 13.8681 9.78333 13.4215 9.23 13.4215C8.67667 13.4215 8.23 13.8681 8.23 14.4215C8.23 14.9748 8.67667 15.4215 9.23 15.4215Z" fill="black"/>
</svg>
