<svg width="25" height="25" viewBox="0 0 25 25" fill="none" xmlns="http://www.w3.org/2000/svg">
<path fill-rule="evenodd" clip-rule="evenodd" d="M5.41499 7.344C5.29211 7.40399 5.18854 7.49729 5.1161 7.61327C5.04366 7.72926 5.00525 7.86325 5.00525 8C5.00525 8.13675 5.04366 8.27074 5.1161 8.38673C5.18854 8.50271 5.29211 8.59601 5.41499 8.656L5.60099 8.75H19.899L20.085 8.656C20.2079 8.59601 20.3114 8.50271 20.3839 8.38673C20.4563 8.27074 20.4947 8.13675 20.4947 8C20.4947 7.86325 20.4563 7.72926 20.3839 7.61327C20.3114 7.49729 20.2079 7.40399 20.085 7.344L19.899 7.25H5.60099L5.41499 7.344ZM5.41499 12.344C5.29211 12.404 5.18854 12.4973 5.1161 12.6133C5.04366 12.7293 5.00525 12.8633 5.00525 13C5.00525 13.1367 5.04366 13.2707 5.1161 13.3867C5.18854 13.5027 5.29211 13.596 5.41499 13.656L5.60099 13.75H19.899L20.085 13.656C20.2079 13.596 20.3114 13.5027 20.3839 13.3867C20.4563 13.2707 20.4947 13.1367 20.4947 13C20.4947 12.8633 20.4563 12.7293 20.3839 12.6133C20.3114 12.4973 20.2079 12.404 20.085 12.344L19.899 12.25H5.60099L5.41499 12.344ZM5.41499 17.344C5.29211 17.404 5.18854 17.4973 5.1161 17.6133C5.04366 17.7293 5.00525 17.8633 5.00525 18C5.00525 18.1367 5.04366 18.2707 5.1161 18.3867C5.18854 18.5027 5.29211 18.596 5.41499 18.656L5.60099 18.75H19.899L20.085 18.656C20.2079 18.596 20.3114 18.5027 20.3839 18.3867C20.4563 18.2707 20.4947 18.1367 20.4947 18C20.4947 17.8633 20.4563 17.7293 20.3839 17.6133C20.3114 17.4973 20.2079 17.404 20.085 17.344L19.899 17.25H5.60099L5.41499 17.344Z" fill="black"/>
</svg>
