<svg width="25" height="25" viewBox="0 0 25 25" fill="none" xmlns="http://www.w3.org/2000/svg">
<path fill-rule="evenodd" clip-rule="evenodd" d="M5.334 4.31601C5.19523 4.35592 5.06114 4.41057 4.934 4.47901C4.679 4.62801 4.354 5.00601 4.243 5.28101L4.146 5.52101V18.979L4.246 19.229C4.385 19.575 4.8 19.99 5.146 20.129L5.396 20.229H18.896L19.175 20.097C19.526 19.9331 19.8081 19.651 19.972 19.3L20.104 19.021V5.47901L19.971 5.19901C19.8064 4.85066 19.5252 4.57084 19.176 4.40801L18.898 4.27101L12.23 4.26301C6.458 4.25601 5.532 4.26301 5.334 4.31601ZM15.866 9.09301C16.165 9.29101 16.276 9.74601 16.098 10.045C15.996 10.218 12.25 15.088 12.067 15.286C11.833 15.54 11.457 15.616 11.181 15.467C10.941 15.337 8.272 12.889 8.196 12.729C8.14527 12.6208 8.12146 12.502 8.12659 12.3826C8.13171 12.2632 8.16563 12.1469 8.22545 12.0434C8.28527 11.94 8.36922 11.8526 8.47013 11.7886C8.57104 11.7246 8.68593 11.686 8.805 11.676C8.93244 11.6562 9.06289 11.6768 9.178 11.735C9.26 11.778 9.789 12.231 10.354 12.742C10.918 13.254 11.396 13.666 11.416 13.659C11.436 13.652 12.19 12.688 13.092 11.517C15.019 9.01501 14.92 9.13601 15.116 9.03301C15.328 8.92301 15.647 8.94801 15.866 9.09301Z" fill="#231F20"/>
</svg>
