<svg width="25" height="25" viewBox="0 0 25 25" fill="none" xmlns="http://www.w3.org/2000/svg">
<path d="M18.0258 11.609C18.1175 11.4232 18.3825 11.4232 18.4742 11.609L19.0735 12.8234C19.1099 12.8972 19.1803 12.9483 19.2617 12.9602L20.6019 13.1549C20.8069 13.1847 20.8888 13.4367 20.7404 13.5813L19.7707 14.5266C19.7118 14.584 19.6849 14.6667 19.6988 14.7478L19.9277 16.0826C19.9628 16.2868 19.7484 16.4425 19.565 16.3461L18.3663 15.7159C18.2935 15.6776 18.2065 15.6776 18.1337 15.7159L16.935 16.3461C16.7516 16.4425 16.5372 16.2868 16.5723 16.0826L16.8012 14.7478C16.8151 14.6667 16.7882 14.584 16.7293 14.5266L15.7596 13.5813C15.6112 13.4367 15.6931 13.1847 15.8981 13.1549L17.2383 12.9602C17.3197 12.9483 17.3901 12.8972 17.4265 12.8234L18.0258 11.609Z" fill="black"/>
<path fill-rule="evenodd" clip-rule="evenodd" d="M15.0844 13.5412C14.182 13.2873 13.2233 13.1548 12.25 13.1548C10.4268 13.1548 8.65455 13.6197 7.20811 14.4773C6.08944 15.1406 5.214 16.0102 4.6564 16.9998C4.39944 17.4558 4.70446 17.9924 5.21703 18.0986C9.85647 19.0592 14.6435 19.0592 19.283 18.0986C19.7955 17.9924 20.1006 17.4558 19.8436 16.9998C19.8417 16.9964 19.8398 16.993 19.8378 16.9896L18.3663 16.2159C18.2935 16.1777 18.2065 16.1777 18.1337 16.2159L16.3472 17.1551C16.1638 17.2516 15.9495 17.0958 15.9845 16.8916L16.3257 14.9024C16.3396 14.8213 16.3127 14.7385 16.2538 14.6811L15.0844 13.5412Z" fill="black"/>
<path d="M16.25 8.15479C16.25 10.3639 14.4591 12.1548 12.25 12.1548C10.0409 12.1548 8.25 10.3639 8.25 8.15479C8.25 5.94565 10.0409 4.15479 12.25 4.15479C14.4591 4.15479 16.25 5.94565 16.25 8.15479Z" fill="black"/>
</svg>
