<svg width="25" height="25" viewBox="0 0 25 25" fill="none" xmlns="http://www.w3.org/2000/svg">
<path fill-rule="evenodd" clip-rule="evenodd" d="M11.986 4.60203C11.8938 4.63308 11.8089 4.68262 11.7365 4.74761C11.6641 4.81261 11.6058 4.89169 11.565 4.98003C11.507 5.10103 11.5 5.65703 11.5 9.89503C11.5 12.572 11.484 14.668 11.464 14.66C11.444 14.652 10.562 13.849 9.50399 12.875C8.44599 11.901 7.52099 11.071 7.44699 11.031C7.25699 10.927 6.93599 10.937 6.72999 11.054C6.41699 11.231 6.27999 11.684 6.43899 12.018C6.51199 12.171 11.77 17.032 11.951 17.113C12.224 17.236 12.539 17.155 12.838 16.886C13.173 16.583 15.132 14.787 16.574 13.462C17.4 12.702 18.024 12.096 18.061 12.018C18.222 11.679 18.071 11.206 17.75 11.042C17.555 10.942 17.253 10.933 17.069 11.021C16.997 11.056 16.056 11.896 14.979 12.889L13.021 14.693L13 9.89903C12.985 6.40603 12.966 5.07503 12.931 4.99703C12.861 4.84203 12.61 4.63603 12.428 4.58603C12.229 4.53103 12.182 4.53203 11.986 4.60203ZM4.71499 19.839C4.59215 19.9007 4.48893 19.9953 4.41694 20.1124C4.34494 20.2295 4.30702 20.3643 4.30744 20.5018C4.30785 20.6392 4.34659 20.7738 4.41929 20.8904C4.49199 21.0071 4.59578 21.1011 4.71899 21.162L4.90099 21.25H19.732L19.918 21.156C20.0408 21.0965 20.1445 21.0037 20.2171 20.8882C20.2897 20.7726 20.3284 20.639 20.3287 20.5025C20.329 20.366 20.291 20.2322 20.2189 20.1163C20.1468 20.0004 20.0436 19.9071 19.921 19.847L19.737 19.75H4.89599L4.71499 19.839Z" fill="black"/>
</svg>
