<svg width="25" height="25" viewBox="0 0 25 25" fill="none" xmlns="http://www.w3.org/2000/svg">
<path fill-rule="evenodd" clip-rule="evenodd" d="M11.333 4.54403C8.159 4.89703 5.507 7.05203 4.543 10.063C4.03502 11.6483 4.03502 13.3527 4.543 14.938C4.95683 16.2251 5.68947 17.3866 6.67277 18.3145C7.65608 19.2424 8.85809 19.9065 10.167 20.245C11.4726 20.5752 12.8396 20.5769 14.146 20.25C15.2796 19.9553 16.3352 19.4168 17.2392 18.6721C18.1432 17.9273 18.8738 16.9943 19.38 15.938C20.0899 14.4475 20.3205 12.7737 20.0401 11.1468C19.7596 9.51986 18.982 8.01982 17.814 6.85303C16.6241 5.65579 15.0842 4.86815 13.417 4.60403C12.929 4.52403 11.81 4.49103 11.333 4.54403ZM15.866 9.34303C16.165 9.54103 16.276 9.99603 16.098 10.295C15.996 10.468 12.25 15.338 12.067 15.536C11.833 15.79 11.457 15.866 11.181 15.717C10.941 15.587 8.272 13.139 8.196 12.979C8.14527 12.8708 8.12146 12.752 8.12659 12.6326C8.13172 12.5133 8.16564 12.3969 8.22546 12.2935C8.28528 12.19 8.36922 12.1026 8.47013 12.0386C8.57104 11.9746 8.68593 11.936 8.805 11.926C8.93244 11.9062 9.06289 11.9269 9.178 11.985C9.26 12.028 9.789 12.481 10.354 12.992C10.918 13.504 11.396 13.916 11.416 13.909C11.436 13.902 12.19 12.938 13.092 11.767C15.019 9.26503 14.92 9.38603 15.116 9.28303C15.328 9.17303 15.647 9.19803 15.866 9.34303Z" fill="#231F20"/>
</svg>
