<svg width="25" height="25" viewBox="0 0 25 25" fill="none" xmlns="http://www.w3.org/2000/svg">
<path fill-rule="evenodd" clip-rule="evenodd" d="M6.447 4.67C6.108 4.75 5.719 5.026 5.543 5.311C5.434 5.487 4.25 8.598 4.25 8.708C4.25 8.791 4.275 8.792 6.958 8.792C8.786 8.792 9.667 8.778 9.667 8.749C9.667 8.725 9.779 7.829 9.917 6.757C10.054 5.685 10.167 4.767 10.167 4.716V4.625L8.385 4.629C7.406 4.631 6.534 4.65 6.447 4.67ZM14.356 4.74C14.383 4.894 14.833 8.658 14.833 8.733C14.833 8.783 15.232 8.792 17.542 8.792C20.207 8.792 20.25 8.79 20.25 8.71C20.25 8.665 19.987 7.919 19.665 7.053C19.027 5.337 18.926 5.139 18.569 4.902C18.162 4.632 18.102 4.625 16.118 4.625H14.335L14.356 4.74ZM10.943 6.677C10.81 7.737 10.691 8.646 10.679 8.698L10.658 8.792H13.841L13.816 8.635C13.803 8.549 13.698 7.682 13.583 6.708C13.5119 6.08595 13.4349 5.46458 13.352 4.844L13.332 4.75H11.186L10.943 6.677ZM4.25 14.433C4.25 19.215 4.252 19.331 4.334 19.596C4.45004 19.924 4.6698 20.2052 4.96 20.397C5.34 20.637 4.957 20.625 12.25 20.625C19.543 20.625 19.164 20.637 19.538 20.397C19.702 20.291 19.948 20.04 20.051 19.872C20.254 19.543 20.25 19.657 20.25 14.43V9.542H15.125V13.792H9.375V9.542H4.25V14.433ZM10.375 11.438V12.792H14.125V10.083H10.375V11.438Z" fill="black"/>
</svg>
