<svg width="25" height="25" viewBox="0 0 25 25" fill="none" xmlns="http://www.w3.org/2000/svg">
<path fill-rule="evenodd" clip-rule="evenodd" d="M11.4678 5.49292C11.0072 5.49292 10.6137 5.82622 10.5383 6.2801L10.3591 7.35285C10.3072 7.66605 10.0978 7.92733 9.81977 8.08058C9.7578 8.11575 9.69583 8.15093 9.63554 8.18777C9.36337 8.3519 9.03259 8.40299 8.73446 8.29161L7.71615 7.90974C7.5072 7.83127 7.27718 7.82953 7.06707 7.90483C6.85696 7.98013 6.68041 8.12759 6.56887 8.32092L5.48273 10.2026C5.37153 10.3957 5.33238 10.622 5.37225 10.8413C5.41211 11.0605 5.5284 11.2585 5.70046 11.4001L6.54124 12.0927C6.78577 12.2945 6.90719 12.6052 6.90133 12.9234C6.90002 12.9946 6.90002 13.0658 6.90133 13.137C6.90719 13.4535 6.78577 13.7659 6.54124 13.9669L5.70046 14.6594C5.52819 14.8011 5.41177 14.9993 5.3719 15.2187C5.33203 15.4381 5.3713 15.6646 5.48273 15.8578L6.56887 17.7395C6.68051 17.9325 6.85698 18.0796 7.06689 18.1548C7.27681 18.2299 7.50657 18.2282 7.71531 18.1498L8.73446 17.768C9.03259 17.6566 9.36337 17.7077 9.63554 17.8718C9.69625 17.9084 9.75768 17.9439 9.81977 17.9782C10.0978 18.1322 10.3072 18.3935 10.3591 18.7067L10.5375 19.7795C10.6137 20.2334 11.0064 20.5667 11.467 20.5667H13.6393C14.0999 20.5667 14.4935 20.2342 14.5688 19.7795L14.7472 18.7067C14.8 18.3935 15.0093 18.1322 15.2865 17.979C15.3486 17.9445 15.41 17.9087 15.4707 17.8718C15.7438 17.7077 16.0745 17.6566 16.3718 17.768L17.391 18.1498C17.5998 18.2281 17.8296 18.2297 18.0396 18.1544C18.2495 18.0791 18.4259 17.9318 18.5374 17.7387L19.6244 15.8569C19.8539 15.4592 19.7617 14.9525 19.4067 14.6594L18.5659 13.9669C18.3205 13.765 18.1991 13.4535 18.2058 13.137C18.207 13.0658 18.207 12.9946 18.2058 12.9234C18.1991 12.606 18.3205 12.2945 18.5659 12.0927L19.4058 11.4001C19.5781 11.2585 19.6945 11.0603 19.7344 10.8409C19.7743 10.6214 19.735 10.395 19.6236 10.2018L18.5383 8.32008C18.4266 8.1269 18.25 7.97962 18.0399 7.90448C17.8298 7.82933 17.5998 7.8312 17.391 7.90974L16.3718 8.29161C16.0745 8.40299 15.7438 8.3519 15.4716 8.18777C15.4105 8.15092 15.3493 8.11491 15.2874 8.08141C15.0093 7.92733 14.8 7.66605 14.7472 7.35285L14.5688 6.2801C14.4935 5.82622 14.0999 5.49292 13.6393 5.49292H11.4678ZM11.1302 11.6069C11.5076 11.2295 12.0195 11.0175 12.5532 11.0175C13.0868 11.0175 13.5987 11.2295 13.9761 11.6069C14.3534 11.9843 14.5654 12.4961 14.5654 13.0298C14.5654 13.5635 14.3534 14.0753 13.9761 14.4527C13.5987 14.8301 13.0868 15.0421 12.5532 15.0421C12.0195 15.0421 11.5076 14.8301 11.1302 14.4527C10.7529 14.0753 10.5409 13.5635 10.5409 13.0298C10.5409 12.4961 10.7529 11.9843 11.1302 11.6069ZM12.5532 10.0175C11.7542 10.0175 10.9881 10.3349 10.4231 10.8998C9.85823 11.4647 9.54086 12.2309 9.54086 13.0298C9.54086 13.8287 9.85823 14.5949 10.4231 15.1598C10.9881 15.7247 11.7542 16.0421 12.5532 16.0421C13.3521 16.0421 14.1182 15.7247 14.6832 15.1598C15.2481 14.5949 15.5654 13.8287 15.5654 13.0298C15.5654 12.2309 15.2481 11.4647 14.6832 10.8998C14.1182 10.3349 13.3521 10.0175 12.5532 10.0175Z" fill="black"/>
</svg>
