<svg width="25" height="25" viewBox="0 0 25 25" fill="none" xmlns="http://www.w3.org/2000/svg">
<path d="M9.25 7.15479C9.25 5.49793 10.5931 4.15479 12.25 4.15479C13.9069 4.15479 15.25 5.49793 15.25 7.15479V11.1548C15.25 12.8116 13.9069 14.1548 12.25 14.1548C10.5931 14.1548 9.25 12.8116 9.25 11.1548V7.15479Z" fill="black"/>
<path fill-rule="evenodd" clip-rule="evenodd" d="M8.75 7.15479C8.75 5.22179 10.317 3.65479 12.25 3.65479C14.183 3.65479 15.75 5.22179 15.75 7.15479V11.1548C15.75 13.0878 14.183 14.6548 12.25 14.6548C10.317 14.6548 8.75 13.0878 8.75 11.1548V7.15479ZM12.25 4.65479C10.8693 4.65479 9.75 5.77407 9.75 7.15479V11.1548C9.75 12.5355 10.8693 13.6548 12.25 13.6548C13.6307 13.6548 14.75 12.5355 14.75 11.1548V7.15479C14.75 5.77407 13.6307 4.65479 12.25 4.65479Z" fill="black"/>
<path fill-rule="evenodd" clip-rule="evenodd" d="M5.25 9.65479C5.52614 9.65479 5.75 9.87864 5.75 10.1548V11.1548C5.75 14.7446 8.66015 17.6548 12.25 17.6548C15.8399 17.6548 18.75 14.7446 18.75 11.1548V10.1548C18.75 9.87864 18.9739 9.65479 19.25 9.65479C19.5261 9.65479 19.75 9.87864 19.75 10.1548V11.1548C19.75 15.1289 16.659 18.3811 12.75 18.6384V21.1548C12.75 21.4309 12.5261 21.6548 12.25 21.6548C11.9739 21.6548 11.75 21.4309 11.75 21.1548V18.6384C7.84098 18.3811 4.75 15.1289 4.75 11.1548V10.1548C4.75 9.87864 4.97386 9.65479 5.25 9.65479Z" fill="black"/>
</svg>
