<svg width="25" height="24" viewBox="0 0 25 24" fill="none" xmlns="http://www.w3.org/2000/svg">
<path d="M19 14.8C18.6 14.5 18.2 14.4 17.8 14.3C17.4 14.3 17.3 14.2 17.2 14C17.1 14 17 13.8 17 13.6C17 13.4 17.1 13.3 17.2 13.2L18.4 12.2C19.4 11.4 19.9 10.2 19.9 9C19.9 7.8 19.4 6.7 18.4 5.8C17 4.6 15.1 4 13.1 4C11.1 4 8.3 4.9 6.6 6.4C4.9 7.8 4 9.8 4 11.8C4 13.8 4.9 15.8 6.6 17.2C8.2 18.6 10.5 19.4 13 19.4C15.3 19.4 17.6 18.6 19.1 17.3C19.5 17 19.7 16.6 19.7 16.1C19.7 15.6 19.5 15.1 19.1 14.8H19ZM7.8 12.6C8.5 12.6 9 13.1 9 13.8C9 14.5 8.4 15 7.8 15C7.2 15 6.6 14.5 6.6 13.8C6.6 13.1 7.2 12.6 7.8 12.6ZM6.2 9.9C6.2 9.2 6.8 8.7 7.4 8.7C8 8.7 8.6 9.2 8.6 9.9C8.6 10.6 8 11.1 7.4 11.1C6.8 11.1 6.2 10.6 6.2 9.9ZM10.6 6.3C11.3 6.3 11.8 6.8 11.8 7.5C11.8 8.2 11.2 8.7 10.6 8.7C10 8.7 9.4 8.2 9.4 7.5C9.4 6.8 10 6.3 10.6 6.3ZM11.9 14.1C12.9 14.1 13.8 14.9 13.8 15.9C13.8 16.9 13 17.7 11.9 17.7C10.8 17.7 10 16.9 10 15.9C10 14.9 10.8 14.1 11.9 14.1ZM13.4 7.5C13.4 6.8 14 6.3 14.6 6.3C15.2 6.3 15.8 6.8 15.8 7.5C15.8 8.2 15.2 8.7 14.6 8.7C14 8.7 13.4 8.2 13.4 7.5Z" fill="black"/>
</svg>
