<svg width="25" height="25" viewBox="0 0 25 25" fill="none" xmlns="http://www.w3.org/2000/svg">
<path d="M11.8293 4.80974C12.0261 4.50336 12.4739 4.50336 12.6707 4.80974L15.213 8.76778C15.2807 8.8732 15.3855 8.94935 15.5067 8.98117L20.0566 10.1759C20.4088 10.2684 20.5472 10.6943 20.3166 10.9761L17.3379 14.617C17.2585 14.714 17.2185 14.8372 17.2257 14.9623L17.4954 19.6587C17.5163 20.0223 17.154 20.2855 16.8147 20.1533L12.4315 18.4455C12.3148 18.4 12.1852 18.4 12.0685 18.4455L7.68527 20.1533C7.34598 20.2855 6.98369 20.0223 7.00457 19.6587L7.27431 14.9623C7.2815 14.8372 7.24146 14.714 7.16213 14.6171L4.18341 10.9761C3.95284 10.6943 4.09122 10.2684 4.44342 10.1759L8.99334 8.98117C9.11452 8.94935 9.21933 8.8732 9.28704 8.76778L11.8293 4.80974Z" fill="black"/>
</svg>
