<svg width="25" height="25" viewBox="0 0 25 25" fill="none" xmlns="http://www.w3.org/2000/svg">
<path fill-rule="evenodd" clip-rule="evenodd" d="M4.73399 4.974C4.58302 5.06959 4.46939 5.21406 4.41206 5.38331C4.35474 5.55255 4.35718 5.73634 4.41899 5.904C4.44299 5.969 5.94399 7.504 7.82499 9.386L11.187 12.75L7.82499 16.115C5.93699 18.003 4.44299 19.531 4.41899 19.596C4.36691 19.7336 4.35566 19.8832 4.38657 20.0271C4.41749 20.1709 4.48926 20.3027 4.59328 20.4067C4.69729 20.5107 4.82912 20.5825 4.97293 20.6134C5.11674 20.6443 5.26642 20.6331 5.40399 20.581C5.46899 20.557 7.00399 19.056 8.88499 17.175L12.25 13.813L15.615 17.175C17.496 19.056 19.031 20.557 19.096 20.581C19.2335 20.6326 19.383 20.6435 19.5266 20.6124C19.6702 20.5814 19.8018 20.5096 19.9057 20.4057C20.0096 20.3018 20.0813 20.1702 20.1124 20.0266C20.1435 19.883 20.1326 19.7335 20.081 19.596C20.057 19.531 18.556 17.996 16.675 16.115L13.313 12.75L16.675 9.385C18.556 7.504 20.057 5.969 20.081 5.904C20.1168 5.7957 20.131 5.68139 20.1226 5.56762C20.1142 5.45385 20.0834 5.34285 20.032 5.241C19.851 4.919 19.398 4.778 19.071 4.941C18.998 4.978 17.433 6.511 15.594 8.348L12.25 11.687L8.90599 8.348C7.06699 6.511 5.50199 4.978 5.42899 4.941C5.31842 4.89264 5.19818 4.87045 5.07763 4.87618C4.95708 4.8819 4.83948 4.91538 4.73399 4.974Z" fill="black"/>
</svg>
