<svg width="25" height="24" viewBox="0 0 25 24" fill="none" xmlns="http://www.w3.org/2000/svg">
<path fill-rule="evenodd" clip-rule="evenodd" d="M12.75 5.70001C8.88 5.70001 5.75 8.70001 5.75 12.41C5.75 16.12 8.88 19.12 12.75 19.12C16.62 19.12 19.75 16.12 19.75 12.41C19.75 8.70001 16.62 5.70001 12.75 5.70001ZM12.25 9.53001C12.25 9.25001 12.47 9.03001 12.75 9.03001C13.03 9.03001 13.25 9.25001 13.25 9.53001V12.41C13.25 12.69 13.03 12.91 12.75 12.91C12.47 12.91 12.25 12.69 12.25 12.41V9.53001ZM12.76 15.59C12.48 15.59 12.26 15.37 12.26 15.09C12.26 14.81 12.48 14.59 12.76 14.59C13.04 14.59 13.26 14.81 13.26 15.09C13.26 15.37 13.04 15.59 12.76 15.59Z" fill="black"/>
</svg>
