<svg width="25" height="25" viewBox="0 0 25 25" fill="none" xmlns="http://www.w3.org/2000/svg">
<path fill-rule="evenodd" clip-rule="evenodd" d="M12.438 5.328C12.3506 5.36148 12.2718 5.41391 12.2071 5.48152C12.1424 5.54913 12.0936 5.63023 12.064 5.719C12.008 5.852 12 6.286 12 9.061V12.25H5.60099L5.41499 12.344C5.29211 12.404 5.18854 12.4973 5.1161 12.6133C5.04366 12.7293 5.00525 12.8632 5.00525 13C5.00525 13.1367 5.04366 13.2707 5.1161 13.3867C5.18854 13.5027 5.29211 13.596 5.41499 13.656L5.60099 13.75H12V20.149L12.094 20.335C12.154 20.4579 12.2473 20.5614 12.3633 20.6339C12.4792 20.7063 12.6132 20.7447 12.75 20.7447C12.8867 20.7447 13.0207 20.7063 13.1367 20.6339C13.2527 20.5614 13.346 20.4579 13.406 20.335L13.5 20.149V13.75H19.899L20.085 13.656C20.2079 13.596 20.3114 13.5027 20.3839 13.3867C20.4563 13.2707 20.4947 13.1367 20.4947 13C20.4947 12.8632 20.4563 12.7293 20.3839 12.6133C20.3114 12.4973 20.2079 12.404 20.085 12.344L19.899 12.25H13.5L13.499 9.052C13.498 6.038 13.494 5.845 13.422 5.688C13.3885 5.60064 13.3361 5.52178 13.2685 5.45711C13.2009 5.39244 13.1198 5.34357 13.031 5.314C12.9373 5.2723 12.8355 5.25192 12.7329 5.25434C12.6304 5.25676 12.5296 5.28192 12.438 5.328Z" fill="black"/>
</svg>
