<svg width="17" height="18" viewBox="0 0 17 18" fill="none" xmlns="http://www.w3.org/2000/svg">
<path fill-rule="evenodd" clip-rule="evenodd" d="M7.98617 0.601967C7.89397 0.633018 7.80908 0.682557 7.73669 0.747552C7.6643 0.812548 7.60594 0.891633 7.56517 0.979967C7.50717 1.10097 7.50017 1.65697 7.50017 5.89497C7.50017 8.57197 7.48417 10.668 7.46417 10.66C7.44417 10.652 6.56217 9.84897 5.50417 8.87497C4.44617 7.90097 3.52117 7.07097 3.44717 7.03097C3.25717 6.92697 2.93617 6.93697 2.73017 7.05397C2.41717 7.23097 2.28017 7.68397 2.43917 8.01797C2.51217 8.17097 7.77017 13.032 7.95117 13.113C8.22417 13.236 8.53917 13.155 8.83817 12.886C9.17317 12.583 11.1322 10.787 12.5742 9.46197C13.4002 8.70197 14.0242 8.09597 14.0612 8.01797C14.2222 7.67897 14.0712 7.20597 13.7502 7.04197C13.5552 6.94197 13.2532 6.93297 13.0692 7.02097C12.9972 7.05597 12.0562 7.89597 10.9792 8.88897L9.02117 10.693L9.00017 5.89897C8.98517 2.40597 8.96617 1.07497 8.93117 0.996967C8.86117 0.841967 8.61017 0.635967 8.42817 0.585967C8.22917 0.530967 8.18217 0.531967 7.98617 0.601967ZM0.715173 15.839C0.592332 15.9006 0.489115 15.9953 0.41712 16.1124C0.345125 16.2294 0.307205 16.3643 0.307621 16.5017C0.308036 16.6391 0.346771 16.7737 0.419472 16.8904C0.492174 17.007 0.595961 17.1011 0.719173 17.162L0.901173 17.25H15.7322L15.9182 17.156C16.041 17.0965 16.1447 17.0037 16.2173 16.8881C16.2899 16.7725 16.3286 16.6389 16.3289 16.5024C16.3292 16.3659 16.2912 16.2321 16.2191 16.1162C16.147 16.0003 16.0437 15.907 15.9212 15.847L15.7372 15.75H0.896173L0.715173 15.839Z" fill="black"/>
</svg>
