<svg width="89" height="80" viewBox="0 0 89 80" fill="none" xmlns="http://www.w3.org/2000/svg">
<g clip-path="url(#clip0_1530_1441)">
<path d="M53.6255 0.164911L24.8745 10.6806C23.4897 11.1871 22.7778 12.7202 23.2842 14.105L29.9611 32.3601C30.4675 33.7448 32.0007 34.4568 33.3854 33.9504L62.1364 23.4347C63.5212 22.9282 64.2332 21.395 63.7267 20.0103L57.0499 1.75517C56.5434 0.370425 55.0103 -0.341561 53.6255 0.164911Z" fill="#E6F7FF"/>
<path d="M43.579 3.84501L34.9102 7.01562L37.1117 13.0348L45.7805 9.86413L43.579 3.84501Z" fill="#0075BD"/>
<path d="M70.8002 20.2638L33.3804 33.9501C31.9956 34.4566 31.2836 35.9897 31.7901 37.3745L39.3001 57.9076C39.8065 59.2923 41.3397 60.0043 42.7244 59.4978L80.1443 45.8115C81.529 45.305 82.241 43.7719 81.7345 42.3872L74.2246 21.8541C73.7181 20.4693 72.1849 19.7574 70.8002 20.2638Z" fill="#E6F7FF"/>
<path d="M56.4183 25.5154L47.75 28.6875L50.9221 37.3558L59.5904 34.1836L56.4183 25.5154Z" fill="#0075BD"/>
<path d="M39.0779 65.7428C38.1178 65.7428 37.2251 65.1532 36.8714 64.21L17.2146 11.1434L10.8645 13.4678C9.64327 13.9142 8.29576 13.2825 7.8494 12.0698C7.40303 10.8486 8.02626 9.50108 9.24744 9.05471L17.8041 5.92175C19.0253 5.47539 20.3728 6.09861 20.8192 7.31137L40.476 60.378L85.1544 44.031C86.3756 43.5847 87.7231 44.2163 88.1694 45.4291C88.6158 46.6502 87.9926 47.9978 86.7714 48.4441L39.8949 65.5912C39.6254 65.6922 39.3559 65.7344 39.0864 65.7344L39.0779 65.7428Z" fill="#E6E6E6"/>
<path d="M11.5554 14.341L4.59892 16.8845C2.82189 17.533 0.859576 16.6234 0.211086 14.8464C-0.437403 13.0693 0.472167 11.107 2.2492 10.4585L9.20572 7.9151C9.71103 7.72982 10.2753 7.9909 10.4606 8.49621L12.1366 13.0777C12.3218 13.5831 12.0608 14.1473 11.5554 14.3326V14.341Z" fill="#0075BD"/>
<path d="M49.4538 67.9579C51.1551 72.6068 48.7632 77.7526 44.1143 79.4538C39.4654 81.1551 34.3196 78.7632 32.6184 74.1143C30.9172 69.4654 33.309 64.3196 37.9579 62.6184C42.6068 60.9172 47.7526 63.309 49.4538 67.9579Z" fill="#0075BD"/>
<path d="M44.1137 69.9008C44.7369 71.6021 43.861 73.4886 42.1598 74.1034C40.4586 74.7266 38.572 73.8507 37.9572 72.1495C37.3424 70.4482 38.2099 68.5617 39.9111 67.9469C41.6124 67.3237 43.4989 68.1996 44.1137 69.9008Z" fill="white"/>
</g>
<defs>
<clipPath id="clip0_1530_1441">
<rect width="88.3125" height="80" fill="white"/>
</clipPath>
</defs>
</svg>
