<svg width="99" height="80" viewBox="0 0 99 80" fill="none" xmlns="http://www.w3.org/2000/svg">
<g clip-path="url(#clip0_1530_1471)">
<path d="M26.6487 51.9031L1.0625 42.9297L1.46896 68.5264L27.8785 78.1043L26.6487 51.9031Z" fill="#E6F7FF"/>
<path d="M61.6258 1.94922L52.6523 11.7356L58.051 35.5917L74.0072 47.4417L90.8806 34.9768L96.2897 11.4333L87.1078 2.05344L61.6258 1.94922Z" fill="#E6E6E6"/>
<path d="M74.0082 62.1887H54.9462C53.9978 62.1887 53.2266 61.4174 53.2266 60.469C53.2266 59.5206 53.9978 58.7494 54.9462 58.7494H72.2886V49.161C72.2886 48.2126 73.0598 47.4414 74.0082 47.4414C74.9566 47.4414 75.7279 48.2126 75.7279 49.161V60.469C75.7279 61.4174 74.9566 62.1887 74.0082 62.1887Z" fill="#0075BD"/>
<path d="M28.0459 80.0019C27.8478 80.0019 27.6602 79.9706 27.4726 79.8977L1.14643 70.5178C0.458572 70.2781 0 69.6319 0 68.9024V42.5762C0 42.0134 0.270974 41.4923 0.729547 41.1692C1.18812 40.8461 1.77176 40.7627 2.29286 40.9503L11.8916 44.3688C12.7879 44.6918 13.2569 45.6715 12.9338 46.5678C12.6107 47.4641 11.6311 47.9331 10.7348 47.61L3.42887 45.0045V67.6726L26.3158 75.8226V53.1337L18.6034 50.2989C17.7071 49.9758 17.259 48.9857 17.5821 48.0894C17.9052 47.1931 18.8953 46.745 19.7916 47.0681L28.6399 50.3093C29.3174 50.5595 29.7655 51.2056 29.7655 51.9248V78.251C29.7655 78.8138 29.4945 79.3349 29.036 79.658C28.7441 79.8664 28.3898 79.9706 28.0459 79.9706V80.0019Z" fill="#E6F7FF"/>
<path d="M28.0458 79.9993C27.6915 79.9993 27.3475 79.8951 27.0557 79.6866C26.5971 79.3635 26.3262 78.8424 26.3262 78.2796V51.9534C26.3262 51.2239 26.7847 50.5777 27.4726 50.338L53.7988 40.9581C54.3303 40.7705 54.914 40.8539 55.3621 41.177C55.8207 41.5001 56.0917 42.0212 56.0917 42.584V68.9102C56.0917 69.6397 55.6331 70.2859 54.9452 70.5256L28.619 79.9055C28.4314 79.968 28.2334 80.0097 28.0458 80.0097V79.9993ZM29.7655 53.1728V75.8409L52.6524 67.6908V45.0227L29.7655 53.1728Z" fill="#E6F7FF"/>
<path d="M54.3725 44.2938C54.1537 44.2938 53.9452 44.2521 53.7264 44.1687L44.5549 40.4793C43.669 40.1249 43.2522 39.1244 43.6065 38.2385C43.9609 37.3526 44.9614 36.9358 45.8473 37.2901L55.0187 40.9795C55.9046 41.3339 56.3215 42.3344 55.9671 43.2203C55.6961 43.8873 55.05 44.2938 54.3725 44.2938Z" fill="#E6F7FF"/>
<path d="M1.71926 44.2951C1.04182 44.2951 0.39565 43.8886 0.124676 43.2216C-0.229675 42.3357 0.19763 41.3352 1.07309 40.9809L27.3993 30.3816C27.8266 30.2149 28.2956 30.2149 28.7125 30.392L37.3524 34.071C38.2279 34.4462 38.6343 35.4572 38.2591 36.3222C37.8839 37.1977 36.8834 37.6041 36.0079 37.2289L28.0246 33.8313L2.36543 44.17C2.15698 44.2534 1.93812 44.2951 1.71926 44.2951Z" fill="#E6F7FF"/>
<path d="M28.0771 31.9219L3.81445 42.0105L28.0771 51.4946L53.1631 42.2189L28.0771 31.9219Z" fill="#E6F7FF"/>
<path d="M18.4256 50.4008C18.2276 50.4008 18.04 50.3696 17.8524 50.2966L10.2859 47.5765C9.61892 47.3368 9.18119 46.7218 9.16035 46.0131C9.14993 45.3149 9.56681 44.6687 10.2234 44.4081L36.1432 33.9756C36.5288 33.8193 36.9561 33.8089 37.3521 33.9548L44.9186 36.6749C45.5751 36.9147 46.0233 37.5296 46.0441 38.2383C46.0546 38.9365 45.6377 39.5827 44.9811 39.8433L19.0613 50.2758C18.8633 50.3592 18.6445 50.4008 18.4256 50.4008ZM15.622 45.8985L18.3943 46.8886L39.5929 38.3529L36.8206 37.3628L15.622 45.8881V45.8985Z" fill="#0075BD"/>
<path d="M17.9877 62.1278C17.7792 62.1278 17.5708 62.0861 17.3728 62.0131L10.2336 59.22C9.58746 58.9699 9.16016 58.3445 9.16016 57.6463V46.0048C9.16016 45.0668 9.92097 44.3164 10.8485 44.3164C11.7761 44.3164 12.5369 45.0772 12.5369 46.0048V56.4894L16.2889 57.9589V48.725C16.2889 47.787 17.0497 47.0366 17.9772 47.0366C18.9048 47.0366 19.6656 47.7974 19.6656 48.725V60.4394C19.6656 61.0022 19.3842 61.5233 18.9257 61.8359C18.6443 62.034 18.3108 62.1278 17.9668 62.1278H17.9877Z" fill="#0075BD"/>
<path d="M11.1523 45.1788L19.1044 48.3367L44.8053 37.5289L36.947 34.4648L11.1523 45.1788Z" fill="#0075BD"/>
<path d="M11.0588 52.4144V46.7031L18.5001 49.2565L18.3959 60.2623L10.7461 57.417L11.0588 52.4144Z" fill="#0075BD"/>
<path d="M54.0811 42.3242L28.3906 52.2148V77.4988L53.6746 69.1403L54.0811 42.3242Z" fill="#E6F7FF"/>
<path d="M74.0078 49.6105C72.4028 49.6105 70.7873 49.0894 69.4533 48.0576L60.0317 40.7934C57.2595 38.6568 55.3314 35.5927 54.5914 32.1743L50.0265 11.0591C49.9119 10.5485 50.0474 10.0169 50.3705 9.62089C50.6935 9.21443 51.1938 8.98514 51.7045 8.98514C54.9666 8.98514 58.0515 3.13835 58.8749 1.09562C59.1354 0.439025 59.7712 0.0117188 60.4695 0.0117188H87.5565C88.2548 0.0117188 88.8905 0.439025 89.1511 1.09562C89.9744 3.13835 93.0594 8.98514 96.3215 8.98514C96.8426 8.98514 97.3324 9.22485 97.6555 9.62089C97.9786 10.0274 98.1036 10.5589 97.9994 11.0591L93.4346 32.1743C92.6946 35.5927 90.7561 38.6568 87.9838 40.7934L78.5622 48.0576C77.2178 49.0894 75.6128 49.6105 74.0078 49.6105ZM53.7576 12.0701L57.9473 31.4448C58.5205 34.0711 60.0005 36.4265 62.1266 38.0628L71.5482 45.327C72.9968 46.4422 75.0187 46.4422 76.4674 45.327L85.889 38.0628C88.0151 36.4161 89.5054 34.0711 90.0682 31.4448L94.2579 12.0701C90.235 10.7256 87.5044 5.73345 86.4309 3.44059H61.595C60.5216 5.74387 57.791 10.7256 53.7681 12.0701H53.7576Z" fill="#E6E6E6"/>
<path d="M74.0693 35.3925C80.6023 35.3925 85.8984 30.0965 85.8984 23.5635C85.8984 17.0304 80.6023 11.7344 74.0693 11.7344C67.5363 11.7344 62.2402 17.0304 62.2402 23.5635C62.2402 30.0965 67.5363 35.3925 74.0693 35.3925Z" fill="#0075BD"/>
<path d="M73.5896 28.5133C73.1311 28.5133 72.6933 28.3361 72.3702 28.013L68.2639 23.9067C67.5969 23.2397 67.5969 22.1454 68.2639 21.4784C68.9309 20.8114 70.0253 20.8114 70.6923 21.4784L73.4229 24.209L77.1748 19.3835C77.7585 18.6331 78.8424 18.4977 79.5928 19.0813C80.3431 19.6649 80.4786 20.7488 79.895 21.4992L74.9445 27.8567C74.6423 28.2423 74.1837 28.482 73.6938 28.5133C73.6626 28.5133 73.6209 28.5133 73.5896 28.5133Z" fill="white"/>
<path d="M74.0073 36.2684C67.0036 36.2684 61.3027 30.5676 61.3027 23.5639C61.3027 16.5603 67.0036 10.8594 74.0073 10.8594C81.0109 10.8594 86.7118 16.5603 86.7118 23.5639C86.7118 30.5676 81.0109 36.2684 74.0073 36.2684ZM74.0073 14.2987C68.9004 14.2987 64.742 18.4571 64.742 23.5639C64.742 28.6707 68.9004 32.8291 74.0073 32.8291C79.1141 32.8291 83.2725 28.6707 83.2725 23.5639C83.2725 18.4571 79.1141 14.2987 74.0073 14.2987Z" fill="#0075BD"/>
</g>
<defs>
<clipPath id="clip0_1530_1471">
<rect width="98.0406" height="80" fill="white"/>
</clipPath>
</defs>
</svg>
