<svg width="89" height="80" viewBox="0 0 89 80" fill="none" xmlns="http://www.w3.org/2000/svg">
<g clip-path="url(#clip0_1530_1455)">
<g clip-path="url(#clip1_1530_1455)">
<path d="M32.75 59.41H-4.69C-5.97 59.41 -7 58.38 -7 57.1V43.65C-7 42.62 -6.66 41.61 -6.02 40.79L10.69 19.16C11.54 18.06 12.85 17.41 14.25 17.41H32.76V59.4L32.75 59.41Z" fill="#E6E6E6"/>
<path d="M6.47935 38.4814H25.1494C26.1894 38.4814 27.0394 37.6314 27.0394 36.5914V24.8314C27.0394 23.7914 26.1894 22.9414 25.1494 22.9414H15.5594C14.9694 22.9414 14.4194 23.2114 14.0594 23.6714L4.96935 35.4314C4.00935 36.6714 4.89935 38.4814 6.46935 38.4814H6.47935Z" fill="white"/>
<path d="M36.4305 10H90.9905C93.4005 10 95.3605 11.96 95.3605 14.37V55.03C95.3605 57.44 93.4005 59.4 90.9905 59.4H32.0605V14.37C32.0605 11.96 34.0205 10 36.4305 10Z" fill="#E6F7FF"/>
<path d="M74.9198 69.4608C80.6249 69.4608 85.2498 64.8359 85.2498 59.1308C85.2498 53.4257 80.6249 48.8008 74.9198 48.8008C69.2147 48.8008 64.5898 53.4257 64.5898 59.1308C64.5898 64.8359 69.2147 69.4608 74.9198 69.4608Z" fill="#0075BD"/>
<path d="M74.9206 62.9116C77.0083 62.9116 78.7006 61.2192 78.7006 59.1316C78.7006 57.0439 77.0083 55.3516 74.9206 55.3516C72.833 55.3516 71.1406 57.0439 71.1406 59.1316C71.1406 61.2192 72.833 62.9116 74.9206 62.9116Z" fill="white"/>
<path d="M15.7792 69.4608C21.4843 69.4608 26.1092 64.8359 26.1092 59.1308C26.1092 53.4257 21.4843 48.8008 15.7792 48.8008C10.0741 48.8008 5.44922 53.4257 5.44922 59.1308C5.44922 64.8359 10.0741 69.4608 15.7792 69.4608Z" fill="#0075BD"/>
<path d="M15.78 62.9116C17.8676 62.9116 19.56 61.2192 19.56 59.1316C19.56 57.0439 17.8676 55.3516 15.78 55.3516C13.6924 55.3516 12 57.0439 12 59.1316C12 61.2192 13.6924 62.9116 15.78 62.9116Z" fill="white"/>
<path d="M79.0064 20.249L48.7865 20.2068C47.3285 20.2048 46.1448 21.3851 46.1428 22.8431L46.116 42.0331C46.114 43.4911 47.2943 44.6748 48.7523 44.6768L78.9723 44.719C80.4303 44.721 81.6139 43.5407 81.616 42.0827L81.6428 22.8927C81.6448 21.4347 80.4645 20.251 79.0064 20.249Z" fill="#0075BD"/>
<path d="M68.4459 20.2354L59.3359 20.2227L59.3271 26.5527L68.4371 26.5654L68.4459 20.2354Z" fill="white"/>
</g>
</g>
<defs>
<clipPath id="clip0_1530_1455">
<rect width="88.3125" height="80" fill="white"/>
</clipPath>
<clipPath id="clip1_1530_1455">
<rect width="102.36" height="59.46" fill="white" transform="translate(-7 10)"/>
</clipPath>
</defs>
</svg>
