<svg width="75" height="76" viewBox="0 0 75 76" fill="none" xmlns="http://www.w3.org/2000/svg">
<rect y="0.5" width="75" height="75" rx="10" fill="url(#paint0_linear_1272_711)"/>
<path d="M52.7868 30.3167L51.3393 27.8039C51.1592 27.491 50.8622 27.2624 50.5136 27.1685C50.165 27.0745 49.7933 27.1229 49.4804 27.3029L40.8328 32.3127C40.7791 32.3437 40.7182 32.3599 40.6562 32.3598C40.5943 32.3597 40.5334 32.3431 40.4799 32.3119C40.4263 32.2807 40.382 32.2359 40.3514 32.182C40.3208 32.1281 40.3049 32.0671 40.3055 32.0051L40.3125 22.0312C40.3125 21.6583 40.1643 21.3006 39.9006 21.0369C39.6369 20.7732 39.2792 20.625 38.9063 20.625H36.0938C35.7208 20.625 35.3631 20.7732 35.0994 21.0369C34.8357 21.3006 34.6875 21.6583 34.6875 22.0312L34.6937 32.013C34.6942 32.075 34.6784 32.136 34.6477 32.1899C34.6171 32.2438 34.5728 32.2886 34.5192 32.3198C34.4657 32.3511 34.4049 32.3676 34.3429 32.3677C34.2809 32.3679 34.22 32.3516 34.1663 32.3206L25.5188 27.3108C25.2058 27.1308 24.8342 27.0824 24.4856 27.1764C24.137 27.2703 23.84 27.4989 23.6599 27.8118L22.2132 30.3255C22.1239 30.48 22.066 30.6506 22.0428 30.8276C22.0196 31.0045 22.0315 31.1843 22.078 31.3566C22.1245 31.5289 22.2045 31.6904 22.3135 31.8317C22.4225 31.973 22.5584 32.0913 22.7133 32.18L31.3696 37.1968C31.4225 37.2278 31.4663 37.2721 31.4968 37.3253C31.5273 37.3785 31.5433 37.4387 31.5433 37.5C31.5433 37.5613 31.5273 37.6215 31.4968 37.6747C31.4663 37.7279 31.4225 37.7722 31.3696 37.8032L22.7133 42.82C22.4026 43.0011 22.1758 43.2973 22.0822 43.6445C21.9886 43.9917 22.0356 44.3618 22.2132 44.6745L23.6607 47.1873C23.8408 47.5002 24.1378 47.7288 24.4864 47.8227C24.835 47.9167 25.2067 47.8683 25.5196 47.6883L34.1672 42.6785C34.2209 42.6475 34.2818 42.6313 34.3438 42.6314C34.4057 42.6315 34.4666 42.6481 34.5201 42.6793C34.5737 42.7105 34.618 42.7554 34.6486 42.8092C34.6793 42.8631 34.6951 42.9242 34.6945 42.9861L34.6875 52.9688C34.6875 53.3417 34.8357 53.6994 35.0994 53.9631C35.3631 54.2268 35.7208 54.375 36.0938 54.375H38.9063C39.2792 54.375 39.6369 54.2268 39.9006 53.9631C40.1643 53.6994 40.3125 53.3417 40.3125 52.9688L40.3063 42.9782C40.3058 42.9162 40.3216 42.8552 40.3523 42.8013C40.3829 42.7474 40.4272 42.7026 40.4808 42.6714C40.5343 42.6402 40.5951 42.6236 40.6571 42.6235C40.7191 42.6234 40.78 42.6396 40.8337 42.6706L49.4813 47.6804C49.7942 47.8604 50.1658 47.9088 50.5144 47.8148C50.863 47.7209 51.16 47.4923 51.3401 47.1794L52.7877 44.6666C52.877 44.5121 52.9349 44.3415 52.9581 44.1645C52.9813 43.9876 52.9694 43.8078 52.9229 43.6355C52.8764 43.4632 52.7964 43.3017 52.6874 43.1604C52.5783 43.0191 52.4425 42.9008 52.2876 42.8121L43.6313 37.7953C43.5784 37.7643 43.5345 37.72 43.5041 37.6668C43.4736 37.6136 43.4576 37.5534 43.4576 37.4921C43.4576 37.4308 43.4736 37.3706 43.5041 37.3174C43.5345 37.2642 43.5784 37.2199 43.6313 37.1889L52.2876 32.1721C52.5989 31.9914 52.8261 31.6949 52.9196 31.3473C53.0132 30.9997 52.9654 30.6292 52.7868 30.3167Z" stroke="white" stroke-width="2" stroke-linecap="round" stroke-linejoin="round"/>
<defs>
<linearGradient id="paint0_linear_1272_711" x1="37.5" y1="0.5" x2="37.5" y2="75.5" gradientUnits="userSpaceOnUse">
<stop stop-color="#007CC4"/>
<stop offset="1" stop-color="#73C108"/>
</linearGradient>
</defs>
</svg>
