<svg width="75" height="76" viewBox="0 0 75 76" fill="none" xmlns="http://www.w3.org/2000/svg">
<rect y="0.5" width="75" height="75" rx="10" fill="url(#paint0_linear_2237_13)"/>
<path d="M42.7093 17.9004L23.4375 41.7188H34.6875L31.9181 56.944C31.9128 56.9739 31.9141 57.0046 31.922 57.0339C31.9299 57.0632 31.9441 57.0904 31.9636 57.1136C31.9831 57.1368 32.0075 57.1555 32.035 57.1682C32.0625 57.181 32.0925 57.1876 32.1229 57.1875C32.1551 57.1875 32.1869 57.1799 32.2158 57.1654C32.2446 57.1509 32.2697 57.1299 32.289 57.104L51.5625 33.2813H40.3125L43.0951 18.0542C43.0989 18.0239 43.0961 17.9931 43.087 17.9639C43.0779 17.9347 43.0628 17.9078 43.0425 17.8849C43.0222 17.8621 42.9973 17.8438 42.9694 17.8313C42.9415 17.8188 42.9112 17.8124 42.8807 17.8125C42.8472 17.8126 42.8142 17.8207 42.7845 17.8359C42.7547 17.8512 42.7289 17.8733 42.7093 17.9004Z" stroke="white" stroke-width="2" stroke-linecap="round" stroke-linejoin="round"/>
<defs>
<linearGradient id="paint0_linear_2237_13" x1="37.5" y1="0.5" x2="37.5" y2="75.5" gradientUnits="userSpaceOnUse">
<stop stop-color="#007CC4"/>
<stop offset="1" stop-color="#73C108"/>
</linearGradient>
</defs>
</svg>
