<svg width="75" height="76" viewBox="0 0 75 76" fill="none" xmlns="http://www.w3.org/2000/svg">
<rect y="0.5" width="75" height="75" rx="10" fill="url(#paint0_linear_2237_404)"/>
<path d="M33.3888 30.0536H25.375C25.1309 30.0536 24.8968 30.1517 24.7242 30.3262C24.5516 30.5008 24.4546 30.7375 24.4546 30.9843V44.0139C24.4546 44.2607 24.5516 44.4975 24.7242 44.672C24.8968 44.8465 25.1309 44.9446 25.375 44.9446H33.3888C33.8142 44.9448 34.2265 45.094 34.5554 45.3669L45.0797 54.092C45.2169 54.1941 45.3795 54.2556 45.5492 54.2698C45.719 54.284 45.8894 54.2503 46.0413 54.1724C46.1933 54.0945 46.3208 53.9755 46.4099 53.8286C46.4989 53.6817 46.5458 53.5128 46.5455 53.3405V21.6577C46.5454 21.4856 46.4981 21.317 46.409 21.1704C46.3198 21.0239 46.1922 20.9052 46.0403 20.8276C45.8884 20.75 45.7183 20.7165 45.5487 20.7307C45.3791 20.745 45.2168 20.8065 45.0797 20.9085L34.5554 29.6337C34.2262 29.9057 33.8139 30.0541 33.3888 30.0536Z" stroke="white" stroke-width="2" stroke-linecap="round" stroke-linejoin="round"/>
<defs>
<linearGradient id="paint0_linear_2237_404" x1="37.5" y1="0.5" x2="37.5" y2="75.5" gradientUnits="userSpaceOnUse">
<stop stop-color="#007CC4"/>
<stop offset="1" stop-color="#73C108"/>
</linearGradient>
</defs>
</svg>
