<svg width="75" height="74" viewBox="0 0 75 74" fill="none" xmlns="http://www.w3.org/2000/svg">
<circle cx="37.8516" cy="37" r="37" fill="#EEEEEE"/>
<path d="M44.1016 46H31.6016V47.25C31.6016 47.9404 31.0419 48.5 30.3516 48.5H27.8516C27.1612 48.5 26.6016 47.9404 26.6016 47.25V36H25.3516V31H26.6016V27.25C26.6016 25.8693 27.7208 24.75 29.1016 24.75H46.6016C47.9823 24.75 49.1016 25.8693 49.1016 27.25V31H50.3516V36H49.1016V47.25C49.1016 47.9404 48.5419 48.5 47.8516 48.5H45.3516C44.6612 48.5 44.1016 47.9404 44.1016 47.25V46ZM29.1016 27.25V34.75H46.6016V27.25H29.1016ZM46.6016 37.25H29.1016V43.5H46.6016V37.25ZM32.2266 42.25C31.191 42.25 30.3516 41.4105 30.3516 40.375C30.3516 39.3395 31.191 38.5 32.2266 38.5C33.2621 38.5 34.1016 39.3395 34.1016 40.375C34.1016 41.4105 33.2621 42.25 32.2266 42.25ZM43.4766 42.25C42.4411 42.25 41.6016 41.4105 41.6016 40.375C41.6016 39.3395 42.4411 38.5 43.4766 38.5C44.5121 38.5 45.3516 39.3395 45.3516 40.375C45.3516 41.4105 44.5121 42.25 43.4766 42.25Z" fill="#007CC4"/>
</svg>
