<svg width="187" height="124" viewBox="0 0 187 124" fill="none" xmlns="http://www.w3.org/2000/svg">
<g clip-path="url(#clip0_1106_1245)">
<path d="M164.434 61.6191C164.434 57.5774 166.633 54.0811 169.852 52.1842C168.255 51.242 166.412 50.6593 164.434 50.6593C158.438 50.6593 153.584 55.5689 153.584 61.6191C153.584 67.6693 158.438 72.5541 164.434 72.5541C166.412 72.5541 168.255 71.9714 169.852 71.0415C166.633 69.157 164.434 65.6608 164.434 61.6191Z" fill="#221E1F"/>
<path d="M175.283 50.6718C173.305 50.6718 171.462 51.2545 169.865 52.1967C173.096 54.0936 175.283 57.5898 175.283 61.6315C175.283 65.6733 173.096 69.1695 169.865 71.054C171.462 71.9962 173.305 72.5665 175.283 72.5665C181.279 72.5665 186.133 67.6693 186.133 61.6315C186.133 55.5937 181.279 50.6718 175.283 50.6718Z" fill="#221E1F"/>
<path d="M124.514 59.3999L165.724 0.596436H141.433L104.744 53.4613H103.184L117.228 0.596436H93.649L60.9902 123.596H84.5689L98.0969 72.6409H99.6573C102.25 72.6409 103.135 73.8683 103.393 76.1371L109.647 123.596H134.442L126.32 64.979C125.878 62.7101 125.349 60.7885 124.514 59.3999Z" fill="black"/>
<path d="M76.7788 22.4788L82.5905 0.596436H27.3606L14.0661 50.6717H10.9575C4.98608 50.6841 0.14502 55.5813 0.14502 61.6191C0.14502 66.7395 3.6468 71.0292 8.35271 72.2194L2.54098 94.1141C-3.16017 115.575 2.31981 123.609 21.168 123.609H50.8042L56.6159 101.726H34.4871C26.5251 101.726 24.7558 99.2841 27.0289 90.7295L31.8454 72.5541H51.7257C51.738 72.5541 51.7625 72.5541 51.7748 72.5541C57.7586 72.5541 62.6242 67.6569 62.6242 61.6191C62.6242 55.5813 57.7709 50.6841 51.7748 50.6717H37.6571L45.1399 22.4788H76.7911H76.7788ZM9.55683 72.4425C9.55683 72.4425 9.63055 72.4425 9.66741 72.4549C9.63055 72.4549 9.59369 72.4549 9.55683 72.4425ZM51.7625 56.8707C54.3551 56.8707 56.4684 59.0032 56.4684 61.6191C56.4684 64.2351 54.4042 66.3179 51.8485 66.3551H51.8363H51.7257H10.8961C8.34042 66.3179 6.27621 64.2103 6.27621 61.6191C6.27621 59.028 8.37728 56.8831 10.9575 56.8831H12.6654H51.7625V56.8707Z" fill="#221E1F"/>
</g>
<defs>
<clipPath id="clip0_1106_1245">
<rect width="186" height="123" fill="white" transform="translate(0.132812 0.596436)"/>
</clipPath>
</defs>
</svg>
