<svg width="188" height="124" viewBox="0 0 188 124" fill="none" xmlns="http://www.w3.org/2000/svg">
<g clip-path="url(#clip0_1106_1231)">
<path d="M32.8463 72.5541L28.0039 90.7295C25.7186 99.2841 27.4974 101.726 35.5022 101.726H57.75L51.907 123.609H22.1115C3.16199 123.609 -2.34746 115.575 3.38434 94.1141L28.3498 0.596436H83.8766L78.0336 22.4788H46.2123L38.6893 50.6717L32.8463 72.5541Z" fill="#007CC3"/>
<path d="M106.162 53.4613L143.035 0.596436H167.457L126.025 59.3999C126.865 60.7885 127.409 62.7101 127.841 64.979L136.007 123.596H111.078L104.79 76.1371C104.531 73.8683 103.642 72.6409 101.035 72.6409H99.4663L85.8656 123.596H62.1602L94.9945 0.596436H118.7L104.593 53.4613H106.162Z" fill="#007CC3"/>
<path d="M52.8953 50.6718H11.8462C5.84268 50.6842 0.975586 55.5813 0.975586 61.6191C0.975586 67.6569 5.85503 72.5541 11.8833 72.5541C11.908 72.5541 11.9204 72.5541 11.9327 72.5541H52.8459C52.8459 72.5541 52.883 72.5541 52.8953 72.5541C58.9112 72.5541 63.803 67.6569 63.803 61.6191C63.803 55.5813 58.9236 50.6842 52.8953 50.6718Z" fill="#8DC63F"/>
<path d="M166.16 61.6191C166.16 57.5774 168.371 54.0811 171.608 52.1842C170.002 51.242 168.149 50.6593 166.16 50.6593C160.132 50.6593 155.252 55.5689 155.252 61.6191C155.252 67.6693 160.132 72.5541 166.16 72.5541C168.149 72.5541 170.002 71.9714 171.608 71.0415C168.371 69.157 166.16 65.6608 166.16 61.6191Z" fill="#007CC3"/>
<path d="M177.068 50.6718C175.079 50.6718 173.226 51.2545 171.62 52.1967C174.869 54.0936 177.068 57.5898 177.068 61.6315C177.068 65.6733 174.869 69.1695 171.62 71.054C173.226 71.9962 175.079 72.5665 177.068 72.5665C183.096 72.5665 187.976 67.6693 187.976 61.6315C187.976 55.5937 183.096 50.6718 177.068 50.6718Z" fill="#8DC63F"/>
</g>
<defs>
<clipPath id="clip0_1106_1231">
<rect width="187" height="123" fill="white" transform="translate(0.975586 0.596436)"/>
</clipPath>
</defs>
</svg>
