<svg width="187" height="124" viewBox="0 0 187 124" fill="none" xmlns="http://www.w3.org/2000/svg">
<g clip-path="url(#clip0_1106_1238)">
<path d="M32.3457 72.5541L27.5292 90.7295C25.2561 99.2841 27.0254 101.726 34.9874 101.726H57.1162L51.3044 123.609H21.6683C2.8201 123.609 -2.65988 115.575 3.04127 94.1141L27.8732 0.596436H83.1031L77.2914 22.4788H45.6402L38.1574 50.6717L32.3457 72.5541Z" fill="#939598"/>
<path d="M105.269 53.4613L141.946 0.596436H166.237L125.027 59.3999C125.862 60.7885 126.403 62.7101 126.833 64.979L134.954 123.596H110.159L103.905 76.1371C103.647 73.8683 102.763 72.6409 100.17 72.6409H98.6096L85.0816 123.596H61.5029L94.1617 0.596436H117.74L103.709 53.4613H105.269Z" fill="#939598"/>
<path d="M52.2876 50.6718H11.458C5.48657 50.6842 0.645508 55.5813 0.645508 61.6191C0.645508 67.6569 5.49886 72.5541 11.4949 72.5541C11.5195 72.5541 11.5318 72.5541 11.544 72.5541H52.2385C52.2385 72.5541 52.2753 72.5541 52.2876 72.5541C58.2713 72.5541 63.137 67.6569 63.137 61.6191C63.137 55.5813 58.2836 50.6842 52.2876 50.6718Z" fill="#BCBEC0"/>
<path d="M164.947 61.6191C164.947 57.5774 167.146 54.0811 170.365 52.1842C168.768 51.242 166.925 50.6593 164.947 50.6593C158.951 50.6593 154.097 55.5689 154.097 61.6191C154.097 67.6693 158.951 72.5541 164.947 72.5541C166.925 72.5541 168.768 71.9714 170.365 71.0415C167.146 69.157 164.947 65.6608 164.947 61.6191Z" fill="#939598"/>
<path d="M175.796 50.6718C173.818 50.6718 171.975 51.2545 170.377 52.1967C173.609 54.0936 175.796 57.5898 175.796 61.6315C175.796 65.6733 173.609 69.1695 170.377 71.054C171.975 71.9962 173.818 72.5665 175.796 72.5665C181.792 72.5665 186.645 67.6693 186.645 61.6315C186.645 55.5937 181.792 50.6718 175.796 50.6718Z" fill="#BCBEC0"/>
</g>
<defs>
<clipPath id="clip0_1106_1238">
<rect width="186" height="123" fill="white" transform="translate(0.645508 0.596436)"/>
</clipPath>
</defs>
</svg>
