<svg width="28" height="31" viewBox="0 0 28 31" fill="none" xmlns="http://www.w3.org/2000/svg">
<path d="M11.667 16.482C12.0026 16.9405 12.4308 17.3199 12.9224 17.5944C13.4141 17.869 13.9578 18.0322 14.5167 18.0731C15.0755 18.114 15.6365 18.0316 16.1614 17.8315C16.6863 17.6314 17.163 17.3182 17.5591 16.9132L19.9035 14.5173C20.6152 13.7642 21.0091 12.7555 21.0002 11.7085C20.9913 10.6615 20.5804 9.65995 19.8559 8.91958C19.1315 8.17921 18.1515 7.75925 17.127 7.75015C16.1025 7.74105 15.1156 8.14354 14.3786 8.87094L13.0345 10.2366" stroke="white" stroke-width="1.5" stroke-linecap="round" stroke-linejoin="round"/>
<path d="M16.3333 14.518C15.9977 14.0595 15.5696 13.6801 15.0779 13.4055C14.5862 13.131 14.0425 12.9677 13.4836 12.9268C12.9248 12.8859 12.3639 12.9683 11.8389 13.1685C11.314 13.3686 10.8373 13.6818 10.4412 14.0867L8.09682 16.4826C7.38508 17.2358 6.99125 18.2445 7.00015 19.2915C7.00905 20.3385 7.41997 21.34 8.14441 22.0804C8.86885 22.8207 9.84884 23.2407 10.8733 23.2498C11.8978 23.2589 12.8848 22.8564 13.6217 22.129L14.958 20.7633" stroke="white" stroke-width="1.5" stroke-linecap="round" stroke-linejoin="round"/>
</svg>
