<svg width="117" height="77" viewBox="0 0 117 77" fill="none" xmlns="http://www.w3.org/2000/svg">
<g clip-path="url(#clip0_472_676)">
<path d="M20.0605 45.0534L17.0468 56.2838C15.6297 61.5699 16.7274 63.0859 21.6971 63.0859H35.4886L31.8561 76.6104H13.3943C1.63864 76.6104 -1.7743 71.6434 1.77835 58.3983L17.2663 0.610352H51.715L48.1025 14.1348H28.3633L23.693 31.5489L20.0805 45.0733L20.0605 45.0534Z" fill="white"/>
<path d="M65.5262 33.2644L88.4189 0.610352H103.568L77.8607 36.9348C78.3796 37.7925 78.7189 38.9694 78.9784 40.3857L84.0479 76.5904H68.5799L64.688 47.2676C64.5283 45.8712 63.9694 45.1132 62.3528 45.1132H61.3748L52.9522 76.5904H38.2427L58.6006 0.610352H73.3101L64.5682 33.2644H65.5462H65.5262Z" fill="white"/>
<path d="M32.4946 31.549H7.02729C3.29501 31.549 0.28125 34.581 0.28125 38.3112C0.28125 42.0413 3.31497 45.0734 7.04725 45.0734C7.04725 45.0734 7.06721 45.0734 7.08717 45.0734H32.4547C32.4547 45.0734 32.4746 45.0734 32.4946 45.0734C36.2269 45.0734 39.2606 42.0413 39.2606 38.3112C39.2606 34.581 36.2269 31.549 32.4946 31.549Z" fill="#8CC023"/>
<path d="M102.749 38.3112C102.749 35.8177 104.127 33.6634 106.122 32.4865C105.124 31.908 103.987 31.549 102.749 31.549C99.0171 31.549 95.9834 34.581 95.9834 38.3112C95.9834 42.0413 99.0171 45.0734 102.749 45.0734C103.987 45.0734 105.124 44.7143 106.122 44.1358C104.107 42.9589 102.749 40.8046 102.749 38.3112Z" fill="white"/>
<path d="M109.515 31.549C108.278 31.549 107.14 31.908 106.142 32.4865C108.158 33.6634 109.515 35.8177 109.515 38.3112C109.515 40.8046 108.158 42.9589 106.142 44.1358C107.14 44.7143 108.278 45.0734 109.515 45.0734C113.247 45.0734 116.281 42.0413 116.281 38.3112C116.281 34.581 113.247 31.549 109.515 31.549Z" fill="#8CC023"/>
</g>
<defs>
<clipPath id="clip0_472_676">
<rect width="116" height="76" fill="white" transform="translate(0.28125 0.610352)"/>
</clipPath>
</defs>
</svg>
