<?xml version="1.0" encoding="UTF-8"?><svg id="_레이어_1" xmlns="http://www.w3.org/2000/svg" viewBox="0 0 171.63 171.63"><defs><style>.cls-1{fill:#fff;}</style></defs><path class="cls-1" d="M143.85,85.82c0-3.26,1.79-6.08,4.41-7.61-1.3-.76-2.8-1.23-4.41-1.23-4.88,0-8.83,3.96-8.83,8.84s3.95,8.82,8.83,8.82c1.61,0,3.11-.47,4.41-1.22-2.62-1.52-4.41-4.34-4.41-7.6Z"/><path class="cls-1" d="M152.67,76.98c-1.61,0-3.11.47-4.41,1.23,2.63,1.53,4.41,4.35,4.41,7.61s-1.78,6.08-4.41,7.6c1.3.76,2.8,1.22,4.41,1.22,4.88,0,8.83-3.95,8.83-8.82s-3.95-8.84-8.83-8.84Z"/><path class="cls-1" d="M35.93,94.24h0s-16.93,0-16.93,0c-.02,0-.03,0-.04,0-.74,0-1.46-.1-2.15-.27l-4.73,17.66c-4.64,17.31-.18,23.79,15.16,23.79h24.12l4.73-17.65h-18.01c-6.48,0-7.92-1.97-6.07-8.87l3.92-14.66Z"/><polygon class="cls-1" points="46.75 53.85 72.51 53.85 77.23 36.21 32.29 36.21 21.46 76.59 40.66 76.59 46.75 53.85"/><path class="cls-1" d="M111.35,83.64l33.54-47.43h-19.77l-29.86,42.64h-1.27l11.42-42.64h-19.19l-26.58,99.21h19.19l11.01-41.1h1.27c2.11,0,2.83.99,3.04,2.82l5.09,38.28h20.18l-6.61-47.28c-.36-1.83-.79-3.38-1.47-4.5Z"/><path class="cls-1" d="M52.15,81.99c2.11,0,3.83,1.72,3.83,3.83s-1.68,3.79-3.76,3.82h-.01s-.1,0-.1,0H18.89c-2.08-.03-3.76-1.74-3.76-3.82s1.71-3.82,3.81-3.82h1.39s31.82,0,31.82,0M52.15,76.99H18.93c-4.86.01-8.8,3.96-8.8,8.83s3.95,8.82,8.83,8.82c.02,0,.03,0,.04,0h33.12s.03,0,.04,0c4.87,0,8.83-3.95,8.83-8.82s-3.95-8.82-8.83-8.83h0Z"/></svg>