<svg width="41" height="27" viewBox="0 0 41 27" fill="none" xmlns="http://www.w3.org/2000/svg">
<path d="M35.871 13.2971C35.871 12.424 36.3468 11.6696 37.0364 11.2575C36.6916 11.0549 36.2986 10.9292 35.871 10.9292C34.5814 10.9292 33.54 11.9909 33.54 13.2971C33.54 14.6032 34.5814 15.658 35.871 15.658C36.2986 15.658 36.6916 15.5322 37.0364 15.3297C36.3399 14.9245 35.871 14.1702 35.871 13.2971Z" fill="white"/>
<path d="M38.2016 10.9362C37.774 10.9362 37.3809 11.0619 37.0361 11.2645C37.7327 11.6766 38.2016 12.431 38.2016 13.3041C38.2016 14.1772 37.7327 14.9316 37.0361 15.3367C37.3809 15.5392 37.774 15.665 38.2016 15.665C39.4912 15.665 40.5394 14.6033 40.5394 13.3041C40.5394 12.0049 39.4981 10.9362 38.2016 10.9362Z" fill="white"/>
<path d="M27.2779 12.8221L36.1465 0.116638H30.9191L23.0229 11.5369H22.6849L25.7055 0.116638H20.6298L13.6025 26.6871H18.6782L21.5884 15.6789H21.9263C22.4849 15.6789 22.6711 15.9443 22.7332 16.4333L24.078 26.6871H29.4157L27.6709 14.0235C27.5744 13.5346 27.4641 13.1155 27.2847 12.8151L27.2779 12.8221Z" fill="white"/>
<path d="M17.0028 4.84539L18.251 0.116638H6.36184L3.49988 10.9362H2.83094C1.54823 10.9362 0.5 11.9979 0.5 13.2971C0.5 14.4007 1.25169 15.3297 2.26545 15.5881L1.01722 20.3169C-0.210317 24.9548 0.968946 26.6871 5.02396 26.6871H11.403L12.6512 21.9583H7.89281C6.17564 21.9583 5.79634 21.4275 6.28598 19.5835L7.32042 15.658H11.5961H11.603C12.8926 15.658 13.9408 14.5963 13.9408 13.2971C13.9408 11.9979 12.8926 10.9362 11.6099 10.9362H8.56864L10.1824 4.84539H16.9959H17.0028ZM2.5344 15.637C2.5344 15.637 2.54819 15.637 2.55509 15.637C2.54819 15.637 2.5413 15.637 2.5344 15.637ZM11.6237 12.2703C12.1823 12.2703 12.6374 12.7313 12.6374 13.2971C12.6374 13.8629 12.1892 14.3099 11.6444 14.3239H11.6237H2.83784C2.28614 14.3169 1.84477 13.8559 1.84477 13.2971C1.84477 12.7383 2.29993 12.2773 2.85163 12.2703H3.21713H11.6306H11.6237Z" fill="white"/>
</svg>
