<svg width="132" height="88" viewBox="0 0 132 88" fill="none" xmlns="http://www.w3.org/2000/svg">
<g clip-path="url(#clip0_1571_1285)">
<path d="M22.5073 51.1361L19.0779 63.992C17.4654 70.0432 18.7145 71.7786 24.3697 71.7786H40.0634L35.9299 87.2605H14.9217C1.5445 87.2605 -2.33919 81.5747 1.70348 66.4125L19.3277 0.260498H58.528L54.4172 15.7424H31.9554L26.6409 35.677L22.5301 51.1589L22.5073 51.1361Z" fill="#0073C0"/>
<path d="M74.2445 37.6408L100.295 0.260498H117.533L88.2803 41.8424C88.8708 42.8243 89.2569 44.1715 89.5522 45.7928L95.3209 87.2377H77.7194L73.2907 53.6707C73.109 52.0723 72.473 51.2046 70.6334 51.2046H69.5205L59.9362 87.2377H43.1978L66.3636 0.260498H83.1021L73.1544 37.6408H74.2673H74.2445Z" fill="#0073C0"/>
<path d="M36.6566 35.6771H7.67653C3.42946 35.6771 0 39.1479 0 43.418C0 47.6881 3.45217 51.159 7.69924 51.159C7.69924 51.159 7.72196 51.159 7.74467 51.159H36.6112C36.6112 51.159 36.6339 51.159 36.6566 51.159C40.9036 51.159 44.3558 47.6881 44.3558 43.418C44.3558 39.1479 40.9036 35.6771 36.6566 35.6771Z" fill="#8CC023"/>
<path d="M116.602 43.418C116.602 40.5637 118.169 38.0975 120.44 36.7503C119.304 36.0881 118.01 35.6771 116.602 35.6771C112.355 35.6771 108.902 39.1479 108.902 43.418C108.902 47.6881 112.355 51.159 116.602 51.159C118.01 51.159 119.304 50.7479 120.44 50.0857C118.146 48.7385 116.602 46.2723 116.602 43.418Z" fill="#0073C0"/>
<path d="M124.301 35.6771C122.893 35.6771 121.598 36.0881 120.462 36.7503C122.756 38.0975 124.301 40.5637 124.301 43.418C124.301 46.2723 122.756 48.7385 120.462 50.0857C121.598 50.7479 122.893 51.159 124.301 51.159C128.548 51.159 132 47.6881 132 43.418C132 39.1479 128.548 35.6771 124.301 35.6771Z" fill="#8CC023"/>
</g>
<defs>
<clipPath id="clip0_1571_1285">
<rect width="132" height="87" fill="white" transform="translate(0 0.260498)"/>
</clipPath>
</defs>
</svg>
