<svg width="75" height="74" viewBox="0 0 75 74" fill="none" xmlns="http://www.w3.org/2000/svg">
<circle cx="37.8516" cy="37" r="37" fill="#EEEEEE"/>
<path d="M44.3516 46L46.6016 47.875V48.5H29.1016V47.875L31.3516 46H29.1016C27.7208 46 26.6016 44.8808 26.6016 43.5V29.75C26.6016 26.9886 28.8401 24.75 31.6016 24.75H44.1016C46.8629 24.75 49.1016 26.9886 49.1016 29.75V43.5C49.1016 44.8808 47.9823 46 46.6016 46H44.3516ZM39.1016 27.25V34.75H46.6016V29.75C46.6016 28.3693 45.4823 27.25 44.1016 27.25H39.1016ZM36.6016 27.25H31.6016C30.2208 27.25 29.1016 28.3693 29.1016 29.75V34.75H36.6016V27.25ZM46.6016 37.25H29.1016V43.5H46.6016V37.25ZM32.2266 42.25C31.191 42.25 30.3516 41.4105 30.3516 40.375C30.3516 39.3395 31.191 38.5 32.2266 38.5C33.2621 38.5 34.1016 39.3395 34.1016 40.375C34.1016 41.4105 33.2621 42.25 32.2266 42.25ZM43.4766 42.25C42.4411 42.25 41.6016 41.4105 41.6016 40.375C41.6016 39.3395 42.4411 38.5 43.4766 38.5C44.5121 38.5 45.3516 39.3395 45.3516 40.375C45.3516 41.4105 44.5121 42.25 43.4766 42.25Z" fill="#007CC4"/>
</svg>
