<svg width="52" height="52" viewBox="0 0 52 52" fill="none" xmlns="http://www.w3.org/2000/svg">
<circle cx="10.5" cy="39.5" r="10.5" fill="url(#paint0_linear_2268_875)" fill-opacity="0.5"/>
<path d="M37.375 8.125H43.875C44.306 8.125 44.7193 8.29621 45.024 8.60095C45.3288 8.9057 45.5 9.31902 45.5 9.75V13.2031C45.5 14.4422 45.0078 15.6305 44.1316 16.5066C43.2555 17.3828 42.0672 17.875 40.8281 17.875H37.375M37.375 8.125H9.75V27.625C9.75 29.7799 10.606 31.8465 12.1298 33.3702C13.6535 34.894 15.7201 35.75 17.875 35.75H29.25C30.317 35.75 31.3735 35.5398 32.3593 35.1315C33.3451 34.7232 34.2408 34.1247 34.9952 33.3702C35.7497 32.6158 36.3482 31.7201 36.7565 30.7343C37.1648 29.7485 37.375 28.692 37.375 27.625V8.125ZM6.5 42.25H40.625" stroke="#007CC4" stroke-width="2" stroke-linecap="round" stroke-linejoin="round"/>
<defs>
<linearGradient id="paint0_linear_2268_875" x1="10.5" y1="29" x2="10.5" y2="50" gradientUnits="userSpaceOnUse">
<stop stop-color="#007CC4"/>
<stop offset="1" stop-color="#73C108"/>
</linearGradient>
</defs>
</svg>
