<svg width="53" height="52" viewBox="0 0 53 52" fill="none" xmlns="http://www.w3.org/2000/svg">
<circle cx="11" cy="39.5" r="10.5" fill="url(#paint0_linear_2268_914)" fill-opacity="0.5"/>
<path d="M41.9088 22.75C41.5635 22.75 40.4067 22.7602 40.0807 22.7805L33.4893 22.9531C33.455 22.9552 33.4209 22.9478 33.3906 22.9317C33.3603 22.9155 33.335 22.8913 33.3177 22.8617L20.1572 6.86156C20.0774 6.75589 19.9755 6.66883 19.8587 6.6064C19.742 6.54398 19.613 6.50767 19.4808 6.5H16.7498L24.1638 22.8516C24.1815 22.889 24.1892 22.9304 24.186 22.9717C24.1829 23.0129 24.169 23.0527 24.1459 23.087C24.1227 23.1213 24.0911 23.149 24.054 23.1674C24.0169 23.1858 23.9756 23.1942 23.9343 23.1918L11.5752 23.3746C11.4466 23.3785 11.3188 23.352 11.2024 23.2973C11.0859 23.2426 10.984 23.1612 10.9049 23.0598L7.14704 18.4895C6.84235 18.0934 6.27157 17.8801 5.77493 17.8801H3.85946C3.72844 17.8801 3.74774 18.003 3.78329 18.1269L5.79829 25.3805C5.9506 25.7689 5.9506 26.2006 5.79829 26.5891L3.78126 33.8203C3.72134 34.0184 3.72844 34.125 3.96102 34.125H5.78102C6.60774 34.125 6.72048 34.0173 7.14298 33.4852L10.9719 28.8438C11.0517 28.7431 11.1538 28.6622 11.2701 28.6076C11.3864 28.553 11.5137 28.526 11.6422 28.5289L23.8988 28.8031C23.9434 28.8041 23.9871 28.816 24.0261 28.8378C24.0651 28.8595 24.0981 28.8904 24.1225 28.9279C24.1468 28.9653 24.1616 29.0081 24.1656 29.0526C24.1696 29.097 24.1628 29.1418 24.1456 29.183L16.7498 45.5H19.4554C19.5873 45.4923 19.7161 45.4561 19.8327 45.3938C19.9493 45.3316 20.051 45.2448 20.1308 45.1395L33.3187 29.1484C33.3583 29.0875 33.5218 29.057 33.5919 29.057L40.0817 29.2297C40.4169 29.25 41.5635 29.2602 41.9099 29.2602C46.406 29.2602 49.2498 28.0241 49.2498 26C49.2498 23.9759 46.4182 22.75 41.9088 22.75Z" stroke="#007CC4" stroke-width="2" stroke-linecap="round" stroke-linejoin="round"/>
<defs>
<linearGradient id="paint0_linear_2268_914" x1="11" y1="29" x2="11" y2="50" gradientUnits="userSpaceOnUse">
<stop stop-color="#007CC4"/>
<stop offset="1" stop-color="#73C108"/>
</linearGradient>
</defs>
</svg>
