<svg width="52" height="52" viewBox="0 0 52 52" fill="none" xmlns="http://www.w3.org/2000/svg">
<circle cx="10.5" cy="40.5" r="10.5" fill="url(#paint0_linear_1185_1041)" fill-opacity="0.5"/>
<path d="M45.1875 26H40.3125C39.8638 26 39.5 26.1791 39.5 26.4V41.6C39.5 41.8209 39.8638 42 40.3125 42H45.1875C45.6362 42 46 41.8209 46 41.6V26.4C46 26.1791 45.6362 26 45.1875 26Z" stroke="#007CC4" stroke-width="2" stroke-linejoin="round"/>
<path d="M34.625 10.25H29.375C28.8918 10.25 28.5 10.7276 28.5 11.3167V41.1833C28.5 41.7724 28.8918 42.25 29.375 42.25H34.625C35.1082 42.25 35.5 41.7724 35.5 41.1833V11.3167C35.5 10.7276 35.1082 10.25 34.625 10.25Z" stroke="#007CC4" stroke-width="2" stroke-linejoin="round"/>
<path d="M23.625 10.25H18.375C17.8918 10.25 17.5 10.9012 17.5 11.7045V40.7955C17.5 41.5988 17.8918 42.25 18.375 42.25H23.625C24.1082 42.25 24.5 41.5988 24.5 40.7955V11.7045C24.5 10.9012 24.1082 10.25 23.625 10.25Z" stroke="#007CC4" stroke-width="2" stroke-linejoin="round"/>
<path d="M12.125 10H6.875C6.39175 10 6 11.0233 6 12.2857V39.7143C6 40.9767 6.39175 42 6.875 42H12.125C12.6082 42 13 40.9767 13 39.7143V12.2857C13 11.0233 12.6082 10 12.125 10Z" stroke="#007CC4" stroke-width="2" stroke-linejoin="round"/>
<defs>
<linearGradient id="paint0_linear_1185_1041" x1="10.5" y1="30" x2="10.5" y2="51" gradientUnits="userSpaceOnUse">
<stop stop-color="#007CC4"/>
<stop offset="1" stop-color="#73C108"/>
</linearGradient>
</defs>
</svg>
