<svg width="52" height="52" viewBox="0 0 52 52" fill="none" xmlns="http://www.w3.org/2000/svg">
<circle cx="10.5" cy="39.5" r="10.5" fill="url(#paint0_linear_2268_900)" fill-opacity="0.5"/>
<path d="M11.4677 13.0002C8.31434 16.522 6.54888 21.0701 6.50023 25.7971C6.38039 36.5983 15.1991 45.4799 26.0002 45.5002C36.7862 45.5205 45.5002 36.7831 45.5002 26.0002C45.5002 15.3829 37.0147 6.74296 26.4573 6.50023C26.3978 6.49832 26.3386 6.5084 26.2832 6.52986C26.2278 6.55132 26.1772 6.58372 26.1345 6.62514C26.0919 6.66656 26.058 6.71614 26.0349 6.77094C26.0119 6.82573 26.0001 6.8846 26.0002 6.94406V15.4377" stroke="#1774D0" stroke-width="2" stroke-linecap="round" stroke-linejoin="round"/>
<path d="M23.7028 28.2983L15.6794 16.8218C15.5684 16.6628 15.5169 16.4698 15.534 16.2766C15.551 16.0834 15.6355 15.9024 15.7726 15.7653C15.9097 15.6282 16.0907 15.5437 16.2839 15.5266C16.4771 15.5096 16.6701 15.5611 16.8291 15.6721L28.3057 23.6955C29.0096 24.2025 29.4856 24.9662 29.6308 25.8215C29.776 26.6768 29.5787 27.5548 29.0815 28.2657C28.5843 28.9766 27.8272 29.4632 26.974 29.6202C26.1209 29.7772 25.2402 29.592 24.5225 29.1047C24.2051 28.8848 23.9279 28.6121 23.7028 28.2983Z" fill="#1774D0"/>
<defs>
<linearGradient id="paint0_linear_2268_900" x1="10.5" y1="29" x2="10.5" y2="50" gradientUnits="userSpaceOnUse">
<stop stop-color="#007CC4"/>
<stop offset="1" stop-color="#73C108"/>
</linearGradient>
</defs>
</svg>
