<svg width="53" height="52" viewBox="0 0 53 52" fill="none" xmlns="http://www.w3.org/2000/svg">
<circle cx="11" cy="39.5" r="10.5" fill="url(#paint0_linear_2268_930)" fill-opacity="0.5"/>
<path d="M36.4685 9C29.8751 9 26.6251 15.5 26.6251 15.5C26.6251 15.5 23.3751 9 16.7816 9C11.4232 9 7.17991 13.483 7.12506 18.8323C7.01334 29.9361 15.9336 37.8326 25.711 44.4687C25.9806 44.6521 26.299 44.7501 26.6251 44.7501C26.9511 44.7501 27.2696 44.6521 27.5391 44.4687C37.3155 37.8326 46.2358 29.9361 46.1251 18.8323C46.0702 13.483 41.8269 9 36.4685 9Z" stroke="#1774D0" stroke-width="2" stroke-linecap="round" stroke-linejoin="round"/>
<path d="M5.5 26.875H16.875L21.75 17.125L26.625 33.375L31.5 23.625L34.75 30.125H47.75" stroke="#1774D0" stroke-width="2" stroke-linecap="round" stroke-linejoin="round"/>
<defs>
<linearGradient id="paint0_linear_2268_930" x1="11" y1="29" x2="11" y2="50" gradientUnits="userSpaceOnUse">
<stop stop-color="#007CC4"/>
<stop offset="1" stop-color="#73C108"/>
</linearGradient>
</defs>
</svg>
